<svg width="100" height="100" viewBox="0 0 100 100" fill="none" xmlns="http://www.w3.org/2000/svg">
<circle cx="50" cy="50" r="50" fill="#005C47"/>
<g clip-path="url(#clip0_67_218)">
<path d="M25 33.75C25 31.6797 26.6797 30 28.75 30H51.25C53.3203 30 55 31.6797 55 33.75V66.25C55 68.3203 53.3203 70 51.25 70H43.75V63.75C43.75 61.6797 42.0703 60 40 60C37.9297 60 36.25 61.6797 36.25 63.75V70H28.75C26.6797 70 25 68.3203 25 66.25V33.75ZM31.25 47.5C30.5625 47.5 30 48.0625 30 48.75V51.25C30 51.9375 30.5625 52.5 31.25 52.5H33.75C34.4375 52.5 35 51.9375 35 51.25V48.75C35 48.0625 34.4375 47.5 33.75 47.5H31.25ZM37.5 48.75V51.25C37.5 51.9375 38.0625 52.5 38.75 52.5H41.25C41.9375 52.5 42.5 51.9375 42.5 51.25V48.75C42.5 48.0625 41.9375 47.5 41.25 47.5H38.75C38.0625 47.5 37.5 48.0625 37.5 48.75ZM46.25 47.5C45.5625 47.5 45 48.0625 45 48.75V51.25C45 51.9375 45.5625 52.5 46.25 52.5H48.75C49.4375 52.5 50 51.9375 50 51.25V48.75C50 48.0625 49.4375 47.5 48.75 47.5H46.25ZM30 38.75V41.25C30 41.9375 30.5625 42.5 31.25 42.5H33.75C34.4375 42.5 35 41.9375 35 41.25V38.75C35 38.0625 34.4375 37.5 33.75 37.5H31.25C30.5625 37.5 30 38.0625 30 38.75ZM38.75 37.5C38.0625 37.5 37.5 38.0625 37.5 38.75V41.25C37.5 41.9375 38.0625 42.5 38.75 42.5H41.25C41.9375 42.5 42.5 41.9375 42.5 41.25V38.75C42.5 38.0625 41.9375 37.5 41.25 37.5H38.75ZM45 38.75V41.25C45 41.9375 45.5625 42.5 46.25 42.5H48.75C49.4375 42.5 50 41.9375 50 41.25V38.75C50 38.0625 49.4375 37.5 48.75 37.5H46.25C45.5625 37.5 45 38.0625 45 38.75ZM75 45V46.25C75 49.7031 72.2031 52.5 68.75 52.5H67.5V51.25C67.5 47.7969 70.2969 45 73.75 45H75ZM75 55C75 58.4531 72.2031 61.25 68.75 61.25H67.5V60C67.5 56.5469 70.2969 53.75 73.75 53.75H75V55ZM75 63.75C75 67.2031 72.2031 70 68.75 70H67.5V68.75C67.5 65.2969 70.2969 62.5 73.75 62.5H75V63.75ZM65 68.75V70H63.75C60.2969 70 57.5 67.2031 57.5 63.75V62.5H58.75C62.2031 62.5 65 65.2969 65 68.75ZM65 61.25H63.75C60.2969 61.25 57.5 58.4531 57.5 55V53.75H58.75C62.2031 53.75 65 56.5469 65 60V61.25ZM65 51.25V52.5H63.75C60.2969 52.5 57.5 49.7031 57.5 46.25V45H58.75C62.2031 45 65 47.7969 65 51.25ZM66.25 32.5C67.2891 32.5 68.125 33.3359 68.125 34.375V42.5C68.125 43.5391 67.2891 44.375 66.25 44.375C65.2109 44.375 64.375 43.5391 64.375 42.5V34.375C64.375 33.3359 65.2109 32.5 66.25 32.5ZM73.75 37.5V40C73.75 41.0391 72.9141 41.875 71.875 41.875C70.8359 41.875 70 41.0391 70 40V37.5C70 36.4609 70.8359 35.625 71.875 35.625C72.9141 35.625 73.75 36.4609 73.75 37.5ZM60.625 35.625C61.6641 35.625 62.5 36.4609 62.5 37.5V40C62.5 41.0391 61.6641 41.875 60.625 41.875C59.5859 41.875 58.75 41.0391 58.75 40V37.5C58.75 36.4609 59.5859 35.625 60.625 35.625Z" fill="white"/>
</g>
<defs>
<clipPath id="clip0_67_218">
<rect width="50" height="40" fill="white" transform="translate(25 30)"/>
</clipPath>
</defs>
</svg>
