<svg width="100" height="100" viewBox="0 0 100 100" fill="none" xmlns="http://www.w3.org/2000/svg">
<circle cx="50" cy="50" r="50" fill="#005C47"/>
<path fill-rule="evenodd" clip-rule="evenodd" d="M31.9672 31.0302C31.7508 31.0635 29.1283 31.4072 26.1393 31.794C23.1504 32.1809 20.5986 32.5527 20.4686 32.6205C20.1814 32.7701 19.8361 33.3908 19.8361 33.7575C19.8361 34.2151 20.1982 34.7353 20.6409 34.9139C21.0182 35.0661 21.696 35.0018 26.8438 34.3253C31.8522 33.6672 32.8766 33.5682 34.5246 33.5826C36.5705 33.6005 38.2847 33.8706 40.1639 34.4716C41.5809 34.9247 44.146 36.1991 45.2131 36.98L46.1311 37.6518L36.7541 37.7159C28.1642 37.7748 27.3279 37.7992 26.7912 38.0074C25.2651 38.5994 24.2727 39.4928 23.5954 40.8848L23.1803 41.7377L23.1454 46.3981C23.1068 51.562 23.1028 51.534 23.9355 51.9308L24.4262 52.1649V56.1589C24.4262 60.4388 24.4974 61.1389 25.0434 62.2307C25.7933 63.7305 27.3309 64.7794 29.1924 65.0612C30.1287 65.2029 30.1776 65.2277 30.3911 65.6671C31.5852 68.125 34.6678 69.5187 37.3639 68.8198C38.9226 68.4157 40.4171 67.262 41.1498 65.897L41.541 65.1681L48.1242 65.1677L54.7073 65.1674L55.1875 65.8717C56.5987 67.9416 59.0261 69.0999 61.672 68.9659C63.5495 68.8708 64.984 68.2623 66.47 66.9307L67.0058 66.4508L74.1203 66.4155L81.2348 66.3804L81.6174 65.9634C81.8934 65.6627 82 65.4154 82 65.0762C82 64.6344 81.826 64.4351 79.1325 61.7904C76.9393 59.6369 75.7014 58.2843 73.8682 56.0381C72.55 54.4229 71.2613 52.886 71.0042 52.6226L70.5369 52.1438H68.9242H67.3115V50.8185V49.4931L68.0674 49.4399C69.4649 49.3416 70.7418 48.4774 71.3233 47.2366C71.5313 46.7929 71.9582 44.8166 72.6821 40.9468C73.2627 37.8432 73.7377 35.2721 73.7377 35.233C73.7377 35.1939 73.8912 35.162 74.0787 35.162C74.6009 35.162 75.3115 34.4066 75.3115 33.8514C75.3115 33.2773 74.9023 32.7789 74.288 32.6048C73.5104 32.3843 53.5571 32.4908 53.2131 32.7171C53.0689 32.8121 52.2721 33.7784 51.4426 34.8643C50.6131 35.9502 49.8624 36.898 49.7744 36.9704C49.6577 37.0665 49.3037 36.8444 48.463 36.1472C45.4711 33.666 42.2446 32.107 38.4822 31.3244C37.5339 31.1271 36.5999 31.049 34.7869 31.015C33.4525 30.9901 32.1836 30.9969 31.9672 31.0302ZM59.3115 36.4388V37.7157H55.9683H52.6249L53.5748 36.4474L54.5246 35.1793L56.918 35.1706L59.3115 35.162V36.4388ZM70.9836 35.2948C70.9836 35.7421 68.9692 46.0922 68.8442 46.287C68.4925 46.8353 68.026 46.9088 64.8982 46.9088H61.9344V41.0354V35.162H66.459C69.5028 35.162 70.9836 35.2054 70.9836 35.2948ZM18.3833 37.3228C18.1231 37.5761 18 37.8242 18 38.0953C18 39.3289 19.3802 39.9667 20.2396 39.13C21.0843 38.3075 20.5064 36.9496 19.3115 36.9496C18.8842 36.9496 18.6841 37.0301 18.3833 37.3228ZM59.3115 41.6738V42.9507L55.8033 42.9526C51.9068 42.9546 51.7881 42.9761 51.3993 43.7489C51.1966 44.1522 51.1832 44.2959 51.3128 44.6781C51.6039 45.5373 51.7287 45.5636 55.7315 45.6076L59.3115 45.6471V47.5548V49.4625L57.1148 49.4669C55.6414 49.47 54.8254 49.5226 54.6367 49.6266C54.482 49.7118 53.2391 51.1319 51.8748 52.7822C50.5104 54.4325 49.3386 55.7745 49.2708 55.7643C49.203 55.754 43.9075 54.4051 37.503 52.7665L25.8584 49.7873L25.8964 45.8699L25.9344 41.9524L26.3403 41.462C26.5635 41.1923 26.9767 40.8433 27.2584 40.6863L27.7705 40.4012L43.541 40.399L59.3115 40.397V41.6738ZM33.1197 43.2017C32.6786 43.4636 32.4275 44.0491 32.5309 44.5754C32.6104 44.9802 33.1471 45.4595 33.6248 45.5526C33.8492 45.5962 35.7978 45.632 37.955 45.632C42.1624 45.632 42.531 45.584 42.9664 44.9786C43.3833 44.3992 43.1478 43.4559 42.5056 43.1326C42.2143 42.9859 41.3098 42.9508 37.8426 42.9512C33.8029 42.9516 33.5153 42.9669 33.1197 43.2017ZM46.5607 43.1497C46.1007 43.3927 45.9344 43.706 45.9344 44.3294C45.9344 45.2284 46.8476 45.7975 47.7205 45.4424C48.6574 45.0613 48.8411 44.0951 48.1115 43.3848C47.6168 42.9032 47.1587 42.8337 46.5607 43.1497ZM64.5574 52.4559V55.4493L64 55.2116C62.5907 54.6108 60.5157 54.5557 58.918 55.0766C56.0126 56.024 53.9344 58.7794 53.9344 61.6843V62.4887L47.8787 62.4555L41.8231 62.4223L41.6742 61.7786C41.006 58.8902 37.9225 56.8854 34.9089 57.3803C32.512 57.7739 30.6236 59.4604 30.0121 61.7539C29.8363 62.4132 29.8273 62.422 29.3481 62.4067C28.6967 62.3859 27.8704 61.8034 27.4855 61.0935C27.1858 60.5407 27.1803 60.4627 27.1803 56.7203C27.1803 53.7566 27.2168 52.9102 27.3443 52.9108C27.4345 52.9113 32.531 54.1977 38.67 55.7694C45.4889 57.5153 49.9652 58.6023 50.175 58.5632C50.6395 58.4767 50.7698 58.3373 53.4754 55.0311L55.8361 52.1464L58.2337 52.1451C61.5693 52.1433 61.9344 51.964 61.9344 50.3278V49.4625H63.2459H64.5574V52.4559ZM70.8509 56.545C71.6796 57.5604 72.378 58.4507 72.4028 58.5234C72.4329 58.6112 71.6782 58.6556 70.155 58.6556H67.862L67.5868 58.2015C67.3486 57.8085 67.3115 57.5417 67.3115 56.2224V54.6975L68.3279 54.6982L69.3443 54.699L70.8509 56.545ZM62.9157 57.6051C65.8062 58.7049 66.8403 62.1347 65.0126 64.5601C64.1123 65.7547 62.2567 66.5697 60.8502 66.388C56.902 65.878 55.1959 61.4344 57.9133 58.7382C59.2804 57.382 61.1916 56.949 62.9157 57.6051ZM37.2205 60.2356C37.9633 60.5723 38.7687 61.4051 38.9938 62.0695C39.0759 62.3114 39.1204 62.8989 39.0927 63.3749C39.0266 64.5137 38.5374 65.3205 37.5705 65.885C36.381 66.5796 35.2911 66.5796 34.1016 65.885C32.8344 65.1451 32.2636 63.6446 32.688 62.1687C33.0472 60.9194 34.4348 59.935 35.8361 59.935C36.3183 59.935 36.777 60.0346 37.2205 60.2356ZM60.3506 60.9441C60.05 61.2369 59.9672 61.4317 59.9672 61.8477C59.9672 63.0243 61.3625 63.5733 62.2232 62.7353C62.5839 62.3842 62.6161 62.2879 62.5538 61.75C62.4647 60.9797 62.0165 60.5709 61.2613 60.5709C60.8533 60.5709 60.6472 60.6554 60.3506 60.9441ZM76.0328 62.4861L77.3393 63.7629H72.8359C68.5992 63.7629 68.3381 63.7497 68.4249 63.5395C68.4758 63.4167 68.5494 62.8421 68.5886 62.2627L68.6599 61.2093H71.6931H74.7263L76.0328 62.4861Z" fill="white"/>
</svg>
