<svg width="100" height="100" viewBox="0 0 100 100" fill="none" xmlns="http://www.w3.org/2000/svg">
<circle cx="50" cy="50" r="50" fill="#005C47"/>
<path d="M23.9919 49.3791C23.9919 49.9314 24.4396 50.3791 24.9919 50.3791C25.5442 50.3791 25.9919 49.9314 25.9919 49.3791H23.9919ZM24.9919 31V30C24.4396 30 23.9919 30.4477 23.9919 31H24.9919ZM63.2672 31H64.2672C64.2672 30.4477 63.8195 30 63.2672 30V31ZM62.2672 49.3791C62.2672 49.9314 62.7149 50.3791 63.2672 50.3791C63.8195 50.3791 64.2672 49.9314 64.2672 49.3791H62.2672ZM76.417 47.6863L77.1344 46.9896C76.9461 46.7957 76.6873 46.6863 76.417 46.6863V47.6863ZM79 50.3464H80C80 50.0863 79.8986 49.8364 79.7174 49.6498L79 50.3464ZM79 62.1961V63.1961C79.5523 63.1961 80 62.7484 80 62.1961H79ZM24.9919 62.1961H23.9919C23.9919 62.7484 24.4396 63.1961 24.9919 63.1961V62.1961ZM24.9919 57.6013H25.9919V56.6013H24.9919V57.6013ZM21 56.6013C20.4477 56.6013 20 57.049 20 57.6013C20 58.1536 20.4477 58.6013 21 58.6013V56.6013ZM30.1579 58.6013C30.7102 58.6013 31.1579 58.1536 31.1579 57.6013C31.1579 57.049 30.7102 56.6013 30.1579 56.6013V58.6013ZM71.9555 35.1716L72.4771 34.3184C72.3201 34.2224 72.1396 34.1716 71.9555 34.1716V35.1716ZM73.834 36.3203H74.834C74.834 35.972 74.6528 35.6488 74.3557 35.4671L73.834 36.3203ZM73.834 39.3431V40.3431C74.3863 40.3431 74.834 39.8954 74.834 39.3431H73.834ZM52.7134 40.8862C53.0981 40.4899 53.0888 39.8568 52.6926 39.4721C52.2964 39.0874 51.6633 39.0967 51.2785 39.4929L52.7134 40.8862ZM43.3077 49.1373L42.5903 49.8339L43.3077 50.5727L44.0251 49.8339L43.3077 49.1373ZM39.094 43.3622C38.7092 42.966 38.0761 42.9567 37.6799 43.3414C37.2837 43.7261 37.2743 44.3592 37.6591 44.7555L39.094 43.3622ZM34.8543 54.4902C35.4065 54.4902 35.8543 54.0425 35.8543 53.4902C35.8543 52.9379 35.4065 52.4902 34.8543 52.4902V54.4902ZM22.8785 52.4902C22.3263 52.4902 21.8785 52.9379 21.8785 53.4902C21.8785 54.0425 22.3263 54.4902 22.8785 54.4902V52.4902ZM64.2672 53.4902C64.2672 52.9379 63.8195 52.4902 63.2672 52.4902C62.7149 52.4902 62.2672 52.9379 62.2672 53.4902H64.2672ZM59.2753 58.6013C59.8276 58.6013 60.2753 58.1536 60.2753 57.6013C60.2753 57.049 59.8276 56.6013 59.2753 56.6013V58.6013ZM44.7166 56.6013C44.1643 56.6013 43.7166 57.049 43.7166 57.6013C43.7166 58.1536 44.1643 58.6013 44.7166 58.6013V56.6013ZM75.0081 51.5556V50.5556C74.4558 50.5556 74.0081 51.0033 74.0081 51.5556H75.0081ZM75.0081 54.2157H74.0081C74.0081 54.4758 74.1095 54.7257 74.2907 54.9123L75.0081 54.2157ZM76.417 55.6667L75.6996 56.3633C75.8879 56.5572 76.1467 56.6667 76.417 56.6667V55.6667ZM25.9919 49.3791V31H23.9919V49.3791H25.9919ZM24.9919 32H63.2672V30H24.9919V32ZM62.2672 47.6863V49.3791H64.2672V47.6863H62.2672ZM75.6996 48.3829L78.2826 51.043L79.7174 49.6498L77.1344 46.9896L75.6996 48.3829ZM79 61.1961H76.417V63.1961H79V61.1961ZM31.0972 61.1961H24.9919V63.1961H31.0972V61.1961ZM25.9919 62.1961V57.6013H23.9919V62.1961H25.9919ZM24.9919 56.6013H21V58.6013H24.9919V56.6013ZM21 58.6013H30.1579V56.6013H21V58.6013ZM62.2672 39.3431V47.6863H64.2672V39.3431H62.2672ZM63.2672 40.3431H73.3644V38.3431H63.2672V40.3431ZM63.2672 48.6863H75.0081V46.6863H63.2672V48.6863ZM75.0081 48.6863H76.417V46.6863H75.0081V48.6863ZM72.3832 39.5364L74.027 47.8796L75.9892 47.493L74.3455 39.1498L72.3832 39.5364ZM62.2672 31V35.1716H64.2672V31H62.2672ZM62.2672 35.1716V39.3431H64.2672V35.1716H62.2672ZM63.2672 36.1716H71.9555V34.1716H63.2672V36.1716ZM71.4338 36.0247L73.3123 37.1734L74.3557 35.4671L72.4771 34.3184L71.4338 36.0247ZM72.834 36.3203V39.3431H74.834V36.3203H72.834ZM73.834 38.3431H73.3644V40.3431H73.834V38.3431ZM51.2785 39.4929L42.5903 48.4406L44.0251 49.8339L52.7134 40.8862L51.2785 39.4929ZM44.0251 48.4406L39.094 43.3622L37.6591 44.7555L42.5903 49.8339L44.0251 48.4406ZM34.8543 52.4902H22.8785V54.4902H34.8543V52.4902ZM65.1457 61.1961H63.2672V63.1961H65.1457V61.1961ZM63.2672 61.1961H42.3684V63.1961H63.2672V61.1961ZM64.2672 62.1961V53.4902H62.2672V62.1961H64.2672ZM59.2753 56.6013C59.2642 56.6013 59.2531 56.6013 59.242 56.6013C59.2308 56.6013 59.2197 56.6013 59.2085 56.6013C59.1974 56.6013 59.1862 56.6013 59.175 56.6013C59.1639 56.6013 59.1527 56.6013 59.1415 56.6013C59.1303 56.6013 59.1191 56.6013 59.1078 56.6013C59.0966 56.6013 59.0854 56.6013 59.0741 56.6013C59.0629 56.6013 59.0516 56.6013 59.0404 56.6013C59.0291 56.6013 59.0178 56.6013 59.0065 56.6013C58.9952 56.6013 58.9839 56.6013 58.9726 56.6013C58.9613 56.6013 58.9499 56.6013 58.9386 56.6013C58.9273 56.6013 58.9159 56.6013 58.9046 56.6013C58.8932 56.6013 58.8818 56.6013 58.8704 56.6013C58.8591 56.6013 58.8477 56.6013 58.8363 56.6013C58.8249 56.6013 58.8134 56.6013 58.802 56.6013C58.7906 56.6013 58.7791 56.6013 58.7677 56.6013C58.7562 56.6013 58.7448 56.6013 58.7333 56.6013C58.7218 56.6013 58.7104 56.6013 58.6989 56.6013C58.6874 56.6013 58.6759 56.6013 58.6644 56.6013C58.6528 56.6013 58.6413 56.6013 58.6298 56.6013C58.6183 56.6013 58.6067 56.6013 58.5952 56.6013C58.5836 56.6013 58.572 56.6013 58.5605 56.6013C58.5489 56.6013 58.5373 56.6013 58.5257 56.6013C58.5141 56.6013 58.5025 56.6013 58.4909 56.6013C58.4793 56.6013 58.4676 56.6013 58.456 56.6013C58.4444 56.6013 58.4327 56.6013 58.4211 56.6013C58.4094 56.6013 58.3977 56.6013 58.3861 56.6013C58.3744 56.6013 58.3627 56.6013 58.351 56.6013C58.3393 56.6013 58.3276 56.6013 58.3159 56.6013C58.3042 56.6013 58.2925 56.6013 58.2807 56.6013C58.269 56.6013 58.2572 56.6013 58.2455 56.6013C58.2337 56.6013 58.222 56.6013 58.2102 56.6013C58.1984 56.6013 58.1866 56.6013 58.1749 56.6013C58.1631 56.6013 58.1513 56.6013 58.1395 56.6013C58.1276 56.6013 58.1158 56.6013 58.104 56.6013C58.0922 56.6013 58.0803 56.6013 58.0685 56.6013C58.0566 56.6013 58.0448 56.6013 58.0329 56.6013C58.0211 56.6013 58.0092 56.6013 57.9973 56.6013C57.9854 56.6013 57.9735 56.6013 57.9616 56.6013C57.9497 56.6013 57.9378 56.6013 57.9259 56.6013C57.914 56.6013 57.9021 56.6013 57.8901 56.6013C57.8782 56.6013 57.8663 56.6013 57.8543 56.6013C57.8424 56.6013 57.8304 56.6013 57.8184 56.6013C57.8065 56.6013 57.7945 56.6013 57.7825 56.6013C57.7705 56.6013 57.7585 56.6013 57.7465 56.6013C57.7345 56.6013 57.7225 56.6013 57.7105 56.6013C57.6985 56.6013 57.6865 56.6013 57.6744 56.6013C57.6624 56.6013 57.6504 56.6013 57.6383 56.6013C57.6263 56.6013 57.6142 56.6013 57.6021 56.6013C57.5901 56.6013 57.578 56.6013 57.5659 56.6013C57.5538 56.6013 57.5417 56.6013 57.5297 56.6013C57.5176 56.6013 57.5055 56.6013 57.4933 56.6013C57.4812 56.6013 57.4691 56.6013 57.457 56.6013C57.4449 56.6013 57.4327 56.6013 57.4206 56.6013C57.4084 56.6013 57.3963 56.6013 57.3841 56.6013C57.372 56.6013 57.3598 56.6013 57.3477 56.6013C57.3355 56.6013 57.3233 56.6013 57.3111 56.6013C57.2989 56.6013 57.2867 56.6013 57.2745 56.6013C57.2623 56.6013 57.2501 56.6013 57.2379 56.6013C57.2257 56.6013 57.2135 56.6013 57.2013 56.6013C57.189 56.6013 57.1768 56.6013 57.1646 56.6013C57.1523 56.6013 57.1401 56.6013 57.1278 56.6013C57.1156 56.6013 57.1033 56.6013 57.091 56.6013C57.0788 56.6013 57.0665 56.6013 57.0542 56.6013C57.0419 56.6013 57.0297 56.6013 57.0174 56.6013C57.0051 56.6013 56.9928 56.6013 56.9805 56.6013C56.9682 56.6013 56.9558 56.6013 56.9435 56.6013C56.9312 56.6013 56.9189 56.6013 56.9066 56.6013C56.8942 56.6013 56.8819 56.6013 56.8695 56.6013C56.8572 56.6013 56.8449 56.6013 56.8325 56.6013C56.8201 56.6013 56.8078 56.6013 56.7954 56.6013C56.7831 56.6013 56.7707 56.6013 56.7583 56.6013C56.7459 56.6013 56.7335 56.6013 56.7211 56.6013C56.7088 56.6013 56.6964 56.6013 56.684 56.6013C56.6716 56.6013 56.6592 56.6013 56.6467 56.6013C56.6343 56.6013 56.6219 56.6013 56.6095 56.6013C56.5971 56.6013 56.5846 56.6013 56.5722 56.6013C56.5598 56.6013 56.5473 56.6013 56.5349 56.6013C56.5224 56.6013 56.51 56.6013 56.4975 56.6013C56.4851 56.6013 56.4726 56.6013 56.4602 56.6013C56.4477 56.6013 56.4352 56.6013 56.4227 56.6013C56.4103 56.6013 56.3978 56.6013 56.3853 56.6013C56.3728 56.6013 56.3603 56.6013 56.3478 56.6013C56.3353 56.6013 56.3228 56.6013 56.3103 56.6013C56.2978 56.6013 56.2853 56.6013 56.2728 56.6013C56.2603 56.6013 56.2478 56.6013 56.2353 56.6013C56.2227 56.6013 56.2102 56.6013 56.1977 56.6013C56.1852 56.6013 56.1726 56.6013 56.1601 56.6013C56.1475 56.6013 56.135 56.6013 56.1224 56.6013C56.1099 56.6013 56.0973 56.6013 56.0848 56.6013C56.0722 56.6013 56.0597 56.6013 56.0471 56.6013C56.0345 56.6013 56.022 56.6013 56.0094 56.6013C55.9968 56.6013 55.9842 56.6013 55.9717 56.6013C55.9591 56.6013 55.9465 56.6013 55.9339 56.6013C55.9213 56.6013 55.9087 56.6013 55.8961 56.6013C55.8835 56.6013 55.8709 56.6013 55.8583 56.6013C55.8457 56.6013 55.8331 56.6013 55.8205 56.6013C55.8079 56.6013 55.7953 56.6013 55.7827 56.6013C55.77 56.6013 55.7574 56.6013 55.7448 56.6013C55.7322 56.6013 55.7195 56.6013 55.7069 56.6013C55.6943 56.6013 55.6816 56.6013 55.669 56.6013C55.6564 56.6013 55.6437 56.6013 55.6311 56.6013C55.6184 56.6013 55.6058 56.6013 55.5931 56.6013C55.5805 56.6013 55.5678 56.6013 55.5552 56.6013C55.5425 56.6013 55.5299 56.6013 55.5172 56.6013C55.5045 56.6013 55.4919 56.6013 55.4792 56.6013C55.4665 56.6013 55.4539 56.6013 55.4412 56.6013C55.4285 56.6013 55.4158 56.6013 55.4032 56.6013C55.3905 56.6013 55.3778 56.6013 55.3651 56.6013C55.3524 56.6013 55.3398 56.6013 55.3271 56.6013C55.3144 56.6013 55.3017 56.6013 55.289 56.6013C55.2763 56.6013 55.2636 56.6013 55.2509 56.6013C55.2382 56.6013 55.2255 56.6013 55.2128 56.6013C55.2001 56.6013 55.1874 56.6013 55.1747 56.6013C55.162 56.6013 55.1493 56.6013 55.1366 56.6013C55.1239 56.6013 55.1112 56.6013 55.0985 56.6013C55.0857 56.6013 55.073 56.6013 55.0603 56.6013C55.0476 56.6013 55.0349 56.6013 55.0222 56.6013C55.0094 56.6013 54.9967 56.6013 54.984 56.6013C54.9713 56.6013 54.9585 56.6013 54.9458 56.6013C54.9331 56.6013 54.9204 56.6013 54.9076 56.6013C54.8949 56.6013 54.8822 56.6013 54.8694 56.6013C54.8567 56.6013 54.844 56.6013 54.8312 56.6013C54.8185 56.6013 54.8058 56.6013 54.793 56.6013C54.7803 56.6013 54.7676 56.6013 54.7548 56.6013C54.7421 56.6013 54.7294 56.6013 54.7166 56.6013C54.7039 56.6013 54.6911 56.6013 54.6784 56.6013C54.6656 56.6013 54.6529 56.6013 54.6402 56.6013C54.6274 56.6013 54.6147 56.6013 54.6019 56.6013C54.5892 56.6013 54.5764 56.6013 54.5637 56.6013C54.5509 56.6013 54.5382 56.6013 54.5254 56.6013C54.5127 56.6013 54.5 56.6013 54.4872 56.6013C54.4745 56.6013 54.4617 56.6013 54.449 56.6013C54.4362 56.6013 54.4235 56.6013 54.4107 56.6013C54.398 56.6013 54.3852 56.6013 54.3725 56.6013C54.3597 56.6013 54.347 56.6013 54.3342 56.6013C54.3215 56.6013 54.3087 56.6013 54.296 56.6013C54.2832 56.6013 54.2705 56.6013 54.2577 56.6013C54.245 56.6013 54.2322 56.6013 54.2195 56.6013C54.2067 56.6013 54.194 56.6013 54.1812 56.6013C54.1685 56.6013 54.1557 56.6013 54.143 56.6013C54.1302 56.6013 54.1175 56.6013 54.1047 56.6013C54.092 56.6013 54.0792 56.6013 54.0665 56.6013C54.0537 56.6013 54.041 56.6013 54.0282 56.6013C54.0155 56.6013 54.0028 56.6013 53.99 56.6013C53.9773 56.6013 53.9645 56.6013 53.9518 56.6013C53.939 56.6013 53.9263 56.6013 53.9136 56.6013C53.9008 56.6013 53.8881 56.6013 53.8754 56.6013C53.8626 56.6013 53.8499 56.6013 53.8371 56.6013C53.8244 56.6013 53.8117 56.6013 53.7989 56.6013C53.7862 56.6013 53.7735 56.6013 53.7607 56.6013C53.748 56.6013 53.7353 56.6013 53.7226 56.6013C53.7098 56.6013 53.6971 56.6013 53.6844 56.6013C53.6716 56.6013 53.6589 56.6013 53.6462 56.6013C53.6335 56.6013 53.6208 56.6013 53.608 56.6013C53.5953 56.6013 53.5826 56.6013 53.5699 56.6013C53.5572 56.6013 53.5445 56.6013 53.5317 56.6013C53.519 56.6013 53.5063 56.6013 53.4936 56.6013C53.4809 56.6013 53.4682 56.6013 53.4555 56.6013C53.4428 56.6013 53.4301 56.6013 53.4174 56.6013C53.4047 56.6013 53.392 56.6013 53.3793 56.6013C53.3666 56.6013 53.3539 56.6013 53.3412 56.6013C53.3285 56.6013 53.3158 56.6013 53.3032 56.6013C53.2905 56.6013 53.2778 56.6013 53.2651 56.6013C53.2524 56.6013 53.2397 56.6013 53.2271 56.6013C53.2144 56.6013 53.2017 56.6013 53.1891 56.6013C53.1764 56.6013 53.1637 56.6013 53.1511 56.6013C53.1384 56.6013 53.1257 56.6013 53.1131 56.6013C53.1004 56.6013 53.0877 56.6013 53.0751 56.6013C53.0624 56.6013 53.0498 56.6013 53.0371 56.6013C53.0245 56.6013 53.0118 56.6013 52.9992 56.6013C52.9866 56.6013 52.9739 56.6013 52.9613 56.6013C52.9487 56.6013 52.936 56.6013 52.9234 56.6013C52.9108 56.6013 52.8981 56.6013 52.8855 56.6013C52.8729 56.6013 52.8603 56.6013 52.8477 56.6013C52.835 56.6013 52.8224 56.6013 52.8098 56.6013C52.7972 56.6013 52.7846 56.6013 52.772 56.6013C52.7594 56.6013 52.7468 56.6013 52.7342 56.6013C52.7216 56.6013 52.709 56.6013 52.6964 56.6013C52.6839 56.6013 52.6713 56.6013 52.6587 56.6013C52.6461 56.6013 52.6335 56.6013 52.621 56.6013C52.6084 56.6013 52.5958 56.6013 52.5833 56.6013C52.5707 56.6013 52.5581 56.6013 52.5456 56.6013C52.533 56.6013 52.5205 56.6013 52.5079 56.6013C52.4954 56.6013 52.4829 56.6013 52.4703 56.6013C52.4578 56.6013 52.4452 56.6013 52.4327 56.6013C52.4202 56.6013 52.4077 56.6013 52.3951 56.6013C52.3826 56.6013 52.3701 56.6013 52.3576 56.6013C52.3451 56.6013 52.3326 56.6013 52.3201 56.6013C52.3076 56.6013 52.2951 56.6013 52.2826 56.6013C52.2701 56.6013 52.2576 56.6013 52.2451 56.6013C52.2327 56.6013 52.2202 56.6013 52.2077 56.6013C52.1952 56.6013 52.1828 56.6013 52.1703 56.6013C52.1579 56.6013 52.1454 56.6013 52.1329 56.6013C52.1205 56.6013 52.108 56.6013 52.0956 56.6013C52.0832 56.6013 52.0707 56.6013 52.0583 56.6013C52.0459 56.6013 52.0334 56.6013 52.021 56.6013C52.0086 56.6013 51.9962 56.6013 51.9838 56.6013C51.9714 56.6013 51.959 56.6013 51.9466 56.6013C51.9342 56.6013 51.9218 56.6013 51.9094 56.6013C51.897 56.6013 51.8846 56.6013 51.8723 56.6013C51.8599 56.6013 51.8475 56.6013 51.8352 56.6013C51.8228 56.6013 51.8104 56.6013 51.7981 56.6013C51.7857 56.6013 51.7734 56.6013 51.7611 56.6013C51.7487 56.6013 51.7364 56.6013 51.7241 56.6013C51.7117 56.6013 51.6994 56.6013 51.6871 56.6013C51.6748 56.6013 51.6625 56.6013 51.6502 56.6013C51.6379 56.6013 51.6256 56.6013 51.6133 56.6013C51.601 56.6013 51.5887 56.6013 51.5765 56.6013C51.5642 56.6013 51.5519 56.6013 51.5396 56.6013C51.5274 56.6013 51.5151 56.6013 51.5029 56.6013C51.4906 56.6013 51.4784 56.6013 51.4662 56.6013C51.4539 56.6013 51.4417 56.6013 51.4295 56.6013C51.4172 56.6013 51.405 56.6013 51.3928 56.6013C51.3806 56.6013 51.3684 56.6013 51.3562 56.6013C51.344 56.6013 51.3318 56.6013 51.3197 56.6013C51.3075 56.6013 51.2953 56.6013 51.2831 56.6013C51.271 56.6013 51.2588 56.6013 51.2467 56.6013C51.2345 56.6013 51.2224 56.6013 51.2102 56.6013C51.1981 56.6013 51.186 56.6013 51.1739 56.6013C51.1617 56.6013 51.1496 56.6013 51.1375 56.6013C51.1254 56.6013 51.1133 56.6013 51.1012 56.6013C51.0891 56.6013 51.077 56.6013 51.065 56.6013C51.0529 56.6013 51.0408 56.6013 51.0288 56.6013C51.0167 56.6013 51.0047 56.6013 50.9926 56.6013C50.9806 56.6013 50.9685 56.6013 50.9565 56.6013C50.9445 56.6013 50.9325 56.6013 50.9205 56.6013C50.9084 56.6013 50.8964 56.6013 50.8844 56.6013C50.8724 56.6013 50.8605 56.6013 50.8485 56.6013C50.8365 56.6013 50.8245 56.6013 50.8126 56.6013C50.8006 56.6013 50.7887 56.6013 50.7767 56.6013C50.7648 56.6013 50.7528 56.6013 50.7409 56.6013C50.729 56.6013 50.7171 56.6013 50.7052 56.6013C50.6932 56.6013 50.6813 56.6013 50.6694 56.6013C50.6576 56.6013 50.6457 56.6013 50.6338 56.6013C50.6219 56.6013 50.6101 56.6013 50.5982 56.6013C50.5863 56.6013 50.5745 56.6013 50.5627 56.6013C50.5508 56.6013 50.539 56.6013 50.5272 56.6013C50.5153 56.6013 50.5035 56.6013 50.4917 56.6013C50.4799 56.6013 50.4681 56.6013 50.4563 56.6013C50.4446 56.6013 50.4328 56.6013 50.421 56.6013C50.4093 56.6013 50.3975 56.6013 50.3858 56.6013C50.374 56.6013 50.3623 56.6013 50.3505 56.6013C50.3388 56.6013 50.3271 56.6013 50.3154 56.6013C50.3037 56.6013 50.292 56.6013 50.2803 56.6013C50.2686 56.6013 50.2569 56.6013 50.2453 56.6013C50.2336 56.6013 50.2219 56.6013 50.2103 56.6013C50.1986 56.6013 50.187 56.6013 50.1754 56.6013C50.1637 56.6013 50.1521 56.6013 50.1405 56.6013C50.1289 56.6013 50.1173 56.6013 50.1057 56.6013C50.0941 56.6013 50.0825 56.6013 50.071 56.6013C50.0594 56.6013 50.0478 56.6013 50.0363 56.6013C50.0248 56.6013 50.0132 56.6013 50.0017 56.6013C49.9902 56.6013 49.9786 56.6013 49.9671 56.6013C49.9556 56.6013 49.9441 56.6013 49.9327 56.6013C49.9212 56.6013 49.9097 56.6013 49.8982 56.6013C49.8868 56.6013 49.8753 56.6013 49.8639 56.6013C49.8524 56.6013 49.841 56.6013 49.8296 56.6013C49.8182 56.6013 49.8068 56.6013 49.7954 56.6013C49.784 56.6013 49.7726 56.6013 49.7612 56.6013C49.7498 56.6013 49.7385 56.6013 49.7271 56.6013C49.7158 56.6013 49.7044 56.6013 49.6931 56.6013C49.6818 56.6013 49.6704 56.6013 49.6591 56.6013C49.6478 56.6013 49.6365 56.6013 49.6252 56.6013C49.6139 56.6013 49.6027 56.6013 49.5914 56.6013C49.5802 56.6013 49.5689 56.6013 49.5577 56.6013C49.5464 56.6013 49.5352 56.6013 49.524 56.6013C49.5128 56.6013 49.5016 56.6013 49.4904 56.6013C49.4792 56.6013 49.468 56.6013 49.4568 56.6013C49.4457 56.6013 49.4345 56.6013 49.4234 56.6013C49.4122 56.6013 49.4011 56.6013 49.39 56.6013C49.3788 56.6013 49.3677 56.6013 49.3566 56.6013C49.3455 56.6013 49.3345 56.6013 49.3234 56.6013C49.3123 56.6013 49.3013 56.6013 49.2902 56.6013C49.2792 56.6013 49.2681 56.6013 49.2571 56.6013C49.2461 56.6013 49.2351 56.6013 49.2241 56.6013C49.2131 56.6013 49.2021 56.6013 49.1911 56.6013C49.1802 56.6013 49.1692 56.6013 49.1583 56.6013C49.1473 56.6013 49.1364 56.6013 49.1255 56.6013C49.1145 56.6013 49.1036 56.6013 49.0927 56.6013C49.0818 56.6013 49.071 56.6013 49.0601 56.6013C49.0492 56.6013 49.0384 56.6013 49.0275 56.6013C49.0167 56.6013 49.0058 56.6013 48.995 56.6013C48.9842 56.6013 48.9734 56.6013 48.9626 56.6013C48.9518 56.6013 48.941 56.6013 48.9303 56.6013C48.9195 56.6013 48.9088 56.6013 48.898 56.6013C48.8873 56.6013 48.8766 56.6013 48.8659 56.6013C48.8552 56.6013 48.8445 56.6013 48.8338 56.6013C48.8231 56.6013 48.8124 56.6013 48.8018 56.6013C48.7911 56.6013 48.7805 56.6013 48.7698 56.6013C48.7592 56.6013 48.7486 56.6013 48.738 56.6013C48.7274 56.6013 48.7168 56.6013 48.7062 56.6013C48.6957 56.6013 48.6851 56.6013 48.6746 56.6013C48.664 56.6013 48.6535 56.6013 48.643 56.6013C48.6325 56.6013 48.622 56.6013 48.6115 56.6013C48.601 56.6013 48.5905 56.6013 48.5801 56.6013C48.5696 56.6013 48.5591 56.6013 48.5487 56.6013C48.5383 56.6013 48.5279 56.6013 48.5175 56.6013C48.5071 56.6013 48.4967 56.6013 48.4863 56.6013C48.4759 56.6013 48.4656 56.6013 48.4552 56.6013C48.4449 56.6013 48.4346 56.6013 48.4243 56.6013C48.4139 56.6013 48.4036 56.6013 48.3934 56.6013C48.3831 56.6013 48.3728 56.6013 48.3626 56.6013C48.3523 56.6013 48.3421 56.6013 48.3318 56.6013C48.3216 56.6013 48.3114 56.6013 48.3012 56.6013C48.291 56.6013 48.2808 56.6013 48.2707 56.6013C48.2605 56.6013 48.2504 56.6013 48.2402 56.6013C48.2301 56.6013 48.22 56.6013 48.2099 56.6013C48.1998 56.6013 48.1897 56.6013 48.1796 56.6013C48.1696 56.6013 48.1595 56.6013 48.1495 56.6013C48.1394 56.6013 48.1294 56.6013 48.1194 56.6013C48.1094 56.6013 48.0994 56.6013 48.0894 56.6013C48.0794 56.6013 48.0695 56.6013 48.0595 56.6013C48.0496 56.6013 48.0397 56.6013 48.0297 56.6013C48.0198 56.6013 48.0099 56.6013 48.0001 56.6013C47.9902 56.6013 47.9803 56.6013 47.9705 56.6013C47.9606 56.6013 47.9508 56.6013 47.941 56.6013C47.9311 56.6013 47.9213 56.6013 47.9116 56.6013C47.9018 56.6013 47.892 56.6013 47.8823 56.6013C47.8725 56.6013 47.8628 56.6013 47.8531 56.6013C47.8433 56.6013 47.8336 56.6013 47.8239 56.6013C47.8143 56.6013 47.8046 56.6013 47.7949 56.6013C47.7853 56.6013 47.7757 56.6013 47.766 56.6013C47.7564 56.6013 47.7468 56.6013 47.7372 56.6013C47.7276 56.6013 47.7181 56.6013 47.7085 56.6013C47.699 56.6013 47.6894 56.6013 47.6799 56.6013C47.6704 56.6013 47.6609 56.6013 47.6514 56.6013C47.6419 56.6013 47.6325 56.6013 47.623 56.6013C47.6136 56.6013 47.6042 56.6013 47.5947 56.6013C47.5853 56.6013 47.5759 56.6013 47.5665 56.6013C47.5572 56.6013 47.5478 56.6013 47.5385 56.6013C47.5291 56.6013 47.5198 56.6013 47.5105 56.6013C47.5012 56.6013 47.4919 56.6013 47.4826 56.6013C47.4733 56.6013 47.4641 56.6013 47.4548 56.6013C47.4456 56.6013 47.4364 56.6013 47.4272 56.6013C47.418 56.6013 47.4088 56.6013 47.3996 56.6013C47.3905 56.6013 47.3813 56.6013 47.3722 56.6013C47.363 56.6013 47.3539 56.6013 47.3448 56.6013C47.3357 56.6013 47.3267 56.6013 47.3176 56.6013C47.3085 56.6013 47.2995 56.6013 47.2905 56.6013C47.2815 56.6013 47.2725 56.6013 47.2635 56.6013C47.2545 56.6013 47.2455 56.6013 47.2366 56.6013C47.2276 56.6013 47.2187 56.6013 47.2098 56.6013C47.2009 56.6013 47.192 56.6013 47.1831 56.6013C47.1742 56.6013 47.1654 56.6013 47.1565 56.6013C47.1477 56.6013 47.1389 56.6013 47.1301 56.6013C47.1213 56.6013 47.1125 56.6013 47.1037 56.6013C47.095 56.6013 47.0862 56.6013 47.0775 56.6013C47.0688 56.6013 47.0601 56.6013 47.0514 56.6013C47.0427 56.6013 47.034 56.6013 47.0254 56.6013C47.0168 56.6013 47.0081 56.6013 46.9995 56.6013C46.9909 56.6013 46.9823 56.6013 46.9737 56.6013C46.9652 56.6013 46.9566 56.6013 46.9481 56.6013C46.9396 56.6013 46.9311 56.6013 46.9226 56.6013C46.9141 56.6013 46.9056 56.6013 46.8971 56.6013C46.8887 56.6013 46.8803 56.6013 46.8718 56.6013C46.8634 56.6013 46.855 56.6013 46.8467 56.6013C46.8383 56.6013 46.8299 56.6013 46.8216 56.6013C46.8133 56.6013 46.805 56.6013 46.7967 56.6013C46.7884 56.6013 46.7801 56.6013 46.7718 56.6013C46.7636 56.6013 46.7553 56.6013 46.7471 56.6013C46.7389 56.6013 46.7307 56.6013 46.7226 56.6013C46.7144 56.6013 46.7062 56.6013 46.6981 56.6013C46.69 56.6013 46.6818 56.6013 46.6738 56.6013C46.6657 56.6013 46.6576 56.6013 46.6495 56.6013C46.6415 56.6013 46.6335 56.6013 46.6255 56.6013C46.6174 56.6013 46.6095 56.6013 46.6015 56.6013C46.5935 56.6013 46.5856 56.6013 46.5776 56.6013C46.5697 56.6013 46.5618 56.6013 46.5539 56.6013C46.546 56.6013 46.5382 56.6013 46.5303 56.6013C46.5225 56.6013 46.5147 56.6013 46.5069 56.6013C46.4991 56.6013 46.4913 56.6013 46.4835 56.6013C46.4758 56.6013 46.468 56.6013 46.4603 56.6013C46.4526 56.6013 46.4449 56.6013 46.4372 56.6013C46.4296 56.6013 46.4219 56.6013 46.4143 56.6013C46.4066 56.6013 46.399 56.6013 46.3914 56.6013C46.3839 56.6013 46.3763 56.6013 46.3687 56.6013C46.3612 56.6013 46.3537 56.6013 46.3462 56.6013C46.3387 56.6013 46.3312 56.6013 46.3237 56.6013C46.3163 56.6013 46.3088 56.6013 46.3014 56.6013C46.294 56.6013 46.2866 56.6013 46.2793 56.6013C46.2719 56.6013 46.2645 56.6013 46.2572 56.6013C46.2499 56.6013 46.2426 56.6013 46.2353 56.6013C46.228 56.6013 46.2208 56.6013 46.2135 56.6013C46.2063 56.6013 46.1991 56.6013 46.1919 56.6013C46.1847 56.6013 46.1775 56.6013 46.1704 56.6013C46.1632 56.6013 46.1561 56.6013 46.149 56.6013C46.1419 56.6013 46.1348 56.6013 46.1277 56.6013C46.1207 56.6013 46.1136 56.6013 46.1066 56.6013C46.0996 56.6013 46.0926 56.6013 46.0857 56.6013C46.0787 56.6013 46.0718 56.6013 46.0648 56.6013C46.0579 56.6013 46.051 56.6013 46.0441 56.6013C46.0373 56.6013 46.0304 56.6013 46.0236 56.6013C46.0167 56.6013 46.0099 56.6013 46.0032 56.6013C45.9964 56.6013 45.9896 56.6013 45.9829 56.6013C45.9761 56.6013 45.9694 56.6013 45.9627 56.6013C45.956 56.6013 45.9494 56.6013 45.9427 56.6013C45.9361 56.6013 45.9295 56.6013 45.9229 56.6013C45.9163 56.6013 45.9097 56.6013 45.9032 56.6013C45.8966 56.6013 45.8901 56.6013 45.8836 56.6013C45.8771 56.6013 45.8706 56.6013 45.8641 56.6013C45.8577 56.6013 45.8513 56.6013 45.8448 56.6013C45.8384 56.6013 45.8321 56.6013 45.8257 56.6013C45.8193 56.6013 45.813 56.6013 45.8067 56.6013C45.8004 56.6013 45.7941 56.6013 45.7878 56.6013C45.7816 56.6013 45.7753 56.6013 45.7691 56.6013C45.7629 56.6013 45.7567 56.6013 45.7505 56.6013C45.7444 56.6013 45.7382 56.6013 45.7321 56.6013C45.726 56.6013 45.7199 56.6013 45.7138 56.6013C45.7078 56.6013 45.7017 56.6013 45.6957 56.6013C45.6897 56.6013 45.6837 56.6013 45.6777 56.6013C45.6717 56.6013 45.6658 56.6013 45.6599 56.6013C45.654 56.6013 45.6481 56.6013 45.6422 56.6013C45.6363 56.6013 45.6305 56.6013 45.6247 56.6013C45.6188 56.6013 45.613 56.6013 45.6073 56.6013C45.6015 56.6013 45.5957 56.6013 45.59 56.6013C45.5843 56.6013 45.5786 56.6013 45.5729 56.6013C45.5673 56.6013 45.5616 56.6013 45.556 56.6013C45.5504 56.6013 45.5448 56.6013 45.5392 56.6013C45.5336 56.6013 45.5281 56.6013 45.5226 56.6013C45.5171 56.6013 45.5116 56.6013 45.5061 56.6013C45.5006 56.6013 45.4952 56.6013 45.4898 56.6013C45.4844 56.6013 45.479 56.6013 45.4736 56.6013C45.4682 56.6013 45.4629 56.6013 45.4576 56.6013C45.4523 56.6013 45.447 56.6013 45.4417 56.6013C45.4365 56.6013 45.4312 56.6013 45.426 56.6013C45.4208 56.6013 45.4156 56.6013 45.4105 56.6013C45.4053 56.6013 45.4002 56.6013 45.3951 56.6013C45.39 56.6013 45.3849 56.6013 45.3798 56.6013C45.3748 56.6013 45.3698 56.6013 45.3648 56.6013C45.3598 56.6013 45.3548 56.6013 45.3498 56.6013C45.3449 56.6013 45.34 56.6013 45.3351 56.6013C45.3302 56.6013 45.3253 56.6013 45.3205 56.6013C45.3156 56.6013 45.3108 56.6013 45.306 56.6013C45.3013 56.6013 45.2965 56.6013 45.2918 56.6013C45.287 56.6013 45.2823 56.6013 45.2776 56.6013C45.273 56.6013 45.2683 56.6013 45.2637 56.6013C45.2591 56.6013 45.2545 56.6013 45.2499 56.6013C45.2453 56.6013 45.2408 56.6013 45.2362 56.6013C45.2317 56.6013 45.2272 56.6013 45.2228 56.6013C45.2183 56.6013 45.2139 56.6013 45.2095 56.6013C45.2051 56.6013 45.2007 56.6013 45.1963 56.6013C45.192 56.6013 45.1876 56.6013 45.1833 56.6013C45.1791 56.6013 45.1748 56.6013 45.1705 56.6013C45.1663 56.6013 45.1621 56.6013 45.1579 56.6013C45.1537 56.6013 45.1495 56.6013 45.1454 56.6013C45.1413 56.6013 45.1372 56.6013 45.1331 56.6013C45.129 56.6013 45.125 56.6013 45.121 56.6013C45.1169 56.6013 45.1129 56.6013 45.109 56.6013C45.105 56.6013 45.1011 56.6013 45.0972 56.6013C45.0933 56.6013 45.0894 56.6013 45.0855 56.6013C45.0817 56.6013 45.0778 56.6013 45.0741 56.6013C45.0703 56.6013 45.0665 56.6013 45.0628 56.6013C45.059 56.6013 45.0553 56.6013 45.0516 56.6013C45.0479 56.6013 45.0443 56.6013 45.0407 56.6013C45.037 56.6013 45.0334 56.6013 45.0299 56.6013C45.0263 56.6013 45.0228 56.6013 45.0193 56.6013C45.0158 56.6013 45.0123 56.6013 45.0088 56.6013C45.0054 56.6013 45.0019 56.6013 44.9986 56.6013C44.9952 56.6013 44.9918 56.6013 44.9885 56.6013C44.9851 56.6013 44.9818 56.6013 44.9785 56.6013C44.9753 56.6013 44.972 56.6013 44.9688 56.6013C44.9656 56.6013 44.9624 56.6013 44.9592 56.6013C44.9561 56.6013 44.9529 56.6013 44.9498 56.6013C44.9467 56.6013 44.9437 56.6013 44.9406 56.6013C44.9376 56.6013 44.9346 56.6013 44.9316 56.6013C44.9286 56.6013 44.9256 56.6013 44.9227 56.6013C44.9198 56.6013 44.9169 56.6013 44.914 56.6013C44.9112 56.6013 44.9083 56.6013 44.9055 56.6013C44.9027 56.6013 44.9 56.6013 44.8972 56.6013C44.8945 56.6013 44.8918 56.6013 44.8891 56.6013C44.8864 56.6013 44.8837 56.6013 44.8811 56.6013C44.8785 56.6013 44.8759 56.6013 44.8733 56.6013C44.8708 56.6013 44.8682 56.6013 44.8657 56.6013C44.8632 56.6013 44.8607 56.6013 44.8583 56.6013C44.8559 56.6013 44.8534 56.6013 44.8511 56.6013C44.8487 56.6013 44.8463 56.6013 44.844 56.6013C44.8417 56.6013 44.8394 56.6013 44.8371 56.6013C44.8349 56.6013 44.8327 56.6013 44.8305 56.6013C44.8283 56.6013 44.8261 56.6013 44.824 56.6013C44.8218 56.6013 44.8197 56.6013 44.8176 56.6013C44.8156 56.6013 44.8135 56.6013 44.8115 56.6013C44.8095 56.6013 44.8075 56.6013 44.8056 56.6013C44.8036 56.6013 44.8017 56.6013 44.7998 56.6013C44.7979 56.6013 44.7961 56.6013 44.7942 56.6013C44.7924 56.6013 44.7906 56.6013 44.7889 56.6013C44.7871 56.6013 44.7854 56.6013 44.7837 56.6013C44.782 56.6013 44.7803 56.6013 44.7787 56.6013C44.777 56.6013 44.7754 56.6013 44.7738 56.6013C44.7723 56.6013 44.7707 56.6013 44.7692 56.6013C44.7677 56.6013 44.7662 56.6013 44.7648 56.6013C44.7633 56.6013 44.7619 56.6013 44.7605 56.6013C44.7592 56.6013 44.7578 56.6013 44.7565 56.6013C44.7552 56.6013 44.7539 56.6013 44.7526 56.6013C44.7514 56.6013 44.7502 56.6013 44.749 56.6013C44.7478 56.6013 44.7466 56.6013 44.7455 56.6013C44.7444 56.6013 44.7433 56.6013 44.7422 56.6013C44.7412 56.6013 44.7401 56.6013 44.7391 56.6013C44.7381 56.6013 44.7372 56.6013 44.7363 56.6013C44.7353 56.6013 44.7344 56.6013 44.7336 56.6013C44.7327 56.6013 44.7319 56.6013 44.7311 56.6013C44.7303 56.6013 44.7295 56.6013 44.7288 56.6013C44.728 56.6013 44.7273 56.6013 44.7267 56.6013C44.726 56.6013 44.7254 56.6013 44.7248 56.6013C44.7242 56.6013 44.7236 56.6013 44.7231 56.6013C44.7225 56.6013 44.722 56.6013 44.7215 56.6013C44.7211 56.6013 44.7206 56.6013 44.7202 56.6013C44.7198 56.6013 44.7195 56.6013 44.7191 56.6013C44.7188 56.6013 44.7185 56.6013 44.7182 56.6013C44.7179 56.6013 44.7177 56.6013 44.7175 56.6013C44.7173 56.6013 44.7171 56.6013 44.717 56.6013C44.7169 56.6013 44.7168 56.6013 44.7167 56.6013C44.7166 56.6013 44.7166 56.6013 44.7166 57.6013C44.7166 58.6013 44.7166 58.6013 44.7167 58.6013C44.7168 58.6013 44.7169 58.6013 44.717 58.6013C44.7171 58.6013 44.7173 58.6013 44.7175 58.6013C44.7177 58.6013 44.7179 58.6013 44.7182 58.6013C44.7185 58.6013 44.7188 58.6013 44.7191 58.6013C44.7195 58.6013 44.7198 58.6013 44.7202 58.6013C44.7206 58.6013 44.7211 58.6013 44.7215 58.6013C44.722 58.6013 44.7225 58.6013 44.7231 58.6013C44.7236 58.6013 44.7242 58.6013 44.7248 58.6013C44.7254 58.6013 44.726 58.6013 44.7267 58.6013C44.7273 58.6013 44.728 58.6013 44.7288 58.6013C44.7295 58.6013 44.7303 58.6013 44.7311 58.6013C44.7319 58.6013 44.7327 58.6013 44.7336 58.6013C44.7344 58.6013 44.7353 58.6013 44.7363 58.6013C44.7372 58.6013 44.7381 58.6013 44.7391 58.6013C44.7401 58.6013 44.7412 58.6013 44.7422 58.6013C44.7433 58.6013 44.7444 58.6013 44.7455 58.6013C44.7466 58.6013 44.7478 58.6013 44.749 58.6013C44.7502 58.6013 44.7514 58.6013 44.7526 58.6013C44.7539 58.6013 44.7552 58.6013 44.7565 58.6013C44.7578 58.6013 44.7592 58.6013 44.7605 58.6013C44.7619 58.6013 44.7633 58.6013 44.7648 58.6013C44.7662 58.6013 44.7677 58.6013 44.7692 58.6013C44.7707 58.6013 44.7723 58.6013 44.7738 58.6013C44.7754 58.6013 44.777 58.6013 44.7787 58.6013C44.7803 58.6013 44.782 58.6013 44.7837 58.6013C44.7854 58.6013 44.7871 58.6013 44.7889 58.6013C44.7906 58.6013 44.7924 58.6013 44.7942 58.6013C44.7961 58.6013 44.7979 58.6013 44.7998 58.6013C44.8017 58.6013 44.8036 58.6013 44.8056 58.6013C44.8075 58.6013 44.8095 58.6013 44.8115 58.6013C44.8135 58.6013 44.8156 58.6013 44.8176 58.6013C44.8197 58.6013 44.8218 58.6013 44.824 58.6013C44.8261 58.6013 44.8283 58.6013 44.8305 58.6013C44.8327 58.6013 44.8349 58.6013 44.8371 58.6013C44.8394 58.6013 44.8417 58.6013 44.844 58.6013C44.8463 58.6013 44.8487 58.6013 44.8511 58.6013C44.8534 58.6013 44.8559 58.6013 44.8583 58.6013C44.8607 58.6013 44.8632 58.6013 44.8657 58.6013C44.8682 58.6013 44.8708 58.6013 44.8733 58.6013C44.8759 58.6013 44.8785 58.6013 44.8811 58.6013C44.8837 58.6013 44.8864 58.6013 44.8891 58.6013C44.8918 58.6013 44.8945 58.6013 44.8972 58.6013C44.9 58.6013 44.9027 58.6013 44.9055 58.6013C44.9083 58.6013 44.9112 58.6013 44.914 58.6013C44.9169 58.6013 44.9198 58.6013 44.9227 58.6013C44.9256 58.6013 44.9286 58.6013 44.9316 58.6013C44.9346 58.6013 44.9376 58.6013 44.9406 58.6013C44.9437 58.6013 44.9467 58.6013 44.9498 58.6013C44.9529 58.6013 44.9561 58.6013 44.9592 58.6013C44.9624 58.6013 44.9656 58.6013 44.9688 58.6013C44.972 58.6013 44.9753 58.6013 44.9785 58.6013C44.9818 58.6013 44.9851 58.6013 44.9885 58.6013C44.9918 58.6013 44.9952 58.6013 44.9986 58.6013C45.0019 58.6013 45.0054 58.6013 45.0088 58.6013C45.0123 58.6013 45.0158 58.6013 45.0193 58.6013C45.0228 58.6013 45.0263 58.6013 45.0299 58.6013C45.0334 58.6013 45.037 58.6013 45.0407 58.6013C45.0443 58.6013 45.0479 58.6013 45.0516 58.6013C45.0553 58.6013 45.059 58.6013 45.0628 58.6013C45.0665 58.6013 45.0703 58.6013 45.0741 58.6013C45.0778 58.6013 45.0817 58.6013 45.0855 58.6013C45.0894 58.6013 45.0933 58.6013 45.0972 58.6013C45.1011 58.6013 45.105 58.6013 45.109 58.6013C45.1129 58.6013 45.1169 58.6013 45.121 58.6013C45.125 58.6013 45.129 58.6013 45.1331 58.6013C45.1372 58.6013 45.1413 58.6013 45.1454 58.6013C45.1495 58.6013 45.1537 58.6013 45.1579 58.6013C45.1621 58.6013 45.1663 58.6013 45.1705 58.6013C45.1748 58.6013 45.1791 58.6013 45.1833 58.6013C45.1876 58.6013 45.192 58.6013 45.1963 58.6013C45.2007 58.6013 45.2051 58.6013 45.2095 58.6013C45.2139 58.6013 45.2183 58.6013 45.2228 58.6013C45.2272 58.6013 45.2317 58.6013 45.2362 58.6013C45.2408 58.6013 45.2453 58.6013 45.2499 58.6013C45.2545 58.6013 45.2591 58.6013 45.2637 58.6013C45.2683 58.6013 45.273 58.6013 45.2776 58.6013C45.2823 58.6013 45.287 58.6013 45.2918 58.6013C45.2965 58.6013 45.3013 58.6013 45.306 58.6013C45.3108 58.6013 45.3156 58.6013 45.3205 58.6013C45.3253 58.6013 45.3302 58.6013 45.3351 58.6013C45.34 58.6013 45.3449 58.6013 45.3498 58.6013C45.3548 58.6013 45.3598 58.6013 45.3648 58.6013C45.3698 58.6013 45.3748 58.6013 45.3798 58.6013C45.3849 58.6013 45.39 58.6013 45.3951 58.6013C45.4002 58.6013 45.4053 58.6013 45.4105 58.6013C45.4156 58.6013 45.4208 58.6013 45.426 58.6013C45.4312 58.6013 45.4365 58.6013 45.4417 58.6013C45.447 58.6013 45.4523 58.6013 45.4576 58.6013C45.4629 58.6013 45.4682 58.6013 45.4736 58.6013C45.479 58.6013 45.4844 58.6013 45.4898 58.6013C45.4952 58.6013 45.5006 58.6013 45.5061 58.6013C45.5116 58.6013 45.5171 58.6013 45.5226 58.6013C45.5281 58.6013 45.5336 58.6013 45.5392 58.6013C45.5448 58.6013 45.5504 58.6013 45.556 58.6013C45.5616 58.6013 45.5673 58.6013 45.5729 58.6013C45.5786 58.6013 45.5843 58.6013 45.59 58.6013C45.5957 58.6013 45.6015 58.6013 45.6073 58.6013C45.613 58.6013 45.6188 58.6013 45.6247 58.6013C45.6305 58.6013 45.6363 58.6013 45.6422 58.6013C45.6481 58.6013 45.654 58.6013 45.6599 58.6013C45.6658 58.6013 45.6717 58.6013 45.6777 58.6013C45.6837 58.6013 45.6897 58.6013 45.6957 58.6013C45.7017 58.6013 45.7078 58.6013 45.7138 58.6013C45.7199 58.6013 45.726 58.6013 45.7321 58.6013C45.7382 58.6013 45.7444 58.6013 45.7505 58.6013C45.7567 58.6013 45.7629 58.6013 45.7691 58.6013C45.7753 58.6013 45.7816 58.6013 45.7878 58.6013C45.7941 58.6013 45.8004 58.6013 45.8067 58.6013C45.813 58.6013 45.8193 58.6013 45.8257 58.6013C45.8321 58.6013 45.8384 58.6013 45.8448 58.6013C45.8513 58.6013 45.8577 58.6013 45.8641 58.6013C45.8706 58.6013 45.8771 58.6013 45.8836 58.6013C45.8901 58.6013 45.8966 58.6013 45.9032 58.6013C45.9097 58.6013 45.9163 58.6013 45.9229 58.6013C45.9295 58.6013 45.9361 58.6013 45.9427 58.6013C45.9494 58.6013 45.956 58.6013 45.9627 58.6013C45.9694 58.6013 45.9761 58.6013 45.9829 58.6013C45.9896 58.6013 45.9964 58.6013 46.0032 58.6013C46.0099 58.6013 46.0167 58.6013 46.0236 58.6013C46.0304 58.6013 46.0373 58.6013 46.0441 58.6013C46.051 58.6013 46.0579 58.6013 46.0648 58.6013C46.0718 58.6013 46.0787 58.6013 46.0857 58.6013C46.0926 58.6013 46.0996 58.6013 46.1066 58.6013C46.1136 58.6013 46.1207 58.6013 46.1277 58.6013C46.1348 58.6013 46.1419 58.6013 46.149 58.6013C46.1561 58.6013 46.1632 58.6013 46.1704 58.6013C46.1775 58.6013 46.1847 58.6013 46.1919 58.6013C46.1991 58.6013 46.2063 58.6013 46.2135 58.6013C46.2208 58.6013 46.228 58.6013 46.2353 58.6013C46.2426 58.6013 46.2499 58.6013 46.2572 58.6013C46.2645 58.6013 46.2719 58.6013 46.2793 58.6013C46.2866 58.6013 46.294 58.6013 46.3014 58.6013C46.3088 58.6013 46.3163 58.6013 46.3237 58.6013C46.3312 58.6013 46.3387 58.6013 46.3462 58.6013C46.3537 58.6013 46.3612 58.6013 46.3687 58.6013C46.3763 58.6013 46.3839 58.6013 46.3914 58.6013C46.399 58.6013 46.4066 58.6013 46.4143 58.6013C46.4219 58.6013 46.4296 58.6013 46.4372 58.6013C46.4449 58.6013 46.4526 58.6013 46.4603 58.6013C46.468 58.6013 46.4758 58.6013 46.4835 58.6013C46.4913 58.6013 46.4991 58.6013 46.5069 58.6013C46.5147 58.6013 46.5225 58.6013 46.5303 58.6013C46.5382 58.6013 46.546 58.6013 46.5539 58.6013C46.5618 58.6013 46.5697 58.6013 46.5776 58.6013C46.5856 58.6013 46.5935 58.6013 46.6015 58.6013C46.6095 58.6013 46.6174 58.6013 46.6255 58.6013C46.6335 58.6013 46.6415 58.6013 46.6495 58.6013C46.6576 58.6013 46.6657 58.6013 46.6738 58.6013C46.6818 58.6013 46.69 58.6013 46.6981 58.6013C46.7062 58.6013 46.7144 58.6013 46.7226 58.6013C46.7307 58.6013 46.7389 58.6013 46.7471 58.6013C46.7553 58.6013 46.7636 58.6013 46.7718 58.6013C46.7801 58.6013 46.7884 58.6013 46.7967 58.6013C46.805 58.6013 46.8133 58.6013 46.8216 58.6013C46.8299 58.6013 46.8383 58.6013 46.8467 58.6013C46.855 58.6013 46.8634 58.6013 46.8718 58.6013C46.8803 58.6013 46.8887 58.6013 46.8971 58.6013C46.9056 58.6013 46.9141 58.6013 46.9226 58.6013C46.9311 58.6013 46.9396 58.6013 46.9481 58.6013C46.9566 58.6013 46.9652 58.6013 46.9737 58.6013C46.9823 58.6013 46.9909 58.6013 46.9995 58.6013C47.0081 58.6013 47.0168 58.6013 47.0254 58.6013C47.034 58.6013 47.0427 58.6013 47.0514 58.6013C47.0601 58.6013 47.0688 58.6013 47.0775 58.6013C47.0862 58.6013 47.095 58.6013 47.1037 58.6013C47.1125 58.6013 47.1213 58.6013 47.1301 58.6013C47.1389 58.6013 47.1477 58.6013 47.1565 58.6013C47.1654 58.6013 47.1742 58.6013 47.1831 58.6013C47.192 58.6013 47.2009 58.6013 47.2098 58.6013C47.2187 58.6013 47.2276 58.6013 47.2366 58.6013C47.2455 58.6013 47.2545 58.6013 47.2635 58.6013C47.2725 58.6013 47.2815 58.6013 47.2905 58.6013C47.2995 58.6013 47.3085 58.6013 47.3176 58.6013C47.3267 58.6013 47.3357 58.6013 47.3448 58.6013C47.3539 58.6013 47.363 58.6013 47.3722 58.6013C47.3813 58.6013 47.3905 58.6013 47.3996 58.6013C47.4088 58.6013 47.418 58.6013 47.4272 58.6013C47.4364 58.6013 47.4456 58.6013 47.4548 58.6013C47.4641 58.6013 47.4733 58.6013 47.4826 58.6013C47.4919 58.6013 47.5012 58.6013 47.5105 58.6013C47.5198 58.6013 47.5291 58.6013 47.5385 58.6013C47.5478 58.6013 47.5572 58.6013 47.5665 58.6013C47.5759 58.6013 47.5853 58.6013 47.5947 58.6013C47.6042 58.6013 47.6136 58.6013 47.623 58.6013C47.6325 58.6013 47.6419 58.6013 47.6514 58.6013C47.6609 58.6013 47.6704 58.6013 47.6799 58.6013C47.6894 58.6013 47.699 58.6013 47.7085 58.6013C47.7181 58.6013 47.7276 58.6013 47.7372 58.6013C47.7468 58.6013 47.7564 58.6013 47.766 58.6013C47.7757 58.6013 47.7853 58.6013 47.7949 58.6013C47.8046 58.6013 47.8143 58.6013 47.8239 58.6013C47.8336 58.6013 47.8433 58.6013 47.8531 58.6013C47.8628 58.6013 47.8725 58.6013 47.8823 58.6013C47.892 58.6013 47.9018 58.6013 47.9116 58.6013C47.9213 58.6013 47.9311 58.6013 47.941 58.6013C47.9508 58.6013 47.9606 58.6013 47.9705 58.6013C47.9803 58.6013 47.9902 58.6013 48.0001 58.6013C48.0099 58.6013 48.0198 58.6013 48.0297 58.6013C48.0397 58.6013 48.0496 58.6013 48.0595 58.6013C48.0695 58.6013 48.0794 58.6013 48.0894 58.6013C48.0994 58.6013 48.1094 58.6013 48.1194 58.6013C48.1294 58.6013 48.1394 58.6013 48.1495 58.6013C48.1595 58.6013 48.1696 58.6013 48.1796 58.6013C48.1897 58.6013 48.1998 58.6013 48.2099 58.6013C48.22 58.6013 48.2301 58.6013 48.2402 58.6013C48.2504 58.6013 48.2605 58.6013 48.2707 58.6013C48.2808 58.6013 48.291 58.6013 48.3012 58.6013C48.3114 58.6013 48.3216 58.6013 48.3318 58.6013C48.3421 58.6013 48.3523 58.6013 48.3626 58.6013C48.3728 58.6013 48.3831 58.6013 48.3934 58.6013C48.4036 58.6013 48.4139 58.6013 48.4243 58.6013C48.4346 58.6013 48.4449 58.6013 48.4552 58.6013C48.4656 58.6013 48.4759 58.6013 48.4863 58.6013C48.4967 58.6013 48.5071 58.6013 48.5175 58.6013C48.5279 58.6013 48.5383 58.6013 48.5487 58.6013C48.5591 58.6013 48.5696 58.6013 48.5801 58.6013C48.5905 58.6013 48.601 58.6013 48.6115 58.6013C48.622 58.6013 48.6325 58.6013 48.643 58.6013C48.6535 58.6013 48.664 58.6013 48.6746 58.6013C48.6851 58.6013 48.6957 58.6013 48.7062 58.6013C48.7168 58.6013 48.7274 58.6013 48.738 58.6013C48.7486 58.6013 48.7592 58.6013 48.7698 58.6013C48.7805 58.6013 48.7911 58.6013 48.8018 58.6013C48.8124 58.6013 48.8231 58.6013 48.8338 58.6013C48.8445 58.6013 48.8552 58.6013 48.8659 58.6013C48.8766 58.6013 48.8873 58.6013 48.898 58.6013C48.9088 58.6013 48.9195 58.6013 48.9303 58.6013C48.941 58.6013 48.9518 58.6013 48.9626 58.6013C48.9734 58.6013 48.9842 58.6013 48.995 58.6013C49.0058 58.6013 49.0167 58.6013 49.0275 58.6013C49.0384 58.6013 49.0492 58.6013 49.0601 58.6013C49.071 58.6013 49.0818 58.6013 49.0927 58.6013C49.1036 58.6013 49.1145 58.6013 49.1255 58.6013C49.1364 58.6013 49.1473 58.6013 49.1583 58.6013C49.1692 58.6013 49.1802 58.6013 49.1911 58.6013C49.2021 58.6013 49.2131 58.6013 49.2241 58.6013C49.2351 58.6013 49.2461 58.6013 49.2571 58.6013C49.2681 58.6013 49.2792 58.6013 49.2902 58.6013C49.3013 58.6013 49.3123 58.6013 49.3234 58.6013C49.3345 58.6013 49.3455 58.6013 49.3566 58.6013C49.3677 58.6013 49.3788 58.6013 49.39 58.6013C49.4011 58.6013 49.4122 58.6013 49.4234 58.6013C49.4345 58.6013 49.4457 58.6013 49.4568 58.6013C49.468 58.6013 49.4792 58.6013 49.4904 58.6013C49.5016 58.6013 49.5128 58.6013 49.524 58.6013C49.5352 58.6013 49.5464 58.6013 49.5577 58.6013C49.5689 58.6013 49.5802 58.6013 49.5914 58.6013C49.6027 58.6013 49.6139 58.6013 49.6252 58.6013C49.6365 58.6013 49.6478 58.6013 49.6591 58.6013C49.6704 58.6013 49.6818 58.6013 49.6931 58.6013C49.7044 58.6013 49.7158 58.6013 49.7271 58.6013C49.7385 58.6013 49.7498 58.6013 49.7612 58.6013C49.7726 58.6013 49.784 58.6013 49.7954 58.6013C49.8068 58.6013 49.8182 58.6013 49.8296 58.6013C49.841 58.6013 49.8524 58.6013 49.8639 58.6013C49.8753 58.6013 49.8868 58.6013 49.8982 58.6013C49.9097 58.6013 49.9212 58.6013 49.9327 58.6013C49.9441 58.6013 49.9556 58.6013 49.9671 58.6013C49.9786 58.6013 49.9902 58.6013 50.0017 58.6013C50.0132 58.6013 50.0248 58.6013 50.0363 58.6013C50.0478 58.6013 50.0594 58.6013 50.071 58.6013C50.0825 58.6013 50.0941 58.6013 50.1057 58.6013C50.1173 58.6013 50.1289 58.6013 50.1405 58.6013C50.1521 58.6013 50.1637 58.6013 50.1754 58.6013C50.187 58.6013 50.1986 58.6013 50.2103 58.6013C50.2219 58.6013 50.2336 58.6013 50.2453 58.6013C50.2569 58.6013 50.2686 58.6013 50.2803 58.6013C50.292 58.6013 50.3037 58.6013 50.3154 58.6013C50.3271 58.6013 50.3388 58.6013 50.3505 58.6013C50.3623 58.6013 50.374 58.6013 50.3858 58.6013C50.3975 58.6013 50.4093 58.6013 50.421 58.6013C50.4328 58.6013 50.4446 58.6013 50.4563 58.6013C50.4681 58.6013 50.4799 58.6013 50.4917 58.6013C50.5035 58.6013 50.5153 58.6013 50.5272 58.6013C50.539 58.6013 50.5508 58.6013 50.5627 58.6013C50.5745 58.6013 50.5863 58.6013 50.5982 58.6013C50.6101 58.6013 50.6219 58.6013 50.6338 58.6013C50.6457 58.6013 50.6576 58.6013 50.6694 58.6013C50.6813 58.6013 50.6932 58.6013 50.7052 58.6013C50.7171 58.6013 50.729 58.6013 50.7409 58.6013C50.7528 58.6013 50.7648 58.6013 50.7767 58.6013C50.7887 58.6013 50.8006 58.6013 50.8126 58.6013C50.8245 58.6013 50.8365 58.6013 50.8485 58.6013C50.8605 58.6013 50.8724 58.6013 50.8844 58.6013C50.8964 58.6013 50.9084 58.6013 50.9205 58.6013C50.9325 58.6013 50.9445 58.6013 50.9565 58.6013C50.9685 58.6013 50.9806 58.6013 50.9926 58.6013C51.0047 58.6013 51.0167 58.6013 51.0288 58.6013C51.0408 58.6013 51.0529 58.6013 51.065 58.6013C51.077 58.6013 51.0891 58.6013 51.1012 58.6013C51.1133 58.6013 51.1254 58.6013 51.1375 58.6013C51.1496 58.6013 51.1617 58.6013 51.1739 58.6013C51.186 58.6013 51.1981 58.6013 51.2102 58.6013C51.2224 58.6013 51.2345 58.6013 51.2467 58.6013C51.2588 58.6013 51.271 58.6013 51.2831 58.6013C51.2953 58.6013 51.3075 58.6013 51.3197 58.6013C51.3318 58.6013 51.344 58.6013 51.3562 58.6013C51.3684 58.6013 51.3806 58.6013 51.3928 58.6013C51.405 58.6013 51.4172 58.6013 51.4295 58.6013C51.4417 58.6013 51.4539 58.6013 51.4662 58.6013C51.4784 58.6013 51.4906 58.6013 51.5029 58.6013C51.5151 58.6013 51.5274 58.6013 51.5396 58.6013C51.5519 58.6013 51.5642 58.6013 51.5765 58.6013C51.5887 58.6013 51.601 58.6013 51.6133 58.6013C51.6256 58.6013 51.6379 58.6013 51.6502 58.6013C51.6625 58.6013 51.6748 58.6013 51.6871 58.6013C51.6994 58.6013 51.7117 58.6013 51.7241 58.6013C51.7364 58.6013 51.7487 58.6013 51.7611 58.6013C51.7734 58.6013 51.7857 58.6013 51.7981 58.6013C51.8104 58.6013 51.8228 58.6013 51.8352 58.6013C51.8475 58.6013 51.8599 58.6013 51.8723 58.6013C51.8846 58.6013 51.897 58.6013 51.9094 58.6013C51.9218 58.6013 51.9342 58.6013 51.9466 58.6013C51.959 58.6013 51.9714 58.6013 51.9838 58.6013C51.9962 58.6013 52.0086 58.6013 52.021 58.6013C52.0334 58.6013 52.0459 58.6013 52.0583 58.6013C52.0707 58.6013 52.0832 58.6013 52.0956 58.6013C52.108 58.6013 52.1205 58.6013 52.1329 58.6013C52.1454 58.6013 52.1579 58.6013 52.1703 58.6013C52.1828 58.6013 52.1952 58.6013 52.2077 58.6013C52.2202 58.6013 52.2327 58.6013 52.2451 58.6013C52.2576 58.6013 52.2701 58.6013 52.2826 58.6013C52.2951 58.6013 52.3076 58.6013 52.3201 58.6013C52.3326 58.6013 52.3451 58.6013 52.3576 58.6013C52.3701 58.6013 52.3826 58.6013 52.3951 58.6013C52.4077 58.6013 52.4202 58.6013 52.4327 58.6013C52.4452 58.6013 52.4578 58.6013 52.4703 58.6013C52.4829 58.6013 52.4954 58.6013 52.5079 58.6013C52.5205 58.6013 52.533 58.6013 52.5456 58.6013C52.5581 58.6013 52.5707 58.6013 52.5833 58.6013C52.5958 58.6013 52.6084 58.6013 52.621 58.6013C52.6335 58.6013 52.6461 58.6013 52.6587 58.6013C52.6713 58.6013 52.6839 58.6013 52.6964 58.6013C52.709 58.6013 52.7216 58.6013 52.7342 58.6013C52.7468 58.6013 52.7594 58.6013 52.772 58.6013C52.7846 58.6013 52.7972 58.6013 52.8098 58.6013C52.8224 58.6013 52.835 58.6013 52.8477 58.6013C52.8603 58.6013 52.8729 58.6013 52.8855 58.6013C52.8981 58.6013 52.9108 58.6013 52.9234 58.6013C52.936 58.6013 52.9487 58.6013 52.9613 58.6013C52.9739 58.6013 52.9866 58.6013 52.9992 58.6013C53.0118 58.6013 53.0245 58.6013 53.0371 58.6013C53.0498 58.6013 53.0624 58.6013 53.0751 58.6013C53.0877 58.6013 53.1004 58.6013 53.1131 58.6013C53.1257 58.6013 53.1384 58.6013 53.1511 58.6013C53.1637 58.6013 53.1764 58.6013 53.1891 58.6013C53.2017 58.6013 53.2144 58.6013 53.2271 58.6013C53.2397 58.6013 53.2524 58.6013 53.2651 58.6013C53.2778 58.6013 53.2905 58.6013 53.3032 58.6013C53.3158 58.6013 53.3285 58.6013 53.3412 58.6013C53.3539 58.6013 53.3666 58.6013 53.3793 58.6013C53.392 58.6013 53.4047 58.6013 53.4174 58.6013C53.4301 58.6013 53.4428 58.6013 53.4555 58.6013C53.4682 58.6013 53.4809 58.6013 53.4936 58.6013C53.5063 58.6013 53.519 58.6013 53.5317 58.6013C53.5445 58.6013 53.5572 58.6013 53.5699 58.6013C53.5826 58.6013 53.5953 58.6013 53.608 58.6013C53.6208 58.6013 53.6335 58.6013 53.6462 58.6013C53.6589 58.6013 53.6716 58.6013 53.6844 58.6013C53.6971 58.6013 53.7098 58.6013 53.7226 58.6013C53.7353 58.6013 53.748 58.6013 53.7607 58.6013C53.7735 58.6013 53.7862 58.6013 53.7989 58.6013C53.8117 58.6013 53.8244 58.6013 53.8371 58.6013C53.8499 58.6013 53.8626 58.6013 53.8754 58.6013C53.8881 58.6013 53.9008 58.6013 53.9136 58.6013C53.9263 58.6013 53.939 58.6013 53.9518 58.6013C53.9645 58.6013 53.9773 58.6013 53.99 58.6013C54.0028 58.6013 54.0155 58.6013 54.0282 58.6013C54.041 58.6013 54.0537 58.6013 54.0665 58.6013C54.0792 58.6013 54.092 58.6013 54.1047 58.6013C54.1175 58.6013 54.1302 58.6013 54.143 58.6013C54.1557 58.6013 54.1685 58.6013 54.1812 58.6013C54.194 58.6013 54.2067 58.6013 54.2195 58.6013C54.2322 58.6013 54.245 58.6013 54.2577 58.6013C54.2705 58.6013 54.2832 58.6013 54.296 58.6013C54.3087 58.6013 54.3215 58.6013 54.3342 58.6013C54.347 58.6013 54.3597 58.6013 54.3725 58.6013C54.3852 58.6013 54.398 58.6013 54.4107 58.6013C54.4235 58.6013 54.4362 58.6013 54.449 58.6013C54.4617 58.6013 54.4745 58.6013 54.4872 58.6013C54.5 58.6013 54.5127 58.6013 54.5254 58.6013C54.5382 58.6013 54.5509 58.6013 54.5637 58.6013C54.5764 58.6013 54.5892 58.6013 54.6019 58.6013C54.6147 58.6013 54.6274 58.6013 54.6402 58.6013C54.6529 58.6013 54.6656 58.6013 54.6784 58.6013C54.6911 58.6013 54.7039 58.6013 54.7166 58.6013C54.7294 58.6013 54.7421 58.6013 54.7548 58.6013C54.7676 58.6013 54.7803 58.6013 54.793 58.6013C54.8058 58.6013 54.8185 58.6013 54.8312 58.6013C54.844 58.6013 54.8567 58.6013 54.8694 58.6013C54.8822 58.6013 54.8949 58.6013 54.9076 58.6013C54.9204 58.6013 54.9331 58.6013 54.9458 58.6013C54.9585 58.6013 54.9713 58.6013 54.984 58.6013C54.9967 58.6013 55.0094 58.6013 55.0222 58.6013C55.0349 58.6013 55.0476 58.6013 55.0603 58.6013C55.073 58.6013 55.0857 58.6013 55.0985 58.6013C55.1112 58.6013 55.1239 58.6013 55.1366 58.6013C55.1493 58.6013 55.162 58.6013 55.1747 58.6013C55.1874 58.6013 55.2001 58.6013 55.2128 58.6013C55.2255 58.6013 55.2382 58.6013 55.2509 58.6013C55.2636 58.6013 55.2763 58.6013 55.289 58.6013C55.3017 58.6013 55.3144 58.6013 55.3271 58.6013C55.3398 58.6013 55.3524 58.6013 55.3651 58.6013C55.3778 58.6013 55.3905 58.6013 55.4032 58.6013C55.4158 58.6013 55.4285 58.6013 55.4412 58.6013C55.4539 58.6013 55.4665 58.6013 55.4792 58.6013C55.4919 58.6013 55.5045 58.6013 55.5172 58.6013C55.5299 58.6013 55.5425 58.6013 55.5552 58.6013C55.5678 58.6013 55.5805 58.6013 55.5931 58.6013C55.6058 58.6013 55.6184 58.6013 55.6311 58.6013C55.6437 58.6013 55.6564 58.6013 55.669 58.6013C55.6816 58.6013 55.6943 58.6013 55.7069 58.6013C55.7195 58.6013 55.7322 58.6013 55.7448 58.6013C55.7574 58.6013 55.77 58.6013 55.7827 58.6013C55.7953 58.6013 55.8079 58.6013 55.8205 58.6013C55.8331 58.6013 55.8457 58.6013 55.8583 58.6013C55.8709 58.6013 55.8835 58.6013 55.8961 58.6013C55.9087 58.6013 55.9213 58.6013 55.9339 58.6013C55.9465 58.6013 55.9591 58.6013 55.9717 58.6013C55.9842 58.6013 55.9968 58.6013 56.0094 58.6013C56.022 58.6013 56.0345 58.6013 56.0471 58.6013C56.0597 58.6013 56.0722 58.6013 56.0848 58.6013C56.0973 58.6013 56.1099 58.6013 56.1224 58.6013C56.135 58.6013 56.1475 58.6013 56.1601 58.6013C56.1726 58.6013 56.1852 58.6013 56.1977 58.6013C56.2102 58.6013 56.2227 58.6013 56.2353 58.6013C56.2478 58.6013 56.2603 58.6013 56.2728 58.6013C56.2853 58.6013 56.2978 58.6013 56.3103 58.6013C56.3228 58.6013 56.3353 58.6013 56.3478 58.6013C56.3603 58.6013 56.3728 58.6013 56.3853 58.6013C56.3978 58.6013 56.4103 58.6013 56.4227 58.6013C56.4352 58.6013 56.4477 58.6013 56.4602 58.6013C56.4726 58.6013 56.4851 58.6013 56.4975 58.6013C56.51 58.6013 56.5224 58.6013 56.5349 58.6013C56.5473 58.6013 56.5598 58.6013 56.5722 58.6013C56.5846 58.6013 56.5971 58.6013 56.6095 58.6013C56.6219 58.6013 56.6343 58.6013 56.6467 58.6013C56.6592 58.6013 56.6716 58.6013 56.684 58.6013C56.6964 58.6013 56.7088 58.6013 56.7211 58.6013C56.7335 58.6013 56.7459 58.6013 56.7583 58.6013C56.7707 58.6013 56.7831 58.6013 56.7954 58.6013C56.8078 58.6013 56.8201 58.6013 56.8325 58.6013C56.8449 58.6013 56.8572 58.6013 56.8695 58.6013C56.8819 58.6013 56.8942 58.6013 56.9066 58.6013C56.9189 58.6013 56.9312 58.6013 56.9435 58.6013C56.9558 58.6013 56.9682 58.6013 56.9805 58.6013C56.9928 58.6013 57.0051 58.6013 57.0174 58.6013C57.0297 58.6013 57.0419 58.6013 57.0542 58.6013C57.0665 58.6013 57.0788 58.6013 57.091 58.6013C57.1033 58.6013 57.1156 58.6013 57.1278 58.6013C57.1401 58.6013 57.1523 58.6013 57.1646 58.6013C57.1768 58.6013 57.189 58.6013 57.2013 58.6013C57.2135 58.6013 57.2257 58.6013 57.2379 58.6013C57.2501 58.6013 57.2623 58.6013 57.2745 58.6013C57.2867 58.6013 57.2989 58.6013 57.3111 58.6013C57.3233 58.6013 57.3355 58.6013 57.3477 58.6013C57.3598 58.6013 57.372 58.6013 57.3841 58.6013C57.3963 58.6013 57.4084 58.6013 57.4206 58.6013C57.4327 58.6013 57.4449 58.6013 57.457 58.6013C57.4691 58.6013 57.4812 58.6013 57.4933 58.6013C57.5055 58.6013 57.5176 58.6013 57.5297 58.6013C57.5417 58.6013 57.5538 58.6013 57.5659 58.6013C57.578 58.6013 57.5901 58.6013 57.6021 58.6013C57.6142 58.6013 57.6263 58.6013 57.6383 58.6013C57.6504 58.6013 57.6624 58.6013 57.6744 58.6013C57.6865 58.6013 57.6985 58.6013 57.7105 58.6013C57.7225 58.6013 57.7345 58.6013 57.7465 58.6013C57.7585 58.6013 57.7705 58.6013 57.7825 58.6013C57.7945 58.6013 57.8065 58.6013 57.8184 58.6013C57.8304 58.6013 57.8424 58.6013 57.8543 58.6013C57.8663 58.6013 57.8782 58.6013 57.8901 58.6013C57.9021 58.6013 57.914 58.6013 57.9259 58.6013C57.9378 58.6013 57.9497 58.6013 57.9616 58.6013C57.9735 58.6013 57.9854 58.6013 57.9973 58.6013C58.0092 58.6013 58.0211 58.6013 58.0329 58.6013C58.0448 58.6013 58.0566 58.6013 58.0685 58.6013C58.0803 58.6013 58.0922 58.6013 58.104 58.6013C58.1158 58.6013 58.1276 58.6013 58.1395 58.6013C58.1513 58.6013 58.1631 58.6013 58.1749 58.6013C58.1866 58.6013 58.1984 58.6013 58.2102 58.6013C58.222 58.6013 58.2337 58.6013 58.2455 58.6013C58.2572 58.6013 58.269 58.6013 58.2807 58.6013C58.2925 58.6013 58.3042 58.6013 58.3159 58.6013C58.3276 58.6013 58.3393 58.6013 58.351 58.6013C58.3627 58.6013 58.3744 58.6013 58.3861 58.6013C58.3977 58.6013 58.4094 58.6013 58.4211 58.6013C58.4327 58.6013 58.4444 58.6013 58.456 58.6013C58.4676 58.6013 58.4793 58.6013 58.4909 58.6013C58.5025 58.6013 58.5141 58.6013 58.5257 58.6013C58.5373 58.6013 58.5489 58.6013 58.5605 58.6013C58.572 58.6013 58.5836 58.6013 58.5952 58.6013C58.6067 58.6013 58.6183 58.6013 58.6298 58.6013C58.6413 58.6013 58.6528 58.6013 58.6644 58.6013C58.6759 58.6013 58.6874 58.6013 58.6989 58.6013C58.7104 58.6013 58.7218 58.6013 58.7333 58.6013C58.7448 58.6013 58.7562 58.6013 58.7677 58.6013C58.7791 58.6013 58.7906 58.6013 58.802 58.6013C58.8134 58.6013 58.8249 58.6013 58.8363 58.6013C58.8477 58.6013 58.8591 58.6013 58.8704 58.6013C58.8818 58.6013 58.8932 58.6013 58.9046 58.6013C58.9159 58.6013 58.9273 58.6013 58.9386 58.6013C58.9499 58.6013 58.9613 58.6013 58.9726 58.6013C58.9839 58.6013 58.9952 58.6013 59.0065 58.6013C59.0178 58.6013 59.0291 58.6013 59.0404 58.6013C59.0516 58.6013 59.0629 58.6013 59.0741 58.6013C59.0854 58.6013 59.0966 58.6013 59.1078 58.6013C59.1191 58.6013 59.1303 58.6013 59.1415 58.6013C59.1527 58.6013 59.1639 58.6013 59.175 58.6013C59.1862 58.6013 59.1974 58.6013 59.2085 58.6013C59.2197 58.6013 59.2308 58.6013 59.242 58.6013C59.2531 58.6013 59.2642 58.6013 59.2753 58.6013V56.6013ZM78 50.3464V51.5556H80V50.3464H78ZM79 50.5556H75.0081V52.5556H79V50.5556ZM74.0081 51.5556V54.2157H76.0081V51.5556H74.0081ZM74.2907 54.9123L75.6996 56.3633L77.1344 54.97L75.7255 53.5191L74.2907 54.9123ZM78 51.5556V55.6667H80V51.5556H78ZM78 55.6667V62.1961H80V55.6667H78ZM76.417 56.6667H79V54.6667H76.417V56.6667ZM41.3684 62.1961C41.3684 64.8772 39.2654 67 36.7328 67V69C40.4251 69 43.3684 65.9258 43.3684 62.1961H41.3684ZM36.7328 67C34.2001 67 32.0972 64.8772 32.0972 62.1961H30.0972C30.0972 65.9258 33.0405 69 36.7328 69V67ZM32.0972 62.1961C32.0972 59.515 34.2001 57.3922 36.7328 57.3922V55.3922C33.0405 55.3922 30.0972 58.4663 30.0972 62.1961H32.0972ZM36.7328 57.3922C39.2654 57.3922 41.3684 59.515 41.3684 62.1961H43.3684C43.3684 58.4663 40.4251 55.3922 36.7328 55.3922V57.3922ZM75.417 62.1961C75.417 64.8772 73.314 67 70.7814 67V69C74.4737 69 77.417 65.9258 77.417 62.1961H75.417ZM70.7814 67C68.2487 67 66.1457 64.8772 66.1457 62.1961H64.1457C64.1457 65.9258 67.0891 69 70.7814 69V67ZM66.1457 62.1961C66.1457 59.515 68.2487 57.3922 70.7814 57.3922V55.3922C67.0891 55.3922 64.1457 58.4663 64.1457 62.1961H66.1457ZM70.7814 57.3922C73.314 57.3922 75.417 59.515 75.417 62.1961H77.417C77.417 58.4663 74.4737 55.3922 70.7814 55.3922V57.3922Z" fill="white"/>
</svg>
