<svg width="100" height="100" viewBox="0 0 100 100" fill="none" xmlns="http://www.w3.org/2000/svg">
<circle cx="50" cy="50" r="50" fill="#005C47"/>
<path d="M65.1236 42.6819C64.9032 42.0799 64.5035 41.5599 63.9783 41.1921C63.4532 40.8243 62.8279 40.6264 62.1868 40.625H58.3549L56.7924 31.25H46.593L48.1555 40.625H44.2924L42.7299 31.25H32.5305L34.093 40.625H29.6875V49.2188H26.5625V68.75H68.3327L73.4375 52.5846V49.2188H67.5007L65.1236 42.6819ZM54.1451 34.375L55.1868 40.625H51.3236L50.282 34.375H54.1451ZM40.0826 34.375L41.1243 40.625H37.2611L36.2195 34.375H40.0826ZM32.8125 43.75H62.1868L64.1754 49.2188H32.8125V43.75ZM70.2365 52.3438L66.0423 65.625H29.6875V52.3438H70.2365Z" fill="white"/>
<path d="M32.8125 56.25H35.9375V59.375H32.8125V56.25ZM39.0625 56.25H42.1875V59.375H39.0625V56.25ZM45.3125 56.25H48.4375V59.375H45.3125V56.25ZM51.5625 56.25H54.6875V59.375H51.5625V56.25ZM57.8125 56.25H60.9375V59.375H57.8125V56.25Z" fill="white"/>
</svg>
