<svg width="28" height="28" viewBox="0 0 28 28" fill="none" xmlns="http://www.w3.org/2000/svg">
<path fill-rule="evenodd" clip-rule="evenodd" d="M17.2171 9.1898C17.2974 9.23447 17.3682 9.29453 17.4253 9.36655C17.4825 9.43857 17.5248 9.52114 17.5501 9.60954C17.5753 9.69795 17.5828 9.79045 17.5723 9.88177C17.5618 9.9731 17.5334 10.0615 17.4887 10.1418L13.6009 17.1418C13.5562 17.2221 13.4961 17.2929 13.4241 17.35C13.3521 17.4072 13.2695 17.4495 13.1811 17.4748C13.0927 17.5 13.0002 17.5075 12.9089 17.497C12.8176 17.4865 12.7292 17.4581 12.6489 17.4134C12.5685 17.3687 12.4978 17.3087 12.4407 17.2366C12.3835 17.1646 12.3411 17.082 12.3159 16.9936C12.2907 16.9052 12.2831 16.8127 12.2937 16.7214C12.3042 16.6301 12.3326 16.5417 12.3773 16.4614L16.2651 9.4614C16.3098 9.38105 16.3698 9.31029 16.4418 9.25316C16.5139 9.19603 16.5964 9.15364 16.6848 9.12842C16.7732 9.1032 16.8657 9.09564 16.9571 9.10617C17.0484 9.1167 17.1367 9.14512 17.2171 9.1898Z" fill="white"/>
<path fill-rule="evenodd" clip-rule="evenodd" d="M8.55398 13.2526C8.66995 13.108 8.83855 13.0152 9.0228 12.9948C9.20705 12.9743 9.39189 13.0277 9.53678 13.1434L13.426 16.2542C13.571 16.3702 13.6639 16.5391 13.6844 16.7237C13.7049 16.9082 13.6512 17.0934 13.5352 17.2384C13.4191 17.3834 13.2503 17.4763 13.0657 17.4968C12.8811 17.5173 12.696 17.4636 12.551 17.3476L8.66318 14.2382C8.59136 14.1808 8.53157 14.1097 8.48721 14.0292C8.44285 13.9486 8.4148 13.8601 8.40466 13.7687C8.39452 13.6773 8.40249 13.5848 8.42811 13.4965C8.45373 13.4082 8.4965 13.3258 8.55398 13.254" fill="white"/>
<path fill-rule="evenodd" clip-rule="evenodd" d="M5.87716 5.70791C5.65573 5.92853 5.48138 6.1918 5.36467 6.48178C5.24796 6.77175 5.19131 7.0824 5.19816 7.39491C5.21216 8.16491 5.01616 8.97971 4.73196 9.68531C4.44776 10.3923 4.02356 11.1161 3.48036 11.6607C3.04564 12.0964 2.80149 12.6867 2.80149 13.3022C2.80149 13.9177 3.04564 14.508 3.48036 14.9437C4.47436 15.9391 5.16876 17.5659 5.19816 18.9743C5.20922 19.5617 5.44316 20.123 5.85258 20.5444C6.262 20.9658 6.8163 21.2157 7.40316 21.2437C8.17316 21.2815 8.98376 21.5153 9.69496 21.8317C10.4048 22.1467 11.1216 22.5905 11.6662 23.1351C12.1018 23.5698 12.6922 23.814 13.3077 23.814C13.9231 23.814 14.5135 23.5698 14.9492 23.1351C15.4938 22.5905 16.2092 22.1467 16.9204 21.8303C17.6316 21.5153 18.4422 21.2815 19.2122 21.2437C19.7991 21.2161 20.3536 20.9662 20.7631 20.5447C21.1726 20.1233 21.4064 19.5618 21.4172 18.9743C21.4452 17.5659 22.1396 15.9391 23.135 14.9423C23.5693 14.5067 23.8131 13.9166 23.8131 13.3015C23.8131 12.6864 23.5693 12.0963 23.135 11.6607C22.5904 11.1161 22.1676 10.3923 21.8834 9.68671C21.5978 8.97971 21.4018 8.16351 21.4172 7.39491C21.4238 7.0823 21.367 6.77159 21.25 6.48161C21.1331 6.19163 20.9584 5.92842 20.7368 5.70791C20.5077 5.47772 20.2328 5.2984 19.9298 5.18165C19.6268 5.06489 19.3026 5.01332 18.9784 5.03031C17.584 5.10031 15.9362 4.46751 14.9492 3.48051C14.5135 3.04578 13.9231 2.80164 13.3077 2.80164C12.6922 2.80164 12.1018 3.04578 11.6662 3.48051C10.6792 4.46751 9.03136 5.10031 7.63696 5.03031C7.31247 5.01312 6.98801 5.0646 6.68477 5.18136C6.38153 5.29812 6.10633 5.47754 5.87716 5.70791ZM3.79816 7.42011C3.81916 8.48131 3.24096 9.91911 2.48916 10.6695C1.79198 11.3677 1.40039 12.3141 1.40039 13.3008C1.40039 14.2875 1.79198 15.2339 2.48916 15.9321C3.23116 16.6727 3.77716 17.9551 3.79816 19.0009C3.81776 19.9277 4.18036 20.8489 4.88736 21.5559C5.53964 22.2095 6.41223 22.5964 7.33456 22.6409C8.44196 22.6969 9.89236 23.3395 10.6764 24.1249C11.3746 24.8221 12.321 25.2137 13.3077 25.2137C14.2944 25.2137 15.2407 24.8221 15.939 24.1249C16.723 23.3395 18.1734 22.6969 19.2808 22.6409C20.2031 22.5964 21.0757 22.2095 21.728 21.5559C22.4076 20.8772 22.7976 19.9613 22.8158 19.0009C22.8382 17.9551 23.3842 16.6727 24.1248 15.9321C24.8219 15.2339 25.2135 14.2875 25.2135 13.3008C25.2135 12.3141 24.8219 11.3677 24.1248 10.6695C23.3744 9.91911 22.7948 8.48131 22.8172 7.42151C22.8279 6.92024 22.7369 6.42199 22.5497 5.95686C22.3625 5.49173 22.083 5.06938 21.728 4.71531C21.3602 4.3466 20.919 4.05944 20.433 3.87251C19.9469 3.68557 19.427 3.60305 18.907 3.63031C17.9074 3.68071 16.646 3.19631 15.939 2.48791C15.2407 1.7903 14.294 1.39844 13.307 1.39844C12.3199 1.39844 11.3732 1.7903 10.675 2.48791C9.96936 3.19631 8.70656 3.68071 7.70696 3.63031C7.18716 3.60325 6.66749 3.68587 6.18172 3.8728C5.69594 4.05973 5.25494 4.34678 4.88736 4.71531C4.53254 5.06922 4.25309 5.49134 4.06589 5.95621C3.87869 6.42109 3.78762 6.91907 3.79816 7.42011Z" fill="white"/>
</svg>
