<svg width="48" height="54" viewBox="0 0 48 54" fill="none" xmlns="http://www.w3.org/2000/svg">
<path d="M47.3175 14.1145L44.7658 14.6377L47.0293 13.1856C46.741 12.3742 46.3886 11.6268 45.9936 10.9222L42.8546 12.6198L45.5131 10.1321C44.2319 8.22092 42.5664 6.7582 40.9008 5.65849C40.1427 6.55534 39.1498 8.07144 39.1498 8.07144C39.3847 6.99309 39.8544 5.87202 40.1641 5.1887C39.4381 4.75096 38.7227 4.37727 38.0394 4.06764C37.0785 5.54104 36.0962 8.26363 36.0962 8.26363C36.4165 6.36315 36.8863 4.61216 37.1532 3.68327C35.2848 2.91455 33.9288 2.63695 33.9288 2.63695C31.5799 6.95038 32.1458 14.5523 32.1458 14.5523C24.8215 17.7446 16.7498 15.2142 16.7498 15.2142C16.0879 13.6234 14.5931 10.5271 14.5931 10.5271L16.8459 11.7443C12.5325 2.55154 5.30429 4.98585 5.30429 4.98585C8.40056 3.48042 11.4968 3.20282 11.4968 3.20282C10.3651 0.853925 7.8347 1.69739 7.8347 1.69739C9.61773 -1.12128 4.83452 2.73304 4.83452 2.73304C5.20821 0.480234 3.14759 2.73304 2.76322 4.41998C2.38953 6.10691 3.60668 7.04647 3.60668 7.04647C1.72756 7.04647 0.136719 8.92559 0.136719 8.92559L4.26864 8.74408C1.26846 10.9008 1.91976 12.5877 3.233 12.5023C4.54625 12.4062 5.2082 9.87583 5.2082 9.87583C5.95558 14.0077 2.6778 17.2962 2.6778 17.2962C2.01584 30.4394 10.4612 35.3187 10.4612 35.3187L10.0875 33.5356C20.6042 39.5467 22.2911 42.9205 22.2911 42.9205C23.5723 42.9526 24.7681 42.9099 25.8892 42.7924L24.8215 45.1413C24.8215 45.1413 24.4798 46.3905 22.6007 46.0488C20.7216 45.7072 17.935 45.1413 18.2232 47.4582C18.2232 47.4582 18.5329 46.3905 19.6966 46.9884C20.7536 47.5329 23.1025 47.4155 25.665 46.7322L25.0777 47.9813C23.9567 48.2269 23.4228 48.4511 20.1344 48.1735C16.8459 47.8959 17.668 50.5224 17.668 50.5224C17.8282 49.8391 18.2019 49.3907 19.355 49.8605C20.5081 50.3302 22.0135 49.4547 22.0135 49.4547L24.608 49.2412C23.8926 49.3907 21.9174 50.6185 21.9174 50.6185C18.9172 50.9281 20.9138 53.213 20.9138 53.213C20.7216 51.7396 21.5117 52.3695 22.6968 52.0279C23.8819 51.6862 25.5796 49.8071 25.5796 49.8071C31.6226 48.686 30.2453 50.8748 30.2453 50.8748C32.2526 48.0561 30.1492 47.7785 29.2417 48.0881C28.3342 48.3977 26.9569 48.622 26.9569 48.622L29.9571 42.0237C37.7404 39.8029 40.7833 34.2937 40.7833 34.2937C39.9399 33.1619 39.7477 31.3896 39.7477 31.3896C41.6268 30.3539 44.4348 30.45 44.4348 30.45C45.8868 27.5886 46.805 25.0155 47.3282 22.688L44.4348 21.631H47.5418C48.0436 18.6949 47.9048 16.2178 47.3175 14.1145ZM5.35768 7.8152C4.80248 7.8152 4.35405 7.36677 4.35405 6.81158C4.35405 6.25639 4.80248 5.80796 5.35768 5.80796C5.91287 5.80796 6.3613 6.25639 6.3613 6.81158C6.3613 7.36677 5.91287 7.8152 5.35768 7.8152Z" fill="white"/>
</svg>
