<svg width="98" height="57" viewBox="0 0 98 57" fill="none" xmlns="http://www.w3.org/2000/svg">
<path d="M96.508 26.9065C95.2769 25.2439 94.8133 23.4373 94.8932 21.4069C95.0851 16.7227 93.5503 12.518 91.2002 8.56916C89.7773 6.18706 87.699 4.70025 84.9332 4.3805C83.1107 4.17267 81.2561 4.09273 79.4336 4.23662C74.0779 4.62031 68.7861 4.01279 63.4783 3.58114C59.3856 3.24541 55.3088 2.71783 51.2161 2.63789C47.2673 2.55796 43.3664 2.31815 39.5134 1.47082C37.9787 1.13509 36.4439 0.815346 34.9091 0.527576C32.2872 0.0159841 30.1769 1.39089 27.9547 2.43006C26.26 3.21344 24.5814 4.06076 22.8388 4.73222C22.0074 5.05197 21.0482 5.05197 19.9131 5.22783C21.4319 3.11751 21.5598 1.53478 20.5526 0C20.5046 0.063949 20.4407 0.111912 20.4247 0.175861C19.7052 3.11751 15.5006 5.004 12.8307 3.61311C11.5997 2.97362 10.1928 2.76579 8.94584 3.34133C7.7468 3.90089 7.3631 3.24541 6.93145 2.46203C6.7396 2.09432 6.67565 1.64669 6.56374 1.23102C6.46782 1.21503 6.35591 1.18306 6.25998 1.16707C6.05215 1.82254 5.66845 2.46203 5.66845 3.11751C5.66845 3.82095 6.02017 4.54037 6.21202 5.2598C5.58852 5.2598 4.93304 5.2598 4.02177 5.2598C4.53336 6.0112 4.96501 6.53878 5.26877 7.14629C5.41266 7.43406 5.39667 7.88171 5.28476 8.21744C5.06094 8.88891 4.54934 9.49642 4.46941 10.1679C4.2296 12.2942 4.16566 14.4365 2.55094 16.1151C2.42305 16.259 2.35909 16.4509 2.21521 16.5788C0.760369 17.8418 0.792345 19.5684 0.824319 21.247C0.840307 22.1903 1.20801 23.1495 2.32712 23.4693C3.14247 23.7091 3.94183 23.9169 4.77317 24.1088C5.52457 24.2846 6.13208 24.0928 6.75558 23.5332C7.34711 22.9896 8.09851 22.494 8.8659 22.3182C10.6884 21.8865 12.5749 21.7746 14.3815 21.327C16.6197 20.7674 19.3375 21.9185 20.3767 23.9489C21.7676 26.6667 23.2384 29.3526 24.6773 32.0544C25.1729 32.9817 25.7165 33.4453 26.9475 33.0936C27.9547 32.8058 29.0898 33.0296 30.1609 33.0296C30.033 35.9553 29.9051 38.6252 29.7932 41.311C29.7772 41.6148 29.6973 42.0624 29.8571 42.2063C30.6405 42.8938 30.2568 43.7091 30.1929 44.4765C30.1129 45.4677 29.9211 46.4429 29.7612 47.4341C29.3456 50.056 28.2424 52.2623 25.9722 53.813C25.5886 54.0688 25.3487 54.5485 24.8691 55.156C26.1961 55.2679 27.1393 55.3478 28.0826 55.4118C29.1377 55.4757 29.7133 54.9322 29.9691 53.9569C30.2888 52.662 30.6245 51.415 32.1433 50.9194C32.8308 50.6955 33.3743 50.1999 33.1505 49.2567C32.1593 45.1799 33.9499 41.5349 34.9571 37.7299C35.1489 38.1296 35.3088 38.5292 35.3088 38.9129C35.3088 40.3198 35.4047 41.6628 36.6198 42.654C36.8276 42.8138 36.9235 43.2135 36.9235 43.5013C36.9395 46.0273 36.9875 48.5532 36.8915 51.0792C36.8596 51.6708 36.3799 52.3262 35.9323 52.8059C35.3408 53.4453 34.5894 53.941 33.9339 54.5325C33.742 54.7243 33.6621 55.0441 33.5342 55.2999C33.822 55.4437 34.1098 55.6836 34.4135 55.6995C35.1329 55.7315 35.8684 55.6676 36.6038 55.6356C38.1226 55.5716 39.7053 55.5716 39.7692 53.4294C39.7692 53.3654 39.8172 53.2695 39.8811 53.2215C40.8564 52.3902 40.5047 51.4629 40.2169 50.4078C39.4495 47.642 38.842 44.8762 39.9451 41.9665C40.5047 40.4637 40.6325 38.7691 40.7924 37.1543C41.0322 34.6923 41.1282 32.2143 41.304 29.4165C50.3848 34.3886 59.4016 36.0193 68.8181 32.3742C69.7773 33.3814 69.7773 34.2287 68.7381 35.0121C68.5942 35.124 68.4184 35.2838 68.3864 35.4597C68.3225 35.7315 68.2745 36.0992 68.4024 36.291C68.5143 36.4349 68.9779 36.4669 69.1698 36.355C69.6814 36.0992 70.177 35.7794 70.5767 35.3798C71.1682 34.7722 71.7437 34.7723 72.3832 35.1719C72.623 36.0033 71.5839 36.9625 72.8948 37.8738C73.3425 36.9945 73.7581 36.1791 74.1738 35.3798C74.5415 36.9785 74.7333 38.5293 74.8133 40.08C75.0851 44.4765 73.7741 48.2175 70.209 51.0313C70.0171 51.1911 69.7133 51.4469 69.7293 51.6228C69.8892 52.598 69.1378 52.9338 68.5782 53.3974C67.9867 53.893 67.3632 54.3406 66.8037 54.8522C66.5958 55.0441 66.3241 55.4597 66.388 55.5717C66.5479 55.8115 66.8996 56.0673 67.1874 56.0832C68.3384 56.1472 69.4895 56.1952 70.6406 56.1152C71.6158 56.0513 72.671 54.7403 72.5271 53.7491C72.3992 52.8698 72.7989 52.63 73.5343 52.4222C73.95 52.2943 74.3976 51.9106 74.6214 51.5269C75.3249 50.2639 75.8205 48.873 76.5879 47.642C77.8668 45.6116 78.922 43.3894 81.1123 42.0944C81.3041 41.9825 81.4 41.5988 81.416 41.327C81.5279 39.2647 81.6398 37.1863 81.6558 35.124C81.6558 34.1488 81.9596 33.5412 83.0467 33.1895C84.1658 35.4917 85.2849 37.7938 86.42 40.08C86.5959 40.4477 86.8836 40.7675 87.0755 41.1352C87.5551 41.9825 88.3385 42.8138 88.4504 43.7091C88.6902 45.5796 88.7222 47.5141 88.5463 49.4006C88.3705 51.4469 87.9708 53.5253 85.7805 54.5644C85.5567 54.6764 85.3649 54.9162 85.237 55.14C85.0611 55.4437 84.7733 55.8914 84.8692 56.0992C84.9812 56.355 85.4928 56.5788 85.8125 56.5629C86.8836 56.4829 87.9388 56.355 88.994 56.1472C90.8805 55.7635 91.1682 55.092 90.241 53.3974C90.3529 53.2695 90.4488 53.0936 90.6087 52.9977C91.8557 52.3422 91.9196 51.399 91.6638 50.088C90.8485 45.8514 90.5127 41.5668 91.6159 37.3302C92.2873 34.7403 92.0475 32.3582 91.0403 29.8482C90.177 27.7059 89.5375 25.3558 89.4736 23.0696C89.3936 20.1119 91.0083 17.506 92.3513 14.7083C92.4952 15.092 92.6231 15.2998 92.655 15.5076C92.8948 17.3621 93.1506 19.2167 93.3585 21.0712C93.5503 22.8777 93.2785 24.7962 94.4296 26.3949C94.8453 26.9705 94.7174 27.3542 94.3017 27.8977C92.3833 30.3598 93.4704 33.9249 96.1562 34.9321C96.3321 34.0049 96.3001 32.9497 96.7318 32.1024C97.691 30.2639 97.723 28.5372 96.508 26.9065ZM39.8652 28.2015C40.025 27.7858 40.1849 27.3542 40.3608 26.9065C40.1849 27.3542 40.025 27.7698 39.8652 28.2015ZM62.4551 26.8905C62.1034 27.0504 61.9755 27.1144 61.8476 26.8586C61.9595 27.1144 62.1034 27.0504 62.4551 26.8905ZM61.7197 26.5548C61.6877 26.4589 61.6558 26.363 61.6238 26.2351C61.6558 26.363 61.6877 26.4749 61.7197 26.5548ZM54.2057 26.251C54.2857 26.331 54.3656 26.3949 54.4455 26.4269C54.3816 26.3949 54.3016 26.331 54.2057 26.251ZM73.7581 18.6411C73.4544 18.7211 73.1346 18.785 72.8309 18.8649C73.1346 18.801 73.4544 18.7211 73.7581 18.6411ZM67.4112 6.74661C67.3792 6.77859 67.3472 6.79458 67.3153 6.82655C67.3632 6.79458 67.3792 6.77859 67.4112 6.74661ZM62.4711 26.9065C63.0786 26.9865 63.7181 27.0184 64.3097 27.1303C63.7181 27.0024 63.0946 26.9865 62.4711 26.9065Z" fill="white"/>
</svg>
