<svg width="28" height="20" viewBox="0 0 28 20" fill="none" xmlns="http://www.w3.org/2000/svg">
<rect width="28" height="20" rx="2" fill="white"/>
<mask id="mask0_231_2048" style="mask-type:luminance" maskUnits="userSpaceOnUse" x="0" y="0" width="28" height="20">
<rect width="28" height="20" rx="2" fill="white"/>
</mask>
<g mask="url(#mask0_231_2048)">
<rect width="28" height="20" fill="#043CAE"/>
<path fill-rule="evenodd" clip-rule="evenodd" d="M13.0573 4.27615L14.0001 4.00001L14.9429 4.27615L14.6668 3.33334L14.9429 2.39053L14.0001 2.66668L13.0573 2.39053L13.3334 3.33334L13.0573 4.27615ZM13.0573 17.6095L14.0001 17.3333L14.9429 17.6095L14.6668 16.6667L14.9429 15.7239L14.0001 16L13.0573 15.7239L13.3334 16.6667L13.0573 17.6095ZM20.6663 10.6667L19.7235 10.9428L19.9997 10L19.7235 9.05721L20.6663 9.33335L21.6091 9.05721L21.333 10L21.6091 10.9428L20.6663 10.6667ZM6.39062 10.9428L7.33343 10.6667L8.27624 10.9428L8.0001 10L8.27624 9.0572L7.33343 9.33334L6.39062 9.0572L6.66677 10L6.39062 10.9428ZM19.7736 7.33334L18.8308 7.60948L19.1069 6.66668L18.8308 5.72387L19.7736 6.00001L20.7164 5.72387L20.4403 6.66668L20.7164 7.60948L19.7736 7.33334ZM7.28408 14.2761L8.22689 14L9.1697 14.2761L8.89355 13.3333L9.1697 12.3905L8.22689 12.6667L7.28408 12.3905L7.56022 13.3333L7.28408 14.2761ZM17.3334 4.89317L16.3906 5.16932L16.6668 4.22651L16.3906 3.2837L17.3334 3.55984L18.2762 3.2837L18.0001 4.22651L18.2762 5.16932L17.3334 4.89317ZM9.72353 16.7163L10.6663 16.4402L11.6091 16.7163L11.333 15.7735L11.6091 14.8307L10.6663 15.1069L9.72353 14.8307L9.99967 15.7735L9.72353 16.7163ZM19.7736 14L18.8308 14.2762L19.1069 13.3333L18.8308 12.3905L19.7736 12.6667L20.7164 12.3905L20.4403 13.3333L20.7164 14.2762L19.7736 14ZM7.28408 7.60949L8.22689 7.33334L9.1697 7.60949L8.89355 6.66668L9.1697 5.72387L8.22689 6.00001L7.28408 5.72387L7.56022 6.66668L7.28408 7.60949ZM17.3334 16.4402L16.3906 16.7163L16.6668 15.7735L16.3906 14.8307L17.3334 15.1068L18.2762 14.8307L18.0001 15.7735L18.2762 16.7163L17.3334 16.4402ZM9.72353 5.1693L10.6663 4.89316L11.6091 5.1693L11.333 4.22649L11.6091 3.28368L10.6663 3.55982L9.72353 3.28368L9.99967 4.22649L9.72353 5.1693Z" fill="#FFD429"/>
</g>
</svg>
