<svg width="81" height="81" viewBox="0 0 81 81" fill="none" xmlns="http://www.w3.org/2000/svg">
<g clip-path="url(#clip0_1535_218)">
<path d="M70.2661 23.9626H10.7341V57.0351H70.2661V23.9626Z" fill="white"/>
<path fill-rule="evenodd" clip-rule="evenodd" d="M40.5 0C62.8665 0 81 18.1335 81 40.5C81 62.8665 62.8665 81 40.5 81C18.1335 81 0 62.8665 0 40.5C0 18.1335 18.1335 0 40.5 0Z" fill="#2E4F46"/>
<path fill-rule="evenodd" clip-rule="evenodd" d="M40.5 3.0592C61.1794 3.0592 77.9408 19.823 77.9408 40.5C77.9408 61.177 61.1771 77.9408 40.5 77.9408C19.823 77.9408 3.05924 61.1794 3.05924 40.5C3.05924 19.8206 19.8207 3.0592 40.5 3.0592ZM40.5 1.94846C61.7931 1.94846 79.0539 19.2093 79.0539 40.5023C79.0539 61.7954 61.7931 79.0562 40.5 79.0562C19.207 79.0562 1.94617 61.7931 1.94617 40.5C1.94617 19.2069 19.207 1.94613 40.5 1.94613V1.94846Z" fill="white"/>
<path fill-rule="evenodd" clip-rule="evenodd" d="M10.4634 44.8706H70.196C70.4341 44.8706 70.6277 45.0643 70.6277 45.3023C70.6277 45.5403 70.4341 45.7363 70.196 45.7363H10.4634C10.2254 45.7363 10.0317 45.5427 10.0317 45.3046C10.0317 45.0666 10.2254 44.873 10.4634 44.873" fill="white"/>
<path d="M61.7324 40.472H18.6865V42.2034H61.7324V40.472Z" fill="white"/>
<path d="M37.058 38.3625H31.1917V40.598H37.058V38.3625Z" fill="white"/>
<path d="M37.058 36.1994H31.1917V37.7628H37.058V36.1994Z" fill="white"/>
<path d="M37.058 33.9849H31.1917V35.5483H37.058V33.9849Z" fill="white"/>
<path d="M37.058 31.8218H31.1917V33.3852H37.058V31.8218Z" fill="white"/>
<path fill-rule="evenodd" clip-rule="evenodd" d="M37.058 30.683V31.047H31.1917V30.053C31.5253 30.165 31.8684 30.2583 32.2277 30.333C33.1891 30.5313 34.2088 30.6084 35.1866 30.6574C35.8026 30.69 36.4397 30.7157 37.0604 30.683" fill="white"/>
<path fill-rule="evenodd" clip-rule="evenodd" d="M29.2922 29.4813H29.8826C29.9316 29.5069 29.9806 29.5326 30.0296 29.5583L27.1174 36.1737L23.4211 30.3517C24.2075 30.4753 25.0196 30.5313 25.8036 30.5734C26.4617 30.606 27.1407 30.6364 27.7964 30.5944C28.1651 30.571 28.6808 30.5173 29.0028 30.3237C29.2689 30.1627 29.4345 29.8663 29.3225 29.5583C29.3132 29.5326 29.3015 29.5069 29.2899 29.4836" fill="white"/>
<path fill-rule="evenodd" clip-rule="evenodd" d="M51.3857 30.438L53.9106 36.176L57.5858 30.389C57.1681 30.123 56.7434 29.8196 56.3491 29.5023C56.3724 29.7193 56.2534 29.9223 56.069 30.0553C55.803 30.2443 55.362 30.3237 55.0423 30.368C54.4823 30.445 53.9012 30.4637 53.3365 30.4753C52.6972 30.4893 52.0345 30.4917 51.3857 30.4427" fill="white"/>
<path fill-rule="evenodd" clip-rule="evenodd" d="M30.4216 40.528V30.3797L27.6494 37.0068L29.9409 40.528H30.4216Z" fill="white"/>
<path fill-rule="evenodd" clip-rule="evenodd" d="M50.6086 40.528V30.3797L53.3808 37.0068L51.0893 40.528H50.6086Z" fill="white"/>
<path d="M43.1671 38.3625H37.7324V40.598H43.1671V38.3625Z" fill="white"/>
<path d="M43.1671 36.1994H37.7324V37.7628H43.1671V36.1994Z" fill="white"/>
<path d="M43.1671 33.9849H37.7324V35.5483H43.1671V33.9849Z" fill="white"/>
<path d="M43.1671 31.8218H37.7324V33.3852H43.1671V31.8218Z" fill="white"/>
<path fill-rule="evenodd" clip-rule="evenodd" d="M38.6215 29.4813H38.7545C38.8432 29.5349 38.9318 29.5863 39.0205 29.6376C39.6015 29.969 40.1849 30.2257 40.8056 30.417C41.1276 30.5243 41.4613 30.6154 41.8207 30.69C42.2501 30.7787 42.7098 30.844 43.1671 30.893V31.0447H37.7324V30.6154C37.9704 30.5757 38.2061 30.5103 38.3835 30.403C38.6495 30.242 38.8152 29.9456 38.7032 29.6376C38.6845 29.5816 38.6542 29.5303 38.6191 29.4813" fill="white"/>
<path d="M49.8036 38.3625H43.9373V40.598H49.8036V38.3625Z" fill="white"/>
<path d="M49.8036 36.1994H43.9373V37.7628H49.8036V36.1994Z" fill="white"/>
<path d="M49.8036 33.9849H43.9373V35.5483H49.8036V33.9849Z" fill="white"/>
<path d="M49.8036 31.8218H43.9373V33.3852H49.8036V31.8218Z" fill="white"/>
<path fill-rule="evenodd" clip-rule="evenodd" d="M47.7549 29.4813H48.0886C48.2286 29.5559 48.3686 29.6283 48.5086 29.696C48.9357 29.9013 49.3627 30.0623 49.8037 30.1813V31.0447C48.672 31.0447 48.175 31.0494 47.0432 31.0447C47.0432 31.0447 48.0699 30.837 48.14 30.291C48.168 30.074 48.2123 29.822 47.7549 29.4789" fill="white"/>
<path fill-rule="evenodd" clip-rule="evenodd" d="M27.6636 36.9718L26.0371 40.528H25.1877L27.1199 36.176L27.6636 36.9718Z" fill="white"/>
<path fill-rule="evenodd" clip-rule="evenodd" d="M53.3669 36.9718L54.9934 40.528H55.8428L53.9106 36.176L53.3669 36.9718Z" fill="white"/>
<path fill-rule="evenodd" clip-rule="evenodd" d="M28.1511 39.0602C28.2608 39.3963 28.0764 39.758 27.7381 39.8653C27.4021 39.975 27.0404 39.7906 26.933 39.4523C26.8234 39.1162 27.0077 38.7546 27.3461 38.6472C27.6821 38.5375 28.0438 38.7219 28.1511 39.0602Z" fill="white"/>
<path fill-rule="evenodd" clip-rule="evenodd" d="M52.8791 39.0602C52.7694 39.3963 52.9537 39.758 53.2921 39.8653C53.6281 39.975 53.9898 39.7906 54.0971 39.4523C54.2068 39.1162 54.0225 38.7546 53.6841 38.6472C53.3481 38.5375 52.9864 38.7219 52.8791 39.0602Z" fill="white"/>
<path fill-rule="evenodd" clip-rule="evenodd" d="M28.4289 38.0522L26.7301 40.899L26.4851 40.7567L28.1839 37.9075L28.4289 38.0522Z" fill="white"/>
<path fill-rule="evenodd" clip-rule="evenodd" d="M52.6016 38.0522L54.3003 40.899L54.5454 40.7567L52.8466 37.9075L52.6016 38.0522Z" fill="white"/>
<path fill-rule="evenodd" clip-rule="evenodd" d="M52.1605 44.4669C51.7032 44.0072 51.6635 43.2185 52.1722 42.8195C52.4056 42.6351 52.6202 42.8335 52.4032 43.0458C52.0765 43.3702 52.0742 43.8999 52.3986 44.2266C52.9096 44.7399 53.5046 44.2172 53.6726 44.2336C53.724 44.2382 53.8547 44.3269 53.7753 44.4739C53.57 44.8496 52.6482 44.9546 52.1605 44.4646M59.4457 44.4646C59.9007 44.0049 59.9427 43.2162 59.434 42.8171C59.2007 42.6328 58.986 42.8312 59.203 43.0435C59.5297 43.3679 59.532 43.8976 59.2077 44.2242C58.6966 44.7376 58.1016 44.2149 57.9336 44.2312C57.8823 44.2359 57.7516 44.3246 57.8309 44.4716C58.0363 44.8473 58.958 44.9523 59.4457 44.4623V44.4646ZM57.8262 42.9362H57.4179V43.3632L57.8262 43.1718V42.9362ZM56.9349 42.9362H56.5265V43.8742L56.9349 43.4542V42.9362ZM55.6491 42.9362H56.0575V43.8742H55.6491V42.9362ZM54.7344 42.9362H55.1427V43.8742L54.7344 43.4542V42.9362ZM53.8103 42.9362H54.2187V43.3632L53.8103 43.1718V42.9362ZM52.8723 42.0984H58.776C59.658 42.0984 60.3744 42.8148 60.3744 43.6969C60.3744 44.5789 59.658 45.2953 58.776 45.2953C58.2649 45.2953 57.8099 45.055 57.5159 44.6816H54.13C53.8383 45.055 53.381 45.2953 52.8699 45.2953C51.9879 45.2953 51.2715 44.5789 51.2715 43.6969C51.2715 42.8148 51.9879 42.0984 52.8699 42.0984H52.8723Z" fill="white"/>
<path fill-rule="evenodd" clip-rule="evenodd" d="M20.3411 44.4669C19.8837 44.0072 19.8441 43.2185 20.3528 42.8195C20.5861 42.6351 20.8008 42.8335 20.5838 43.0458C20.2571 43.3702 20.2548 43.8999 20.5791 44.2266C21.0901 44.7399 21.6852 44.2172 21.8532 44.2336C21.9045 44.2382 22.0352 44.3269 21.9559 44.4739C21.7505 44.8496 20.8288 44.9546 20.3411 44.4646M27.6262 44.4646C28.0836 44.0049 28.1233 43.2162 27.6146 42.8171C27.3812 42.6328 27.1665 42.8312 27.3836 43.0435C27.7103 43.3679 27.7126 43.8976 27.3882 44.2242C26.8772 44.7376 26.2822 44.2149 26.1141 44.2312C26.0628 44.2359 25.9321 44.3246 26.0115 44.4716C26.2168 44.8473 27.1385 44.9523 27.6262 44.4623V44.4646ZM26.0068 42.9362H25.5984V43.3632L26.0068 43.1718V42.9362ZM25.1154 42.9362H24.7071V43.8742L25.1154 43.4542V42.9362ZM23.8297 42.9362H24.238V43.8742H23.8297V42.9362ZM22.9149 42.9362H23.3233V43.8742L22.9149 43.4542V42.9362ZM21.9885 42.9362H22.3969V43.3632L21.9885 43.1718V42.9362ZM21.0505 42.0984H26.9542C27.8363 42.0984 28.5526 42.8148 28.5526 43.6969C28.5526 44.5789 27.8363 45.2953 26.9542 45.2953C26.4432 45.2953 25.9881 45.055 25.6941 44.6816H22.3082C22.0165 45.055 21.5592 45.2953 21.0481 45.2953C20.1661 45.2953 19.4497 44.5789 19.4497 43.6969C19.4497 42.8148 20.1661 42.0984 21.0481 42.0984H21.0505Z" fill="white"/>
<path fill-rule="evenodd" clip-rule="evenodd" d="M18.2455 41.0834H18.7495V42.0284H18.2455L17.5361 42.3201V40.773L18.2455 41.0834Z" fill="white"/>
<path fill-rule="evenodd" clip-rule="evenodd" d="M62.2201 41.0834H61.7161V42.0284H62.2201L62.9295 42.3201V40.773L62.2201 41.0834Z" fill="white"/>
<path fill-rule="evenodd" clip-rule="evenodd" d="M21.8695 22.7958C21.9092 22.5275 22.1262 22.1425 22.5392 21.7504C22.9523 21.3584 23.5613 20.957 24.0747 20.6444C24.588 20.3317 25.0034 20.1077 25.4328 19.9303C25.8621 19.753 26.3031 19.627 26.8235 19.5056C27.3439 19.3843 27.9459 19.2723 28.5783 19.2489C29.2107 19.2256 29.878 19.2886 30.4311 19.3399C30.9841 19.3913 31.4251 19.4333 31.7892 19.4636C32.1532 19.4963 32.4425 19.5196 32.6549 19.557C32.8672 19.592 33.0026 19.641 33.1683 19.69C33.3316 19.739 33.5253 19.7856 33.6303 19.886C33.7353 19.9863 33.7516 20.138 33.614 20.2617C33.4786 20.3853 33.1893 20.481 32.9442 20.6257C32.6992 20.7704 32.4986 20.9617 32.2185 21.2581C31.9385 21.5544 31.5768 21.9558 31.2291 22.3478C30.8814 22.7398 30.5431 23.1249 29.9877 23.4609C29.43 23.7969 28.653 24.0863 27.8246 24.2263C26.9939 24.3663 26.1141 24.3593 25.3161 24.2916C24.518 24.2239 23.804 24.0956 23.2836 23.9299C22.7632 23.7666 22.4342 23.5659 22.2009 23.3885C21.9675 23.2112 21.8322 23.0595 21.8719 22.7912" fill="white"/>
<path fill-rule="evenodd" clip-rule="evenodd" d="M31.4881 23.0362C31.5277 22.7678 31.7447 22.3828 32.1578 21.9908C32.5708 21.5988 33.1798 21.1974 33.6932 20.8847C34.2066 20.572 34.6219 20.348 35.0513 20.1707C35.4807 19.9933 35.9217 19.865 36.4421 19.746C36.9624 19.6246 37.5645 19.5126 38.1968 19.4893C38.8292 19.4659 39.4966 19.529 40.0496 19.5803C40.6027 19.6316 41.0437 19.6736 41.4077 19.704C41.7717 19.7366 42.0611 19.76 42.2734 19.795C42.4858 19.8323 42.6211 19.879 42.7868 19.928C42.9501 19.977 43.1438 20.0236 43.2488 20.124C43.3538 20.2243 43.3702 20.376 43.2325 20.4997C43.0972 20.6234 42.8078 20.719 42.5628 20.8637C42.3178 21.0084 42.1171 21.1997 41.8371 21.4961C41.5571 21.7924 41.1954 22.1938 40.8477 22.5858C40.5 22.9778 40.1616 23.3629 39.6063 23.6989C39.0486 24.0349 38.2715 24.3243 37.4408 24.4643C36.6101 24.6043 35.7303 24.5973 34.9323 24.5273C34.1342 24.4596 33.4202 24.3313 32.8998 24.1656C32.3795 24.0022 32.0504 23.8016 31.8171 23.6242C31.5837 23.4469 31.4484 23.2952 31.4881 23.0268" fill="white"/>
<path fill-rule="evenodd" clip-rule="evenodd" d="M41.6365 23.7362C41.6762 23.4679 41.8932 23.0829 42.3062 22.6908C42.7192 22.2988 43.3283 21.8974 43.8416 21.5848C44.355 21.2721 44.7704 21.0481 45.1997 20.8707C45.6291 20.6934 46.0701 20.5674 46.5905 20.446C47.1109 20.3247 47.7129 20.2127 48.3453 20.1893C48.9776 20.166 49.6427 20.229 50.1957 20.2803C50.7488 20.3317 51.1898 20.3737 51.5538 20.404C51.9178 20.4367 52.2072 20.46 52.4195 20.495C52.6319 20.53 52.7672 20.579 52.9329 20.628C53.0963 20.677 53.2899 20.7237 53.3949 20.824C53.5 20.9244 53.5139 21.0761 53.3786 21.1997C53.2433 21.3234 52.9539 21.4191 52.7089 21.5638C52.4639 21.7084 52.2632 21.8998 51.9832 22.1961C51.7032 22.4925 51.3415 22.8938 50.9938 23.2859C50.6461 23.6779 50.3077 24.0629 49.7524 24.3989C49.1947 24.735 48.4176 25.0243 47.5892 25.1643C46.7585 25.3043 45.8788 25.2973 45.0807 25.2273C44.2827 25.1597 43.5686 25.0313 43.0483 24.8656C42.5279 24.7023 42.1989 24.5016 41.9655 24.3243C41.7322 24.1469 41.5968 23.9952 41.6365 23.7269" fill="white"/>
<path fill-rule="evenodd" clip-rule="evenodd" d="M52.0041 23.5729C52.0974 23.3465 52.3751 23.0549 52.8301 22.7958C53.2852 22.5368 53.9222 22.3128 54.4496 22.1471C54.9793 21.9791 55.4016 21.8694 55.8263 21.8041C56.251 21.7388 56.6757 21.7178 57.1704 21.7201C57.6651 21.7224 58.2322 21.7481 58.8085 21.8601C59.3849 21.9698 59.9706 22.1635 60.4583 22.3245C60.946 22.4855 61.3357 22.6115 61.6577 22.7142C61.9797 22.8168 62.2341 22.8985 62.4184 22.9732C62.6028 23.0479 62.7148 23.1179 62.8525 23.1949C62.9901 23.2719 63.1535 23.3535 63.2258 23.4609C63.2982 23.5706 63.2795 23.7059 63.1302 23.7876C62.9808 23.8669 62.7008 23.8926 62.4488 23.9672C62.1968 24.0419 61.9751 24.1703 61.6601 24.3709C61.345 24.5716 60.932 24.847 60.5353 25.12C60.1363 25.3907 59.7513 25.659 59.1772 25.8364C58.6032 26.016 57.8401 26.1071 57.0608 26.058C56.2837 26.009 55.488 25.82 54.7833 25.5937C54.0786 25.3697 53.4625 25.1083 53.0285 24.8586C52.5945 24.6066 52.3401 24.3639 52.1674 24.1609C51.9948 23.9579 51.9061 23.7969 51.9994 23.5706" fill="white"/>
<path fill-rule="evenodd" clip-rule="evenodd" d="M17.06 25.1527C17.2444 24.9473 17.6294 24.7233 18.1778 24.5833C18.7261 24.4433 19.4402 24.3873 20.1612 24.3756C20.8823 24.3639 21.6127 24.3966 22.3384 24.5109C23.0641 24.6276 23.7851 24.8283 24.3825 25.113C24.9799 25.3977 25.4536 25.7664 25.8083 26.1351C26.1653 26.5037 26.4056 26.8724 26.695 27.2575C26.9844 27.6425 27.3204 28.0438 27.6611 28.3565C28.0017 28.6692 28.3471 28.8932 28.6108 29.0729C28.8745 29.2526 29.0588 29.3903 29.1195 29.5583C29.1802 29.7263 29.1148 29.927 28.8908 30.0623C28.6668 30.1977 28.2818 30.27 27.7847 30.3027C27.2877 30.3353 26.6787 30.326 25.8176 30.2817C24.9565 30.2373 23.8411 30.158 22.8914 29.962C21.9417 29.766 21.1553 29.4533 20.3712 29.0029C19.5849 28.5549 18.8008 27.9692 18.2221 27.3998C17.6457 26.8304 17.277 26.2774 17.0834 25.9087C16.892 25.54 16.8757 25.3557 17.06 25.1503" fill="white"/>
<path fill-rule="evenodd" clip-rule="evenodd" d="M26.4384 25.2343C26.6228 25.029 27.0078 24.805 27.5562 24.665C28.1046 24.525 28.8186 24.4689 29.5396 24.4573C30.2607 24.4456 30.9911 24.4783 31.7168 24.5926C32.4425 24.7093 33.1636 24.91 33.7609 25.1947C34.3583 25.4793 34.832 25.848 35.1867 26.2167C35.5437 26.5854 35.7841 26.9541 36.0734 27.3391C36.3628 27.7242 36.6988 28.1255 37.0395 28.4382C37.3802 28.7509 37.7255 28.9749 37.9892 29.1569C38.2529 29.3366 38.4372 29.4743 38.4979 29.6423C38.5586 29.8103 38.4932 30.011 38.2692 30.1463C38.0452 30.2817 37.6602 30.354 37.1632 30.3867C36.6661 30.4193 36.0571 30.41 35.196 30.3657C34.335 30.3213 33.2196 30.242 32.2698 30.046C31.3201 29.85 30.5337 29.5373 29.7497 29.0893C28.9633 28.6412 28.1792 28.0555 27.6005 27.4861C27.0242 26.9168 26.6555 26.3637 26.4618 25.995C26.2704 25.6264 26.2541 25.442 26.4384 25.2367" fill="white"/>
<path fill-rule="evenodd" clip-rule="evenodd" d="M35.8166 25.526C36.001 25.3207 36.386 25.0966 36.9344 24.9566C37.4827 24.8166 38.1968 24.7606 38.9178 24.749C39.6389 24.7373 40.3693 24.77 41.095 24.8843C41.8207 25.001 42.5417 25.2017 43.1391 25.4863C43.7365 25.771 44.2102 26.1397 44.5649 26.5084C44.9219 26.8771 45.1622 27.2458 45.4516 27.6308C45.7409 28.0158 46.077 28.4172 46.4177 28.7299C46.7583 29.0426 47.1037 29.2666 47.3674 29.4463C47.6311 29.6259 47.8154 29.7636 47.8761 29.9316C47.9368 30.0996 47.8714 30.3003 47.6474 30.4357C47.4234 30.571 47.0384 30.6433 46.5413 30.676C46.0443 30.7087 45.4353 30.6994 44.5742 30.655C43.7131 30.6107 42.5977 30.5313 41.648 30.3353C40.6983 30.1393 39.9119 29.8266 39.1278 29.3786C38.3415 28.9306 37.5574 28.3449 36.9787 27.7755C36.4023 27.2061 36.0336 26.6531 35.84 26.2844C35.6486 25.9157 35.6323 25.7314 35.8166 25.526Z" fill="white"/>
<path fill-rule="evenodd" clip-rule="evenodd" d="M45.5404 26.3451C45.6851 26.1584 46.0001 25.9437 46.4598 25.7897C46.9195 25.6357 47.5262 25.5447 48.1399 25.4887C48.7559 25.435 49.379 25.4163 50.0067 25.47C50.6321 25.5237 51.2621 25.6497 51.7895 25.8574C52.3168 26.0627 52.7439 26.3497 53.0706 26.6414C53.3972 26.9331 53.6259 27.2341 53.8966 27.5445C54.1673 27.8548 54.48 28.1769 54.788 28.4219C55.0984 28.6669 55.4064 28.8372 55.6421 28.9749C55.8801 29.1126 56.0458 29.2176 56.1064 29.3576C56.1671 29.4976 56.1251 29.6726 55.9431 29.8033C55.7611 29.934 55.4367 30.018 55.0143 30.0763C54.592 30.1346 54.0716 30.165 53.3342 30.1813C52.5969 30.1977 51.6401 30.1977 50.8164 30.088C49.9927 29.9783 49.3043 29.7613 48.6043 29.4253C47.9065 29.0916 47.1995 28.6389 46.6721 28.1909C46.1448 27.7405 45.7947 27.2925 45.6081 26.9891C45.4214 26.6858 45.3957 26.5294 45.5404 26.3451Z" fill="white"/>
<path fill-rule="evenodd" clip-rule="evenodd" d="M54.9582 26.9588C55.1659 26.8304 55.6116 26.6391 56.223 26.5247C56.8344 26.4127 57.6114 26.3801 58.3278 26.4034C59.0442 26.4267 59.6975 26.5084 60.3486 26.6951C60.9996 26.8818 61.6483 27.1735 62.1477 27.5001C62.6471 27.8268 62.9948 28.1885 63.2981 28.5222C63.6015 28.8559 63.8582 29.1663 64.1008 29.4463C64.3459 29.7263 64.5769 29.9783 64.7659 30.165C64.9549 30.3517 65.0996 30.4707 65.2279 30.5547C65.3586 30.6387 65.4753 30.6877 65.5173 30.7764C65.5593 30.8674 65.5266 30.998 65.3889 31.1054C65.2512 31.2127 65.0062 31.2921 64.6002 31.3411C64.1942 31.3901 63.6248 31.4111 62.9201 31.4134C62.2177 31.4134 61.38 31.3994 60.5959 31.2781C59.8119 31.1567 59.0838 30.928 58.2181 30.438C57.3547 29.948 56.356 29.1989 55.7656 28.6179C55.1752 28.0368 54.9909 27.6238 54.8836 27.3858C54.7786 27.1478 54.7506 27.0824 54.9582 26.9541" fill="white"/>
<path fill-rule="evenodd" clip-rule="evenodd" d="M21.1274 22.3898C21.083 22.5741 20.852 22.9918 20.6257 23.1995C20.4016 23.4072 20.1846 23.4072 19.9116 23.3955C19.6386 23.3839 19.3096 23.3605 19.0062 23.3465C18.7005 23.3349 18.4205 23.3349 18.1452 23.3349C17.8698 23.3349 17.5968 23.3349 17.4474 23.2905C17.2981 23.2462 17.2748 23.1575 17.2001 23.1179C17.1231 23.0782 16.9947 23.0852 16.8991 23.1295C16.8034 23.1739 16.7381 23.2532 16.6307 23.3185C16.5234 23.3815 16.3694 23.4305 16.206 23.4352C16.0427 23.4399 15.8653 23.4002 15.716 23.3629C15.5667 23.3279 15.4476 23.2952 15.3403 23.3022C15.233 23.3092 15.135 23.3582 15.0393 23.3979C14.9436 23.4375 14.8479 23.4702 14.7196 23.4772C14.5913 23.4842 14.4302 23.4702 14.3136 23.4282C14.1969 23.3885 14.1246 23.3232 14.1082 23.3769C14.0919 23.4282 14.1316 23.5986 14.1316 23.7666C14.1316 23.9346 14.0919 24.1026 13.9985 24.2473C13.9052 24.3919 13.7629 24.5109 13.5412 24.5926C13.3218 24.672 13.0232 24.714 12.8248 24.7443C12.6241 24.777 12.5191 24.8003 12.4118 24.861C12.3044 24.9216 12.1901 25.0173 12.0594 25.05C11.9264 25.0826 11.7747 25.05 11.6744 25.0336C11.5741 25.0173 11.5251 25.0173 11.4901 25.0173C11.455 25.0173 11.4294 25.0173 11.406 25.057C11.3827 25.0966 11.357 25.1783 11.3827 25.2973C11.406 25.4187 11.4784 25.5773 11.5111 25.7664C11.5437 25.9554 11.5344 26.1701 11.5601 26.3707C11.5834 26.5714 11.6394 26.7558 11.7211 26.9471C11.8004 27.1385 11.9054 27.3391 12.0501 27.5888C12.1948 27.8385 12.3791 28.1348 12.5355 28.3332C12.6918 28.5339 12.8201 28.6389 12.9111 28.7789C13.0045 28.9189 13.0605 29.0962 13.0628 29.2713C13.0675 29.4486 13.0185 29.6236 12.9578 29.724C12.8971 29.8243 12.8248 29.8476 12.7898 29.9246C12.7548 30.0016 12.7548 30.13 12.7688 30.2933C12.7851 30.4567 12.8178 30.6573 12.7688 30.8744C12.7198 31.0914 12.5915 31.3224 12.5121 31.5114C12.4328 31.7004 12.4001 31.8451 12.2764 31.9641C12.1528 32.0854 11.9357 32.1811 11.7234 32.2255C11.5111 32.2698 11.3034 32.2605 11.063 32.4145C10.8227 32.5661 10.5497 32.8788 10.181 33.2685C9.81227 33.6582 9.34791 34.1226 9.11456 34.4259C8.88121 34.7316 8.88121 34.874 8.97922 35.0793C9.07489 35.2847 9.26857 35.5483 9.44825 35.8237C9.62793 36.1014 9.79594 36.3884 9.84027 36.7524C9.88461 37.1164 9.80527 37.5575 9.75627 37.8958C9.70727 38.2318 9.69327 38.4652 9.76794 38.7219C9.84494 38.9786 10.013 39.2586 10.293 39.5246C10.573 39.7883 10.9673 40.038 11.2707 40.269C11.5764 40.5023 11.7911 40.717 11.9194 40.962C12.0478 41.207 12.0874 41.4801 12.1924 41.7274C12.2974 41.9748 12.4654 42.2011 12.6848 42.3575C12.9041 42.5138 13.1772 42.6025 13.5785 42.6375C13.9799 42.6725 14.5072 42.6585 15.0323 42.6655C15.5573 42.6725 16.0777 42.7051 16.4067 42.7261C16.7357 42.7471 16.8711 42.7541 16.9597 42.7985C17.0484 42.8428 17.0881 42.9222 17.1604 42.9665C17.2328 43.0108 17.3378 43.0178 17.4358 43.0155C17.5361 43.0108 17.6318 42.9945 17.6878 43.0668C17.7438 43.1392 17.7601 43.3002 17.7555 43.4192C17.7508 43.5405 17.7275 43.6199 17.5758 43.6432C17.4241 43.6665 17.1441 43.6362 16.3624 43.6385C15.5807 43.6432 14.2972 43.6829 13.4198 43.6059C12.5425 43.5289 12.0688 43.3375 11.7771 43.1088C11.4854 42.8802 11.3734 42.6165 11.2637 42.3318C11.1564 42.0471 11.0514 41.7437 10.867 41.4824C10.6827 41.221 10.419 41.0064 10.1413 40.7964C9.86594 40.5887 9.57659 40.388 9.34791 40.1546C9.11923 39.9213 8.95122 39.6576 8.85088 39.4009C8.75054 39.1442 8.71787 38.8969 8.70387 38.6355C8.68753 38.3742 8.68753 38.1035 8.7202 37.8748C8.75287 37.6461 8.81587 37.4618 8.83221 37.2821C8.84854 37.1024 8.81587 36.9251 8.70853 36.6894C8.60119 36.4537 8.41685 36.1574 8.26051 36.001C8.10416 35.8447 7.97582 35.8284 7.83114 35.945C7.68647 36.0617 7.52546 36.3091 7.46245 36.5634C7.39945 36.8154 7.42978 37.0721 7.45078 37.4291C7.47179 37.7861 7.47879 38.2435 7.53012 38.5142C7.58146 38.7872 7.67947 38.8759 7.77981 39.0509C7.88015 39.2282 7.98515 39.4919 7.99915 39.7043C8.01549 39.9166 7.94315 40.0776 7.77047 40.1686C7.59779 40.262 7.32478 40.2853 7.1381 40.241C6.94908 40.1966 6.84641 40.0846 6.7484 40.0286C6.65273 39.9726 6.56406 39.9726 6.44272 40.0216C6.32138 40.0706 6.1697 40.1663 6.09736 40.374C6.02502 40.5817 6.03436 40.9037 5.97602 41.1674C5.92002 41.4311 5.79868 41.6411 5.703 41.7881C5.60733 41.9374 5.53499 42.0238 5.42998 42.0774C5.32498 42.1288 5.18964 42.1451 5.1103 42.2011C5.03096 42.2571 5.00529 42.3528 5.01929 42.4461C5.03096 42.5395 5.07996 42.6258 5.19197 42.8102C5.30398 42.9945 5.48132 43.2745 5.64467 43.4845C5.80801 43.6922 5.96202 43.8299 6.08569 43.9022C6.20937 43.9746 6.30504 43.9816 6.35871 44.0376C6.41005 44.0936 6.41938 44.1986 6.49405 44.2942C6.57106 44.3899 6.7134 44.4786 6.83474 44.5346C6.95609 44.5906 7.05176 44.6139 7.11243 44.6793C7.1731 44.7423 7.19643 44.8473 7.2361 44.9126C7.27577 44.9756 7.33178 45.0013 7.39711 45.0176C7.46012 45.034 7.53246 45.041 7.58846 45.0013C7.64446 44.9616 7.68413 44.873 7.79614 44.8286C7.90815 44.7843 8.09249 44.7843 8.26517 44.7796C8.43785 44.7749 8.59886 44.7679 8.68287 44.8636C8.76687 44.9593 8.77621 45.16 8.81121 45.349C8.84621 45.538 8.91155 45.713 8.92322 45.8507C8.93488 45.986 8.89521 46.084 8.81354 46.098C8.73187 46.112 8.60586 46.0444 8.50319 45.9837C8.39818 45.923 8.31417 45.8717 8.22084 45.8927C8.1275 45.9137 8.02249 46.0047 7.88715 46.07C7.7518 46.1354 7.58846 46.1774 7.40645 46.1914C7.22444 46.2054 7.02376 46.1914 6.88375 46.126C6.74374 46.0584 6.6644 45.9347 6.59439 45.839C6.52672 45.7457 6.47072 45.6803 6.39371 45.65C6.31671 45.6197 6.22104 45.6243 6.1207 45.601C6.02036 45.5777 5.91535 45.524 5.82668 45.4423C5.73567 45.3607 5.661 45.2486 5.57699 45.1226C5.49299 44.999 5.39965 44.8613 5.34365 44.7609C5.28531 44.6583 5.26197 44.5906 5.1943 44.5206C5.12897 44.4506 5.01929 44.3783 4.93995 44.3012C4.86061 44.2242 4.80694 44.1379 4.76494 44.0446C4.72294 43.9512 4.69027 43.8462 4.6366 43.7762C4.58293 43.7062 4.50592 43.6712 4.42192 43.6269C4.33791 43.5849 4.24457 43.5359 4.1489 43.4099C4.05323 43.2838 3.95289 43.0785 3.90855 42.8265C3.86422 42.5745 3.87588 42.2734 3.94122 42.0401C4.00422 41.8067 4.1209 41.6434 4.25391 41.4941C4.38692 41.3447 4.53393 41.207 4.65293 41.1044C4.77194 40.9994 4.85828 40.927 4.90728 40.8477C4.95629 40.7683 4.96329 40.6797 4.95629 40.5607C4.94929 40.4417 4.93062 40.2946 4.94229 40.178C4.95395 40.0613 4.99829 39.9773 5.14063 39.8139C5.28298 39.6506 5.52332 39.4056 5.73334 39.1979C5.94335 38.9926 6.12536 38.8222 6.2257 38.6799C6.32838 38.5375 6.35171 38.4209 6.36338 38.2015C6.37505 37.9822 6.37505 37.6555 6.35638 37.3358C6.33538 37.0161 6.29571 36.6987 6.31438 36.4701C6.33304 36.2414 6.40772 36.1014 6.59439 35.8797C6.78107 35.658 7.07743 35.3523 7.42512 34.937C7.77281 34.5216 8.1695 33.9966 8.6642 33.4389C9.1589 32.8788 9.7516 32.2861 10.1203 31.9128C10.489 31.5394 10.6337 31.3877 10.7807 31.2921C10.9277 31.1964 11.0747 31.1567 11.2054 31.1404C11.336 31.124 11.448 31.1334 11.5437 31.1077C11.6394 31.0844 11.7211 31.0284 11.7491 30.9327C11.7771 30.8394 11.7537 30.7064 11.7374 30.5803C11.7211 30.4543 11.7141 30.333 11.6744 30.207C11.6371 30.081 11.5671 29.948 11.5251 29.8383C11.4807 29.7286 11.462 29.6399 11.4901 29.5326C11.5204 29.4253 11.5997 29.3016 11.6184 29.1849C11.6371 29.0659 11.5927 28.9539 11.5461 28.8652C11.4994 28.7766 11.4527 28.7136 11.3827 28.6132C11.3127 28.5129 11.2194 28.3775 11.147 28.2375C11.0724 28.0975 11.0164 27.9528 10.9837 27.8175C10.9487 27.6822 10.937 27.5538 10.8997 27.4628C10.8623 27.3718 10.797 27.3205 10.748 27.2225C10.699 27.1245 10.6617 26.9798 10.6383 26.8654C10.615 26.7511 10.6033 26.6671 10.5567 26.5784C10.51 26.4897 10.4306 26.3987 10.3933 26.2844C10.3583 26.1701 10.3653 26.0347 10.3746 25.9087C10.384 25.7827 10.3956 25.666 10.3536 25.5283C10.3116 25.3907 10.216 25.2297 10.2043 25.0616C10.1926 24.8936 10.265 24.7163 10.377 24.5296C10.489 24.3429 10.6407 24.1469 10.7853 24.0419C10.93 23.9369 11.0654 23.9252 11.2194 23.9299C11.3734 23.9346 11.5461 23.9532 11.7024 23.9556C11.8587 23.9556 11.9988 23.9416 12.1598 23.9042C12.3208 23.8669 12.5005 23.8062 12.6381 23.7572C12.7758 23.7082 12.8715 23.6732 12.9251 23.6196C12.9765 23.5659 12.9858 23.4935 12.9765 23.3815C12.9695 23.2695 12.9438 23.1179 12.9555 22.9848C12.9648 22.8518 13.0092 22.7398 13.1282 22.6348C13.2472 22.5275 13.4385 22.4271 13.6299 22.3875C13.8212 22.3478 14.0079 22.3665 14.2039 22.3968C14.3976 22.4271 14.5983 22.4668 14.7383 22.4621C14.8783 22.4575 14.9576 22.4108 15.0229 22.3595C15.086 22.3105 15.135 22.2568 15.261 22.2568C15.387 22.2568 15.5923 22.3081 15.793 22.3361C15.996 22.3641 16.1967 22.3688 16.3507 22.3081C16.5047 22.2475 16.6144 22.1238 16.7544 22.0701C16.8944 22.0164 17.0671 22.0328 17.2771 22.0818C17.4871 22.1308 17.7368 22.2171 17.9515 22.2731C18.1662 22.3291 18.3458 22.3571 18.4905 22.3898C18.6352 22.4225 18.7425 22.4575 18.9012 22.4785C19.0599 22.4995 19.2676 22.5018 19.4636 22.4715C19.6596 22.4388 19.8439 22.3711 20.0773 22.3361C20.3106 22.3011 20.5953 22.3011 20.81 22.2778C21.0247 22.2545 21.1694 22.2055 21.125 22.3898" fill="white"/>
<path fill-rule="evenodd" clip-rule="evenodd" d="M64.2713 29.1032C64.416 29.0496 64.7614 29.0332 64.962 29.1032C65.1627 29.1709 65.2187 29.3226 65.2397 29.4556C65.2607 29.5886 65.2444 29.7006 65.3027 29.7893C65.3634 29.878 65.4987 29.941 65.5874 29.9666C65.6761 29.99 65.7157 29.9736 65.7601 30.0273C65.8044 30.0786 65.8534 30.2 65.9491 30.3563C66.0448 30.5127 66.1894 30.704 66.3948 30.8697C66.6001 31.033 66.8638 31.1707 67.0762 31.3224C67.2885 31.4741 67.4495 31.6421 67.5452 31.6584C67.6409 31.6748 67.6735 31.5371 67.6945 31.4134C67.7155 31.2897 67.7225 31.1777 67.8065 31.1171C67.8906 31.0564 68.0516 31.0494 68.1986 31.082C68.3479 31.1147 68.4833 31.1871 68.6186 31.2337C68.7539 31.2827 68.8916 31.3061 69.0596 31.3224C69.2276 31.3387 69.4283 31.3457 69.6197 31.3457C69.811 31.3457 69.9954 31.3387 70.133 31.3807C70.2684 31.4251 70.3571 31.5207 70.4014 31.6024C70.4457 31.6818 70.4457 31.7471 70.5624 31.8194C70.6791 31.8918 70.9101 31.9711 71.0804 32.0318C71.2484 32.0924 71.3534 32.1321 71.4328 32.1531C71.5121 32.1741 71.5681 32.1741 71.6101 32.1088C71.6498 32.0458 71.6731 31.9174 71.7268 31.8521C71.7781 31.7891 71.8598 31.7891 72.0068 31.8171C72.1562 31.8451 72.3709 31.9011 72.5155 32.0014C72.6602 32.1018 72.7325 32.2465 72.7605 32.3585C72.7885 32.4705 72.7722 32.5498 72.9122 32.5918C73.0522 32.6315 73.3486 32.6315 73.5493 32.6315C73.7499 32.6315 73.8526 32.6315 74.0066 32.7202C74.1583 32.8088 74.359 32.9838 74.527 33.0818C74.695 33.1775 74.8327 33.1939 74.9517 33.1589C75.073 33.1238 75.1757 33.0352 75.2877 32.9675C75.3997 32.8998 75.5211 32.8508 75.6611 32.8322C75.8011 32.8112 75.9621 32.8205 76.1184 32.9558C76.2748 33.0912 76.4311 33.3525 76.4661 33.5952C76.5011 33.8402 76.4194 34.0666 76.4474 34.2229C76.4754 34.3793 76.6131 34.4609 76.6808 34.6943C76.7485 34.9276 76.7485 35.308 76.6621 35.6557C76.5781 36.0034 76.4101 36.3161 76.3098 36.5284C76.2094 36.7408 76.1768 36.8528 76.1184 36.9368C76.0578 37.0208 75.9691 37.0768 75.8711 37.1258C75.7707 37.1748 75.6587 37.2144 75.5934 37.2611C75.5304 37.3101 75.5141 37.3661 75.6331 37.3965C75.7544 37.4291 76.0088 37.4361 76.2141 37.4875C76.4194 37.5388 76.5711 37.6368 76.6551 37.8492C76.7391 38.0615 76.7555 38.3905 76.6225 38.5819C76.4895 38.7732 76.2094 38.8292 76.0344 38.8712C75.8571 38.9109 75.7871 38.9342 75.7567 39.0159C75.7287 39.0952 75.7451 39.2329 75.8454 39.3683C75.9458 39.5036 76.1301 39.6413 76.2211 39.8256C76.3121 40.01 76.3121 40.2433 76.3844 40.3787C76.4568 40.514 76.6015 40.556 76.6645 40.6563C76.7298 40.7567 76.7135 40.9177 76.7088 41.186C76.7041 41.4544 76.7135 41.8324 76.7321 42.0914C76.7531 42.3528 76.7835 42.4951 76.7718 42.7005C76.7601 42.9058 76.7041 43.1695 76.6271 43.3305C76.5501 43.4915 76.4545 43.5475 76.4428 43.6432C76.4311 43.7389 76.5035 43.8766 76.5548 44.0329C76.6061 44.1892 76.6388 44.3666 76.6061 44.4973C76.5735 44.6303 76.4778 44.7166 76.3331 44.7703C76.1884 44.8216 75.9971 44.838 75.6191 44.8473C75.2434 44.8543 74.681 44.8543 74.2563 44.8683C73.8316 44.88 73.5423 44.9033 73.2996 44.957C73.0546 45.0083 72.8539 45.09 72.7629 45.2463C72.6695 45.4027 72.6859 45.636 72.6462 45.7947C72.6065 45.9557 72.5109 46.0444 72.4222 46.112C72.3335 46.1797 72.2542 46.2287 72.1982 46.3197C72.1422 46.4131 72.1095 46.5484 72.0255 46.6324C71.9415 46.7164 71.8061 46.7491 71.7081 46.7374C71.6125 46.7257 71.5565 46.6697 71.5191 46.5601C71.4841 46.4527 71.4678 46.2917 71.4398 46.1424C71.4118 45.993 71.3721 45.8577 71.3511 45.6943C71.3301 45.531 71.3301 45.3373 71.3511 45.1763C71.3721 45.0153 71.4118 44.887 71.4911 44.7516C71.5705 44.6163 71.6918 44.4716 71.8481 44.3479C72.0045 44.2242 72.1958 44.1192 72.5132 44.0446C72.8305 43.9676 73.2716 43.9209 73.6473 43.8929C74.023 43.8649 74.3356 43.8579 74.597 43.8439C74.8583 43.8322 75.066 43.8159 75.1734 43.7155C75.2807 43.6152 75.29 43.4309 75.2947 43.2815C75.2994 43.1322 75.2994 43.0202 75.3507 42.9245C75.4021 42.8288 75.5071 42.7471 75.5631 42.6398C75.6191 42.5325 75.6284 42.3948 75.5864 42.2501C75.5467 42.1054 75.4581 41.9538 75.4301 41.7461C75.402 41.5384 75.4347 41.2724 75.4091 41.0367C75.3857 40.801 75.304 40.591 75.1967 40.4603C75.0894 40.3273 74.9517 40.2713 74.849 40.1803C74.744 40.087 74.6717 39.9586 74.6367 39.8513C74.6017 39.7439 74.6017 39.6553 74.5877 39.5503C74.576 39.4453 74.5527 39.3263 74.3963 39.3426C74.24 39.3589 73.9506 39.5106 73.6263 39.7276C73.3019 39.9446 72.9402 40.2246 72.6649 40.6423C72.3872 41.06 72.1958 41.6131 71.9392 42.0728C71.6825 42.5348 71.3628 42.9035 71.0058 43.1998C70.6487 43.4962 70.2567 43.7202 69.6197 43.9092C68.9826 44.0982 68.1006 44.2499 67.2628 44.3106C66.4251 44.3713 65.6317 44.3386 65.0064 44.2499C64.381 44.1612 63.9236 44.0166 63.5923 43.8929C63.2586 43.7692 63.0509 43.6642 63.0229 43.5965C62.9949 43.5289 63.1466 43.4962 63.2913 43.3749C63.4359 43.2535 63.5713 43.0458 63.7276 42.9455C63.884 42.8452 64.0613 42.8522 64.3413 42.8965C64.6213 42.9408 65.0064 43.0202 65.4824 43.0645C65.9584 43.1088 66.5278 43.1158 67.1252 43.0528C67.7225 42.9898 68.3479 42.8522 68.8963 42.6795C69.4447 42.5068 69.9184 42.2991 70.2917 42.0261C70.6651 41.7531 70.9381 41.4171 71.1621 41.067C71.3861 40.7193 71.5635 40.3577 71.7105 40.052C71.8598 39.7463 71.9788 39.4989 72.2005 39.2586C72.4199 39.0182 72.7419 38.7849 73.0429 38.6122C73.3439 38.4395 73.6239 38.3275 73.8876 38.2388C74.1513 38.1502 74.401 38.0872 74.5363 38.0382C74.6717 37.9892 74.6973 37.9588 74.6483 37.8865C74.5993 37.8142 74.4803 37.7021 74.415 37.5621C74.352 37.4221 74.3426 37.2541 74.359 37.1048C74.3753 36.9554 74.415 36.8294 74.464 36.7408C74.513 36.6521 74.569 36.6054 74.6437 36.5681C74.7207 36.5331 74.8163 36.5074 74.9004 36.4794C74.9844 36.4514 75.0567 36.4187 75.1057 36.3557C75.1547 36.2904 75.178 36.1947 75.1897 36.1037C75.2014 36.0104 75.2014 35.924 75.2854 35.8517C75.3694 35.7794 75.5374 35.7234 75.6214 35.616C75.7054 35.5087 75.7054 35.3477 75.6424 35.2147C75.5794 35.0816 75.4511 34.979 75.3694 34.874C75.29 34.769 75.2574 34.6663 75.178 34.6056C75.0987 34.5449 74.9704 34.5286 74.8723 34.5216C74.7767 34.5146 74.7113 34.5146 74.6483 34.4703C74.5853 34.4259 74.52 34.3373 74.429 34.2789C74.338 34.2183 74.2166 34.1856 74.1163 34.2066C74.016 34.2276 73.9366 34.2999 73.8199 34.3023C73.7033 34.3069 73.5516 34.2416 73.4629 34.1459C73.3743 34.0502 73.3509 33.9219 73.2902 33.8332C73.2296 33.7446 73.1339 33.6979 72.9986 33.7002C72.8632 33.7049 72.6859 33.7609 72.5249 33.7562C72.3638 33.7516 72.2192 33.6886 72.1002 33.5999C71.9788 33.5112 71.8832 33.3992 71.7245 33.3549C71.5635 33.3105 71.3394 33.3339 71.1341 33.3269C70.9288 33.3199 70.7444 33.2779 70.5531 33.2149C70.3617 33.1518 70.161 33.0632 69.9954 32.9908C69.832 32.9185 69.7037 32.8625 69.6337 32.7902C69.566 32.7178 69.5567 32.6291 69.4703 32.5941C69.3817 32.5591 69.2136 32.5731 69.0503 32.6105C68.887 32.6478 68.7259 32.7038 68.6303 32.7715C68.5346 32.8392 68.5019 32.9208 68.4459 32.9885C68.3899 33.0562 68.3106 33.1122 68.1776 33.1495C68.0446 33.1845 67.8602 33.2009 67.6852 33.1822C67.5079 33.1612 67.3399 33.1052 67.1952 33.0048C67.0505 32.9045 66.9315 32.7598 66.7705 32.6525C66.6095 32.5451 66.4088 32.4728 66.2244 32.3888C66.0401 32.3048 65.8721 32.2091 65.8161 32.0808C65.7601 31.9524 65.8161 31.7914 65.8394 31.6397C65.8628 31.4881 65.8558 31.3434 65.8138 31.1661C65.7718 30.9887 65.6994 30.781 65.5221 30.5687C65.3447 30.3563 65.067 30.1393 64.8337 29.9363C64.6003 29.7333 64.4137 29.5443 64.2947 29.4043C64.1733 29.2643 64.1196 29.1733 64.2667 29.1196" fill="white"/>
<path fill-rule="evenodd" clip-rule="evenodd" d="M12.6732 46.6067C13.2239 46.5787 14.4023 46.5787 15.0184 46.6231C15.6344 46.6674 15.6858 46.7561 15.7441 46.8424C15.8024 46.9311 15.8654 47.0198 15.9168 47.0804C15.9658 47.1434 16.0031 47.1784 16.0591 47.1738C16.1151 47.1668 16.1921 47.1201 16.3251 47.0384C16.4605 46.9591 16.6518 46.8471 16.9108 46.7887C17.1699 46.7304 17.4942 46.7257 18.2269 46.7234C18.9596 46.7234 20.103 46.7234 20.6748 46.7467C21.2465 46.7724 21.2465 46.8237 21.1648 46.8728C21.0854 46.9218 20.9244 46.9661 20.7121 47.0151C20.4997 47.0641 20.2361 47.1201 20.026 47.1621C19.8184 47.2018 19.6644 47.2251 19.452 47.2274C19.2373 47.2274 18.962 47.2088 18.724 47.2204C18.4883 47.2298 18.2899 47.2694 18.1336 47.3418C17.9749 47.4141 17.8559 47.5191 17.7229 47.6031C17.5899 47.6871 17.4452 47.7525 17.2749 47.8295C17.1022 47.9088 16.9015 47.9998 16.6425 48.0768C16.3811 48.1538 16.0614 48.2122 15.8211 48.1982C15.5807 48.1818 15.4197 48.0908 15.2634 47.9718C15.1071 47.8528 14.9554 47.7081 14.8387 47.5821C14.722 47.4538 14.6427 47.3418 14.547 47.2391C14.4537 47.1364 14.344 47.0454 14.225 46.9684C14.1037 46.8914 13.973 46.8331 13.847 46.8307C13.721 46.8307 13.5996 46.8844 13.4759 46.9358C13.3523 46.9848 13.2239 47.0291 13.0816 47.0291C12.9392 47.0291 12.7829 46.9848 12.6476 46.9311C12.5122 46.8774 12.3955 46.8121 12.2999 46.7537C12.2042 46.6931 12.1272 46.6371 12.6779 46.6091" fill="white"/>
<path fill-rule="evenodd" clip-rule="evenodd" d="M32.7948 56.139C32.8112 56.16 32.7995 56.258 32.8998 56.3444C33.0002 56.433 33.2125 56.5124 33.3875 56.503C33.5626 56.4937 33.7026 56.3934 33.8496 56.3514C33.9966 56.307 34.1483 56.3187 34.2556 56.377C34.3629 56.4354 34.4213 56.5381 34.4959 56.5941C34.5706 56.6477 34.6593 56.6524 34.762 56.6431C34.867 56.6361 34.986 56.6151 35.0933 56.5707C35.2007 56.5264 35.2917 56.4587 35.385 56.4564C35.4783 56.4564 35.5764 56.5194 35.6487 56.5614C35.7234 56.6034 35.7747 56.6244 35.868 56.5987C35.959 56.5754 36.0921 56.5077 36.1831 56.4657C36.2741 56.426 36.3207 56.4144 36.4187 56.4377C36.5168 56.461 36.6661 56.5217 36.7361 56.5824C36.8061 56.6431 36.7991 56.7037 36.7921 56.7737C36.7851 56.8461 36.7828 56.9301 36.8271 57.0118C36.8738 57.0934 36.9694 57.1751 37.0745 57.2241C37.1818 57.2731 37.2961 57.2941 37.4081 57.3268C37.5178 57.3594 37.6228 57.4038 37.6858 57.4621C37.7488 57.5228 37.7745 57.5975 37.7372 57.7421C37.7022 57.8868 37.6042 58.0992 37.5015 58.2415C37.3965 58.3838 37.2845 58.4562 37.1678 58.5098C37.0511 58.5635 36.9321 58.6009 36.8061 58.5939C36.6801 58.5869 36.5471 58.5402 36.4234 58.5052C36.2997 58.4702 36.1831 58.4515 36.1061 58.4748C36.029 58.4982 35.994 58.5659 35.9544 58.6382C35.9147 58.7082 35.8704 58.7805 35.84 58.8482C35.8097 58.9159 35.7934 58.9812 35.84 59.0699C35.8867 59.1609 35.994 59.2752 36.0057 59.3639C36.0174 59.4526 35.9334 59.5132 35.847 59.4899C35.7607 59.4689 35.672 59.3639 35.5857 59.2752C35.497 59.1866 35.4083 59.1142 35.2917 59.0956C35.1727 59.0746 35.0257 59.1072 34.902 59.1562C34.7783 59.2052 34.678 59.2682 34.615 59.3382C34.552 59.4082 34.5286 59.4852 34.5029 59.5716C34.4773 59.6579 34.4493 59.7536 34.4399 60.0336C34.4329 60.3113 34.4446 60.7733 34.4189 61.0347C34.3956 61.2984 34.3349 61.3614 34.2533 61.352C34.1716 61.3427 34.0666 61.2587 33.9802 61.212C33.8939 61.1654 33.8262 61.1584 33.7469 61.1537C33.6699 61.149 33.5812 61.149 33.4645 61.2027C33.3479 61.254 33.2032 61.359 33.0702 61.4197C32.9348 61.4804 32.8112 61.4967 32.7015 61.5504C32.5918 61.604 32.4961 61.6974 32.3585 61.7651C32.2231 61.8327 32.0458 61.8771 31.8988 61.8747C31.7518 61.8747 31.6374 61.8257 31.5581 61.8444C31.4788 61.8654 31.4391 61.9517 31.3667 62.0077C31.2944 62.0638 31.1894 62.0871 31.1241 62.1431C31.0587 62.1968 31.0307 62.2808 30.9771 62.2994C30.9257 62.3181 30.8487 62.2691 30.7437 62.2201C30.6387 62.1711 30.508 62.1244 30.4007 62.0684C30.2933 62.0124 30.214 61.9471 30.1697 61.8911C30.1253 61.8327 30.1183 61.7814 30.1767 61.7417C30.2373 61.7044 30.3657 61.6787 30.4777 61.6577C30.5897 61.6367 30.6854 61.6157 30.7414 61.5784C30.7974 61.5411 30.8137 61.485 30.823 61.4034C30.8324 61.324 30.837 61.219 30.8744 61.1024C30.9117 60.9857 30.9841 60.8573 31.0401 60.7337C31.0961 60.61 31.1357 60.4886 31.1567 60.3883C31.1777 60.288 31.1777 60.2086 31.2127 60.1036C31.2477 59.9986 31.3201 59.8703 31.4974 59.7909C31.6748 59.7116 31.9548 59.6789 32.0948 59.6323C32.2348 59.5856 32.2348 59.5249 32.2301 59.4386C32.2255 59.3499 32.2185 59.2332 32.2138 59.1376C32.2091 59.0419 32.2091 58.9649 32.2278 58.8972C32.2465 58.8295 32.2815 58.7689 32.3561 58.7385C32.4308 58.7082 32.5428 58.7082 32.6292 58.6849C32.7155 58.6615 32.7762 58.6125 32.8345 58.5845C32.8952 58.5565 32.9558 58.5495 33.0002 58.5168C33.0469 58.4842 33.0772 58.4282 33.0889 58.3185C33.0982 58.2088 33.0889 58.0431 33.0819 57.8985C33.0749 57.7538 33.0749 57.6301 33.1169 57.5204C33.1565 57.4108 33.2382 57.3151 33.2849 57.2171C33.3339 57.1214 33.3479 57.0258 33.3502 56.9767C33.3502 56.9277 33.3409 56.9277 33.2662 56.8904C33.1915 56.8531 33.0562 56.7761 32.9488 56.7061C32.8415 56.6361 32.7668 56.5707 32.7272 56.4914C32.6875 56.412 32.6828 56.314 32.7038 56.2417C32.7248 56.167 32.7668 56.1157 32.7832 56.1367M52.3658 57.9428C52.4405 57.8588 52.5805 57.9498 52.6878 57.9801C52.7952 58.0105 52.8722 57.9801 52.9258 57.9941C52.9795 58.0105 53.0122 58.0735 53.0565 58.1505C53.1008 58.2275 53.1568 58.3138 53.2292 58.3675C53.3015 58.4188 53.3902 58.4352 53.4789 58.4445C53.5699 58.4515 53.6609 58.4515 53.7659 58.4305C53.8709 58.4095 53.9852 58.3652 54.0949 58.3488C54.2022 58.3325 54.3026 58.3442 54.3749 58.3908C54.4473 58.4375 54.4916 58.5168 54.5149 58.6242C54.5383 58.7315 54.5429 58.8692 54.5406 58.9439C54.5406 59.0209 54.5313 59.0372 54.5406 59.0792C54.5523 59.1236 54.5849 59.1959 54.6293 59.2636C54.6736 59.3312 54.7296 59.3966 54.802 59.4386C54.8743 59.4806 54.963 59.5016 55.0726 59.5039C55.1823 59.5086 55.3153 59.4969 55.3947 59.4806C55.474 59.4642 55.502 59.4456 55.5697 59.4736C55.635 59.5039 55.74 59.5833 55.8474 59.6486C55.9547 59.7116 56.0667 59.7606 56.1834 59.7886C56.3001 59.8166 56.4191 59.8236 56.5357 59.8493C56.6524 59.8726 56.7644 59.9146 56.8764 59.9799C56.9884 60.0453 57.1004 60.1386 57.1448 60.2226C57.1891 60.3066 57.1658 60.3836 57.1121 60.442C57.0608 60.5026 56.9791 60.547 56.9394 60.61C56.8998 60.673 56.8998 60.7593 56.9114 60.918C56.9231 61.079 56.9464 61.3147 57.0164 61.478C57.0841 61.6414 57.1961 61.7347 57.3641 61.7791C57.5321 61.8234 57.7561 61.8187 57.9615 61.8327C58.1668 61.8467 58.3512 61.8794 58.5169 61.9354C58.6825 61.9914 58.8319 62.0708 58.9462 62.1314C59.0606 62.1921 59.1399 62.2318 59.2099 62.2528C59.2776 62.2738 59.3336 62.2738 59.3196 62.2971C59.3056 62.3204 59.2216 62.3694 59.1562 62.4511C59.0932 62.5328 59.0489 62.6495 59.0069 62.7708C58.9649 62.8921 58.9252 63.0158 58.8739 63.0671C58.8249 63.1185 58.7642 63.0998 58.7222 63.0928C58.6802 63.0858 58.6569 63.0928 58.6265 63.1092C58.5962 63.1232 58.5612 63.1442 58.4959 63.1932C58.4329 63.2422 58.3395 63.3238 58.2648 63.4312C58.1902 63.5385 58.1342 63.6762 58.0408 63.7509C57.9475 63.8279 57.8145 63.8442 57.6931 63.8349C57.5718 63.8279 57.4598 63.7952 57.3781 63.7835C57.2988 63.7719 57.2498 63.7789 57.1751 63.8209C57.1004 63.8605 57.0001 63.9329 56.8694 63.9935C56.7387 64.0542 56.5801 64.1009 56.4541 64.1289C56.3304 64.1546 56.2417 64.1592 56.167 64.2176C56.0924 64.2759 56.0317 64.3879 55.9174 64.4789C55.8007 64.5699 55.628 64.6376 55.4717 64.7403C55.3153 64.8429 55.1753 64.9783 55.0656 65.1276C54.956 65.277 54.8743 65.4356 54.802 65.5873C54.7273 65.7367 54.6596 65.879 54.5826 65.9863C54.5056 66.0937 54.4216 66.1707 54.3493 66.2197C54.2746 66.2687 54.2116 66.2874 54.1532 66.341C54.0949 66.3924 54.0436 66.4764 53.9316 66.5627C53.8196 66.6491 53.6469 66.7377 53.4625 66.7797C53.2782 66.8217 53.0822 66.8171 52.8745 66.7797C52.6691 66.7424 52.4521 66.6701 52.3261 66.5977C52.2001 66.5254 52.1628 66.453 52.1371 66.362C52.1114 66.2687 52.0951 66.1567 52.0881 65.97C52.0811 65.781 52.0881 65.5173 52.1161 65.312C52.1464 65.1066 52.2024 64.9643 52.2468 64.8896C52.2911 64.8149 52.3238 64.8126 52.3331 64.6843C52.3425 64.5559 52.3331 64.3039 52.3191 64.0892C52.3075 63.8745 52.2958 63.6995 52.2701 63.5455C52.2445 63.3938 52.2048 63.2655 52.0531 63.0975C51.9038 62.9318 51.6424 62.7265 51.4464 62.5934C51.2504 62.4581 51.1174 62.3951 50.947 62.3578C50.7767 62.3204 50.569 62.3088 50.4197 62.3064C50.2703 62.3064 50.184 62.3134 50.0136 62.1828C49.8433 62.0521 49.5913 61.7837 49.3836 61.6181C49.1782 61.4524 49.0172 61.387 48.8026 61.3427C48.5879 61.2984 48.3195 61.275 48.2962 61.2307C48.2729 61.1864 48.4922 61.1234 48.6462 60.9857C48.8002 60.8503 48.8889 60.6403 49.0312 60.477C49.1736 60.3136 49.3696 60.1923 49.5329 60.1013C49.6963 60.0103 49.8246 59.9519 49.9506 59.9216C50.079 59.8913 50.2073 59.8913 50.3263 59.8703C50.4477 59.8493 50.5597 59.8049 50.66 59.6929C50.7604 59.5833 50.849 59.4059 50.9517 59.2986C51.0567 59.1912 51.1757 59.1492 51.3227 59.1352C51.4697 59.1189 51.6424 59.1282 51.7918 59.1236C51.9411 59.1189 52.0694 59.1026 52.1464 59.0069C52.2234 58.9112 52.2468 58.7339 52.2631 58.5168C52.2795 58.2975 52.2865 58.0385 52.3611 57.9545L52.3658 57.9428ZM59.9706 61.9331C60.05 61.8747 60.204 61.8117 60.3393 61.7884C60.4747 61.7674 60.596 61.7884 60.687 61.7931C60.7803 61.8001 60.8434 61.7931 60.9064 61.7394C60.9694 61.6881 61.0347 61.5901 61.1094 61.4967C61.184 61.4034 61.268 61.31 61.3871 61.2984C61.5061 61.2867 61.6577 61.3544 61.7721 61.3964C61.8864 61.4384 61.9634 61.4547 62.0358 61.45C62.1081 61.4454 62.1758 61.422 62.2411 61.373C62.3041 61.324 62.3648 61.247 62.4255 61.1467C62.4861 61.0464 62.5468 60.9227 62.6308 60.8433C62.7148 60.764 62.8221 60.7337 62.9225 60.7197C63.0228 60.7057 63.1138 60.7103 63.1628 60.799C63.2118 60.89 63.2142 61.065 63.2328 61.2214C63.2515 61.3777 63.2818 61.513 63.2958 61.6344C63.3075 61.7557 63.3005 61.8584 63.2748 61.9424C63.2492 62.0264 63.2048 62.0918 63.1488 62.1314C63.0928 62.1711 63.0252 62.1874 62.9692 62.1921C62.9132 62.1968 62.8688 62.1874 62.8081 62.1711C62.7475 62.1524 62.6728 62.1244 62.6005 62.1198C62.5281 62.1128 62.4605 62.1291 62.3928 62.1548C62.3251 62.1804 62.2574 62.2178 62.1571 62.2178C62.0591 62.2178 61.9308 62.1874 61.8374 62.1688C61.7441 62.1478 61.6834 62.1408 61.6741 62.1688C61.6671 62.1968 61.7091 62.2621 61.7091 62.3181C61.7091 62.3741 61.6647 62.4231 61.6064 62.4301C61.5481 62.4371 61.4757 62.4068 61.4151 62.3531C61.3544 62.3018 61.3077 62.2294 61.2167 62.1804C61.1257 62.1314 60.995 62.1081 60.876 62.0871C60.757 62.0661 60.6543 62.0451 60.4887 62.0474C60.3253 62.0474 60.099 62.0731 59.9916 62.0591C59.8843 62.0451 59.8913 61.9937 59.9706 61.9354V61.9331ZM31.6818 46.9334C32.0738 46.8774 32.9372 46.8774 33.3782 46.9218C33.8192 46.9661 33.8402 47.0548 33.8216 47.2531C33.8029 47.4515 33.7469 47.7595 33.6886 48.0908C33.6302 48.4222 33.5696 48.7745 33.5742 48.9916C33.5789 49.2109 33.6466 49.2949 33.7259 49.3439C33.8052 49.3929 33.8986 49.4093 33.9709 49.4676C34.0433 49.5259 34.0946 49.6263 34.1226 49.6893C34.1506 49.7546 34.1553 49.7826 34.2089 49.7966C34.2626 49.8129 34.3676 49.8176 34.4796 49.8316C34.5916 49.8456 34.713 49.8689 34.8133 49.9249C34.916 49.981 35 50.0696 35.042 50.1583C35.084 50.247 35.084 50.3356 35.0887 50.4827C35.0933 50.632 35.1003 50.8397 35.0957 51.0287C35.091 51.22 35.0747 51.3904 35.1167 51.5327C35.1563 51.6751 35.252 51.7871 35.28 51.8851C35.308 51.9831 35.2683 52.0671 35.301 52.1581C35.336 52.2491 35.4433 52.3448 35.5904 52.4498C35.7374 52.5571 35.9217 52.6715 36.1107 52.7881C36.3021 52.9048 36.4981 53.0215 36.6241 53.1918C36.7501 53.3645 36.8061 53.5932 36.8341 53.7892C36.8621 53.9852 36.8621 54.1509 36.8714 54.3096C36.8808 54.4706 36.9018 54.6269 36.9484 54.7529C36.9951 54.8789 37.0675 54.9746 37.1678 55.0703C37.2681 55.1636 37.3965 55.257 37.5715 55.3713C37.7465 55.4856 37.9658 55.621 38.1315 55.803C38.2972 55.9827 38.4092 56.209 38.4699 56.307C38.5305 56.405 38.5375 56.377 38.5469 56.2767C38.5539 56.1764 38.5632 56.0037 38.6052 55.852C38.6472 55.7003 38.7242 55.5673 38.8549 55.4413C38.9879 55.3153 39.1746 55.194 39.2936 55.082C39.4126 54.9699 39.4593 54.8649 39.5223 54.7903C39.5853 54.7156 39.66 54.6713 39.758 54.6223C39.856 54.5733 39.9773 54.5173 40.115 54.4472C40.2527 54.3796 40.409 54.2979 40.479 54.1929C40.549 54.0856 40.5327 53.9549 40.4837 53.8219C40.4347 53.6889 40.3483 53.5582 40.248 53.4322C40.1453 53.3062 40.0263 53.1848 39.9283 53.0495C39.8326 52.9141 39.7603 52.7601 39.7323 52.5805C39.7043 52.4008 39.7206 52.1908 39.7533 51.9994C39.786 51.8081 39.8326 51.6307 39.933 51.5234C40.0333 51.4184 40.185 51.381 40.346 51.4044C40.507 51.4277 40.675 51.5117 40.7847 51.6424C40.8944 51.7731 40.948 51.9481 41.039 52.1698C41.1324 52.3891 41.2631 52.6551 41.3984 52.8441C41.5337 53.0355 41.6691 53.1498 41.8068 53.1848C41.9444 53.2198 42.0844 53.1708 42.2968 53.1032C42.5068 53.0355 42.7868 52.9468 42.9665 52.9795C43.1439 53.0122 43.2209 53.1638 43.2582 53.2968C43.2932 53.4322 43.2909 53.5465 43.3072 53.6609C43.3235 53.7752 43.3585 53.8872 43.4239 53.8849C43.4869 53.8849 43.5802 53.7659 43.6385 53.6375C43.6969 53.5069 43.7202 53.3622 43.7272 53.1895C43.7342 53.0168 43.7202 52.8161 43.7039 52.6131C43.6852 52.4078 43.6619 52.2001 43.7132 52.0298C43.7646 51.8594 43.8929 51.7264 44.0679 51.6937C44.2429 51.6587 44.4623 51.7241 44.6466 51.8711C44.831 52.0204 44.9803 52.2514 45.0806 52.4451C45.1833 52.6365 45.2393 52.7905 45.2043 52.9188C45.1693 53.0472 45.0456 53.1522 44.971 53.2525C44.8963 53.3528 44.873 53.4485 44.8963 53.5885C44.9196 53.7285 44.992 53.9129 45.1507 54.0552C45.3093 54.1976 45.5543 54.2979 45.8484 54.4286C46.1424 54.5593 46.4877 54.7179 46.6604 54.9163C46.8331 55.1123 46.8331 55.3456 46.7631 55.4926C46.6931 55.642 46.5531 55.705 46.3734 55.7283C46.1961 55.7517 45.979 55.7353 45.79 55.7423C45.601 55.7493 45.4423 55.7773 45.3677 55.8987C45.293 56.02 45.3047 56.237 45.4167 56.3607C45.5263 56.4844 45.7364 56.517 45.867 56.5684C46 56.6197 46.056 56.6921 46.0957 56.7761C46.1354 56.8601 46.1587 56.9557 46.2544 57.0141C46.3477 57.0724 46.5134 57.0934 46.7234 57.0934C46.9334 57.0934 47.1901 57.0724 47.3675 57.0351C47.5448 56.9977 47.6405 56.9417 47.7572 56.9137C47.8738 56.8857 48.0092 56.8857 48.1212 56.8787C48.2332 56.8717 48.3219 56.8601 48.4315 56.8157C48.5412 56.7691 48.6742 56.6897 48.7932 56.6081C48.9146 56.5264 49.0219 56.4424 49.1082 56.363C49.1946 56.286 49.2576 56.2137 49.3696 56.1787C49.4816 56.1437 49.6426 56.1484 49.792 56.2534C49.9413 56.3584 50.0836 56.5614 50.1957 56.6804C50.3077 56.7994 50.3917 56.8297 50.4897 56.8227C50.5877 56.8157 50.6997 56.7667 50.7977 56.6874C50.8957 56.6081 50.9797 56.496 51.059 56.405C51.1384 56.314 51.2154 56.2464 51.2761 56.1787C51.3367 56.111 51.3811 56.0434 51.4534 55.9733C51.5257 55.9033 51.6261 55.831 51.7871 55.789C51.9504 55.747 52.1744 55.7353 52.3471 55.7633C52.5221 55.7913 52.6458 55.859 52.7672 55.8847C52.8885 55.908 53.0098 55.8893 53.0752 55.831C53.1405 55.7727 53.1545 55.677 53.2315 55.6093C53.3085 55.5417 53.4532 55.502 53.5932 55.5136C53.7309 55.5253 53.8639 55.5907 53.9479 55.6607C54.0319 55.7307 54.0692 55.8077 54.1322 55.8637C54.1952 55.9197 54.2886 55.957 54.4613 55.9757C54.6339 55.9967 54.886 55.999 55.1426 56.0014C55.3993 56.0014 55.6607 56.0013 55.887 55.9523C56.1157 55.901 56.3117 55.796 56.4587 55.691C56.6057 55.586 56.7014 55.4763 56.7878 55.3153C56.8741 55.152 56.9511 54.9373 57.0048 54.7856C57.0584 54.6363 57.0911 54.5523 57.1401 54.4519C57.1891 54.3539 57.2591 54.2419 57.3315 54.1719C57.4061 54.1019 57.4855 54.0739 57.5508 54.0506C57.6138 54.0296 57.6628 54.0132 57.7141 53.9922C57.7631 53.9712 57.8168 53.9479 57.8355 53.7962C57.8565 53.6445 57.8425 53.3645 57.8285 53.1848C57.8145 53.0075 57.7981 52.9305 57.8542 52.8511C57.9102 52.7718 58.0385 52.6878 58.1832 52.6761C58.3279 52.6668 58.4865 52.7298 58.5962 52.8325C58.7035 52.9351 58.7595 53.0752 58.8179 53.2362C58.8739 53.3995 58.9299 53.5839 58.9882 53.6935C59.0466 53.8032 59.1072 53.8405 59.1586 53.8405C59.2099 53.8405 59.2542 53.8032 59.3616 53.7029C59.4689 53.6002 59.6369 53.4322 59.8376 53.2455C60.0406 53.0588 60.2763 52.8558 60.512 52.7135C60.7477 52.5735 60.9857 52.4965 61.1957 52.4685C61.4057 52.4405 61.5901 52.4615 61.7511 52.4895C61.9121 52.5198 62.0474 52.5595 62.1408 52.5548C62.2318 52.5501 62.2808 52.5035 62.3368 52.3774C62.3928 52.2514 62.4581 52.0461 62.6168 51.9364C62.7778 51.8267 63.0345 51.8104 63.2772 51.8011C63.5199 51.7941 63.7485 51.7941 63.9282 51.7707C64.1079 51.7497 64.2409 51.7054 64.3903 51.6097C64.5396 51.5164 64.7099 51.3717 64.8313 51.255C64.9526 51.1384 65.0296 51.0497 65.1766 50.9447C65.3236 50.8373 65.5383 50.7137 65.7413 50.6623C65.9444 50.611 66.131 50.6297 66.2734 50.6413C66.4134 50.6507 66.5067 50.6507 66.5697 50.5737C66.6327 50.4967 66.6701 50.3403 66.7284 50.184C66.7867 50.03 66.8661 49.8783 67.0108 49.7406C67.1554 49.6053 67.3631 49.4839 67.5311 49.4559C67.6991 49.4279 67.8275 49.4909 67.9395 49.5096C68.0515 49.5283 68.1472 49.5003 68.2172 49.4233C68.2872 49.3462 68.3315 49.2226 68.4225 49.1619C68.5159 49.1012 68.6559 49.1059 68.7842 49.1292C68.9149 49.1526 69.0339 49.1969 69.1926 49.2226C69.3512 49.2482 69.5473 49.2576 69.6453 49.1946C69.7433 49.1316 69.7433 49.0009 69.7083 48.8352C69.6733 48.6719 69.6009 48.4735 69.5706 48.3055C69.5403 48.1375 69.5519 47.9975 69.6219 47.8505C69.6919 47.7035 69.8203 47.5518 70.021 47.4211C70.2216 47.2904 70.4947 47.1831 70.6533 47.2251C70.8143 47.2671 70.861 47.4585 70.8703 47.6335C70.8773 47.8085 70.847 47.9648 70.882 48.0885C70.917 48.2122 71.022 48.3055 71.0454 48.4945C71.0664 48.6835 71.008 48.9682 70.9567 49.1316C70.9077 49.2949 70.8657 49.3392 70.847 49.4326C70.826 49.5236 70.826 49.6659 70.7677 49.7989C70.7093 49.9343 70.5927 50.0603 70.4316 50.177C70.2683 50.2936 70.0606 50.3986 69.8576 50.415C69.6523 50.4337 69.4539 50.366 69.2952 50.331C69.1366 50.296 69.0199 50.296 68.8682 50.338C68.7165 50.3776 68.5275 50.4593 68.3642 50.5083C68.2008 50.5573 68.0585 50.5783 67.9278 50.639C67.7948 50.6997 67.6711 50.8 67.5265 50.947C67.3818 51.0964 67.2184 51.2924 67.1158 51.4744C67.0131 51.6564 66.9734 51.8244 66.8824 51.9131C66.7914 52.0018 66.6514 52.0088 66.4951 51.9831C66.3387 51.9574 66.166 51.8967 65.991 51.9201C65.816 51.9434 65.634 52.0461 65.4893 52.1838C65.3446 52.3214 65.2373 52.4941 65.1393 52.7041C65.0413 52.9141 64.9526 53.1638 64.8476 53.3178C64.7403 53.4719 64.6166 53.5325 64.4276 53.5419C64.2362 53.5512 63.9796 53.5115 63.8442 53.4765C63.7089 53.4415 63.6925 53.4088 63.6879 53.3295C63.6832 53.2502 63.6925 53.1265 63.6482 53.0425C63.6039 52.9585 63.5082 52.9141 63.4009 52.9071C63.2935 52.9001 63.1792 52.9281 63.0952 52.9842C63.0112 53.0425 62.9598 53.1312 62.9342 53.2198C62.9108 53.3108 62.9132 53.4018 62.8992 53.5232C62.8828 53.6445 62.8478 53.7915 62.7428 53.8499C62.6378 53.9082 62.4651 53.8755 62.2948 53.8429C62.1244 53.8102 61.9564 53.7799 61.8024 53.7332C61.6484 53.6865 61.5084 53.6259 61.3684 53.6352C61.2284 53.6422 61.0884 53.7192 60.8573 53.8989C60.6263 54.0762 60.3066 54.3586 60.029 54.6153C59.7536 54.8719 59.5203 55.1053 59.3453 55.2826C59.1702 55.46 59.0559 55.586 58.9836 55.7307C58.9112 55.8777 58.8832 56.0457 58.7619 56.139C58.6405 56.2324 58.4235 56.2534 58.2462 56.202C58.0688 56.153 57.9335 56.0317 57.8028 55.999C57.6721 55.9663 57.5485 56.0223 57.4248 56.104C57.3011 56.1834 57.1774 56.2884 57.1051 56.3957C57.0328 56.503 57.0141 56.6151 57.0398 56.7854C57.0654 56.9557 57.1378 57.1844 57.2894 57.5181C57.4411 57.8518 57.6745 58.2928 57.9615 58.7245C58.2485 59.1562 58.5892 59.5763 58.8109 59.8749C59.0326 60.1736 59.1376 60.351 59.3102 60.505C59.4829 60.659 59.7233 60.792 59.8773 60.827C60.0313 60.862 60.099 60.8037 60.176 60.722C60.253 60.6427 60.337 60.5423 60.414 60.4093C60.4933 60.2763 60.5633 60.113 60.652 59.9939C60.7407 59.8749 60.8434 59.8026 60.9717 59.7863C61.0977 59.7676 61.247 59.8049 61.3334 59.8633C61.4221 59.9216 61.4501 60.0009 61.4734 60.0476C61.4967 60.0943 61.5177 60.106 61.5877 60.1013C61.6577 60.0966 61.7791 60.0779 61.9074 59.9963C62.0381 59.9169 62.1781 59.7769 62.3531 59.7116C62.5281 59.6486 62.7358 59.6603 63.0345 59.6626C63.3332 59.6626 63.7229 59.6556 64.0076 59.6556C64.2922 59.6556 64.4719 59.6626 64.5956 59.7373C64.7169 59.8119 64.7823 59.9519 64.8686 60.0849C64.955 60.2203 65.0623 60.3463 65.067 60.498C65.0716 60.6473 64.9713 60.82 64.8383 60.96C64.7053 61.0977 64.5419 61.2027 64.4486 61.3077C64.3552 61.415 64.3366 61.5224 64.3459 61.6601C64.3552 61.7977 64.3973 61.9657 64.4253 62.1594C64.4533 62.3508 64.4696 62.5678 64.3179 62.7335C64.1686 62.8991 63.8512 63.0158 63.6599 63.1068C63.4685 63.1978 63.4055 63.2608 63.2562 63.2865C63.1068 63.3122 62.8688 63.3005 62.7078 63.2725C62.5445 63.2445 62.4581 63.2002 62.3508 63.2375C62.2434 63.2725 62.1198 63.3892 61.9681 63.4662C61.8164 63.5432 61.6344 63.5782 61.4244 63.5105C61.2144 63.4428 60.974 63.2702 60.813 63.1652C60.652 63.0601 60.5727 63.0251 60.4513 63.0018C60.33 62.9808 60.1713 62.9715 60.1106 63.0368C60.05 63.1022 60.0896 63.2445 60.0943 63.3868C60.099 63.5315 60.0663 63.6785 59.9706 63.8045C59.875 63.9305 59.7139 64.0355 59.5716 64.0752C59.4293 64.1149 59.3056 64.0915 59.1912 64.1686C59.0769 64.2479 58.9719 64.4276 58.9206 64.5862C58.8692 64.7449 58.8692 64.8803 58.7479 64.9619C58.6265 65.0413 58.3862 65.0669 58.1062 65.0763C57.8262 65.0856 57.5041 65.0833 57.1494 65.1626C56.7948 65.242 56.4051 65.4076 56.1344 65.6713C55.8614 65.935 55.705 66.3014 55.516 66.614C55.3247 66.9267 55.1006 67.1881 54.7996 67.4214C54.4986 67.6548 54.1229 67.8648 53.7122 67.9325C53.3015 68.0001 52.8558 67.9278 52.5548 67.8368C52.2538 67.7458 52.0974 67.6315 51.9808 67.5428C51.8618 67.4518 51.7824 67.3841 51.6611 67.3304C51.5397 67.2768 51.3741 67.2371 51.199 67.1624C51.0217 67.0877 50.835 66.9804 50.716 66.8474C50.597 66.7144 50.5503 66.558 50.576 66.3994C50.6017 66.2407 50.702 66.0797 50.793 65.9443C50.884 65.809 50.9634 65.6947 50.9704 65.5523C50.9774 65.4076 50.9074 65.2326 50.8747 65.0973C50.8397 64.9619 50.8397 64.8709 50.8747 64.7869C50.9097 64.7029 50.982 64.6259 51.031 64.5536C51.08 64.4812 51.1034 64.4136 51.1384 64.3366C51.1734 64.2596 51.2224 64.1756 51.2551 64.0612C51.2877 63.9469 51.3041 63.8022 51.2317 63.6949C51.1594 63.5875 50.9984 63.5152 50.9097 63.4638C50.8187 63.4148 50.8 63.3868 50.751 63.3868C50.702 63.3868 50.6273 63.4148 50.4383 63.3868C50.2493 63.3612 49.9483 63.2818 49.7616 63.1932C49.5726 63.1045 49.4979 63.0088 49.3439 62.8851C49.1923 62.7615 48.9636 62.6098 48.7839 62.5071C48.6042 62.4044 48.4712 62.3531 48.3592 62.3531C48.2472 62.3531 48.1538 62.4044 48.0115 62.4394C47.8692 62.4744 47.6778 62.4908 47.4655 62.4744C47.2555 62.4604 47.0268 62.4161 46.8471 62.3461C46.6674 62.2761 46.5344 62.1804 46.4597 62.0497C46.3851 61.9191 46.3687 61.7557 46.3874 61.5761C46.4061 61.3987 46.4574 61.205 46.5881 61.058C46.7188 60.9087 46.9264 60.806 47.1201 60.666C47.3115 60.526 47.4888 60.3486 47.7548 60.1293C48.0208 59.9099 48.3779 59.6439 48.6112 59.4619C48.8446 59.2799 48.9519 59.1796 49.0359 59.0512C49.1199 58.9229 49.1806 58.7665 49.3206 58.6965C49.4606 58.6265 49.6823 58.6429 49.8503 58.6639C50.0183 58.6872 50.135 58.7129 50.254 58.6709C50.373 58.6289 50.492 58.5168 50.6063 58.4235C50.7207 58.3302 50.828 58.2532 50.7627 58.1832C50.6973 58.1132 50.457 58.0478 50.2587 57.9941C50.0626 57.9405 49.911 57.8961 49.806 57.8331C49.701 57.7701 49.6449 57.6908 49.5283 57.6395C49.4116 57.5881 49.2366 57.5625 49.1946 57.6605C49.1526 57.7585 49.2436 57.9801 49.2086 58.1248C49.1736 58.2718 49.0079 58.3442 48.8259 58.3652C48.6439 58.3862 48.4432 58.3582 48.1165 58.3045C47.7898 58.2508 47.3371 58.1692 46.8891 58.0992C46.4411 58.0268 46.0024 57.9638 45.5893 57.8938C45.1787 57.8238 44.7983 57.7468 44.3503 57.6698C43.9022 57.5905 43.3912 57.5111 42.9782 57.3244C42.5651 57.1378 42.2525 56.8461 42.1451 56.6151C42.0378 56.384 42.1335 56.216 42.2128 56.027C42.2921 55.838 42.3575 55.6233 42.3481 55.4903C42.3388 55.355 42.2548 55.299 42.1335 55.2523C42.0121 55.2033 41.8581 55.1636 41.6294 55.152C41.4031 55.1403 41.1067 55.1566 40.8734 55.1963C40.64 55.236 40.472 55.3013 40.3577 55.4203C40.2433 55.5417 40.1827 55.7167 40.1523 55.8987C40.122 56.0807 40.122 56.2697 40.0636 56.4097C40.0053 56.5497 39.8886 56.6431 39.7813 56.7574C39.674 56.8717 39.5736 57.0071 39.4686 57.1891C39.3636 57.3688 39.2563 57.5928 39.1326 57.7818C39.0089 57.9708 38.8689 58.1225 38.7732 58.2718C38.6799 58.4212 38.6309 58.5635 38.5539 58.7269C38.4769 58.8902 38.3742 59.0699 38.1502 59.3009C37.9285 59.5319 37.5878 59.8119 37.2915 60.0359C36.9951 60.26 36.7431 60.428 36.5494 60.6193C36.3581 60.8107 36.2251 61.023 36.1457 61.1887C36.0664 61.3544 36.0384 61.4757 36.029 61.6717C36.022 61.8677 36.0337 62.1408 36.029 62.4161C36.029 62.6938 36.0104 62.9738 35.9474 63.1465C35.8844 63.3215 35.77 63.3892 35.5857 63.4078C35.399 63.4288 35.1377 63.4008 34.9813 63.3192C34.825 63.2398 34.7736 63.1068 34.7083 62.9691C34.6453 62.8315 34.5683 62.6868 34.4913 62.5911C34.4143 62.4954 34.3396 62.4464 34.2159 62.4161C34.0923 62.3858 33.9196 62.3741 33.7422 62.4161C33.5649 62.4604 33.3852 62.5608 33.2429 62.6541C33.1005 62.7475 32.9955 62.8361 32.9208 62.8571C32.8438 62.8781 32.7972 62.8291 32.6875 62.8525C32.5778 62.8758 32.4051 62.9738 32.2698 63.0811C32.1345 63.1885 32.0388 63.3098 31.9221 63.4008C31.8054 63.4918 31.6701 63.5502 31.5021 63.5502C31.3341 63.5502 31.1334 63.4895 30.914 63.4382C30.6947 63.3868 30.459 63.3425 30.3027 63.2468C30.1463 63.1535 30.0693 63.0088 29.906 62.8665C29.7426 62.7241 29.4883 62.5841 29.3529 62.4418C29.2176 62.2994 29.1966 62.1548 29.1639 62.0287C29.1313 61.9027 29.0869 61.7954 29.0379 61.6997C28.9889 61.6064 28.9306 61.5247 28.9119 61.4057C28.8909 61.2844 28.9072 61.1257 28.9422 60.995C28.9773 60.8643 29.0286 60.764 29.1196 60.6987C29.2106 60.6333 29.3389 60.6007 29.4673 60.5867C29.598 60.5727 29.7286 60.5773 29.815 60.5656C29.899 60.5563 29.9363 60.5306 29.955 60.4816C29.976 60.4326 29.9783 60.3556 29.9713 60.2576C29.9643 60.1596 29.9433 60.0383 29.9223 59.9099C29.9013 59.7793 29.8756 59.6393 29.9013 59.5389C29.927 59.4386 30.004 59.3779 30.13 59.3196C30.256 59.2589 30.4333 59.1982 30.5547 59.1539C30.676 59.1072 30.746 59.0746 30.816 59.0255C30.8884 58.9765 30.9654 58.9065 31.0121 58.7992C31.0611 58.6919 31.0797 58.5425 31.1077 58.4142C31.1357 58.2858 31.1707 58.1785 31.2151 58.1015C31.2571 58.0245 31.3061 57.9801 31.4064 57.9638C31.5068 57.9451 31.6584 57.9545 31.7751 57.9568C31.8918 57.9615 31.9711 57.9615 32.0061 57.8518C32.0411 57.7445 32.0271 57.5275 31.9991 57.3711C31.9688 57.2148 31.9198 57.1191 31.8801 57.0141C31.8404 56.9091 31.8078 56.7971 31.7868 56.6407C31.7658 56.4844 31.7518 56.2837 31.7284 56.1367C31.7051 55.9897 31.6678 55.8987 31.6794 55.7493C31.6888 55.6 31.7448 55.397 31.8498 55.25C31.9548 55.103 32.1065 55.0166 32.2815 54.9233C32.4565 54.8299 32.6525 54.7343 32.8088 54.6853C32.9652 54.6363 33.0819 54.6316 33.1659 54.6433C33.2499 54.6549 33.3012 54.6829 33.3969 54.7296C33.4902 54.7763 33.6279 54.8393 33.7702 54.8859C33.9126 54.9326 34.0619 54.9606 34.1623 54.9746C34.2626 54.9886 34.3139 54.9886 34.3723 55.019C34.4306 55.0493 34.4936 55.11 34.573 55.1496C34.6523 55.1893 34.7433 55.2103 34.8413 55.1893C34.9393 55.1683 35.0443 55.11 35.1493 55.0656C35.2543 55.0213 35.364 54.9933 35.4643 55.026C35.5647 55.0586 35.6557 55.1496 35.7304 55.2103C35.805 55.271 35.861 55.299 35.91 55.306C35.959 55.313 36.0034 55.3013 35.9847 55.243C35.9637 55.1823 35.8797 55.075 35.8284 54.9629C35.777 54.8509 35.756 54.7343 35.777 54.6106C35.798 54.4869 35.8564 54.3539 35.854 54.2069C35.854 54.0576 35.7887 53.8942 35.7327 53.7915C35.6767 53.6889 35.6277 53.6492 35.497 53.5979C35.364 53.5465 35.1493 53.4812 34.972 53.4065C34.7946 53.3318 34.6593 53.2478 34.5496 53.1825C34.4399 53.1172 34.3559 53.0682 34.2976 52.9515C34.2393 52.8348 34.2066 52.6505 34.1576 52.4965C34.1086 52.3424 34.0386 52.2188 33.9896 52.1068C33.9406 51.9948 33.9079 51.8944 33.9102 51.8034C33.9149 51.7124 33.9546 51.6331 33.9872 51.5561C34.0199 51.4767 34.0433 51.402 33.9989 51.3344C33.9546 51.269 33.8426 51.213 33.7399 51.101C33.6372 50.9914 33.5462 50.8257 33.4669 50.702C33.3875 50.5783 33.3245 50.4943 33.2149 50.408C33.1052 50.3216 32.9488 50.233 32.8112 50.1186C32.6735 50.002 32.5522 49.8573 32.4565 49.7266C32.3608 49.5936 32.2885 49.4746 32.2511 49.3626C32.2138 49.2506 32.2091 49.1456 32.2698 49.0359C32.3305 48.9262 32.4541 48.8095 32.5335 48.6345C32.6128 48.4595 32.6502 48.2285 32.6688 48.0395C32.6875 47.8505 32.6875 47.7058 32.5475 47.5961C32.4098 47.4865 32.1321 47.4095 31.9268 47.3488C31.7214 47.2881 31.5838 47.2438 31.4787 47.1668C31.3714 47.0898 31.2967 46.9754 31.6888 46.9194L31.6818 46.9334Z" fill="white"/>
</g>
<defs>
<clipPath id="clip0_1535_218">
<rect width="81" height="81" fill="white"/>
</clipPath>
</defs>
</svg>
