<svg width="24" height="24" viewBox="0 0 24 24" fill="none" xmlns="http://www.w3.org/2000/svg">
<path fill-rule="evenodd" clip-rule="evenodd" d="M4.35917 5.06069C4.36117 5.06069 4.31117 5.11269 4.24817 5.17469C4.00617 5.40969 3.50517 5.89869 3.50012 6.92169C3.49217 8.35269 4.43317 11.0097 8.96417 15.5397C13.4742 20.0477 16.1272 20.9997 17.5612 20.9997H17.5822C18.6052 20.9947 19.0932 20.4927 19.3292 20.2517C19.4012 20.1777 19.4592 20.1237 19.5002 20.0897C20.4962 19.0877 21.0062 18.3417 21.0012 17.8637C20.9942 17.3757 20.3872 16.7987 19.5482 16.0007C19.2812 15.7467 18.9912 15.4707 18.6852 15.1647C17.8922 14.3737 17.4992 14.5087 16.6352 14.8127C15.4402 15.2317 13.8002 15.8017 11.2522 13.2527C8.70017 10.7027 9.27117 9.06469 9.68917 7.86969C9.99117 7.00569 10.1292 6.61169 9.33517 5.81769C9.02417 5.50769 8.74517 5.21369 8.48817 4.94369C7.69517 4.10969 7.12317 3.50669 6.63817 3.49969H6.63017C6.15117 3.49969 5.40717 4.01169 4.35417 5.06469C4.35717 5.06169 4.35917 5.06069 4.35917 5.06069ZM17.5622 22.4997C15.0702 22.4997 11.8212 20.5157 7.90417 16.6007C3.97217 12.6697 1.98517 9.41069 2.00008 6.91369C2.00917 5.26369 2.87417 4.41869 3.19917 4.10169C3.21617 4.08069 3.27417 4.02369 3.29417 4.00369C4.72817 2.56869 5.69517 1.98869 6.65717 1.99954C7.77417 2.01469 8.56917 2.85069 9.57517 3.90969C9.82417 4.17169 10.0942 4.45669 10.3952 4.75669C11.8552 6.21669 11.4392 7.40769 11.1052 8.36369C10.7412 9.40669 10.4262 10.3067 12.3122 12.1927C14.2002 14.0787 15.1002 13.7637 16.1392 13.3967C17.0962 13.0627 18.2842 12.6447 19.7462 14.1047C20.0422 14.4007 20.3232 14.6677 20.5822 14.9147C21.6462 15.9257 22.4862 16.7247 22.5004 17.8447C22.5122 18.7997 21.9322 19.7727 20.5002 21.2057L19.8662 20.7757L20.4022 21.2997C20.0852 21.6247 19.2412 22.4907 17.5902 22.4997H17.5622Z" fill="#E9B136"/>
</svg>
