<svg width="102" height="56" viewBox="0 0 102 56" fill="none" xmlns="http://www.w3.org/2000/svg">
<path d="M100.633 12.6711C100.131 12.4114 99.9062 12.2556 99.1098 10.9745C98.2962 9.69337 98.2615 9.65875 97.7076 9.22594C97.1536 8.81045 96.5996 8.67196 95.959 8.20453C95.8032 8.08334 95.5782 7.99678 95.3358 7.92753C95.5262 7.7371 96.0802 6.33481 96.1668 5.22683C96.2533 4.08423 95.6993 1.74709 92.9813 1.48741C90.2633 1.22773 88.5667 2.6127 87.8396 4.18811C87.8396 4.18811 87.4588 5.14028 87.5453 6.16169C87.5626 6.33481 87.7184 6.71568 87.7357 6.94074C87.4068 6.61181 87.0779 6.26556 86.7316 5.86738C85.5025 4.41316 82.5248 2.63001 80.2742 1.74709C78.0236 0.846862 74.6997 0.552556 68.5885 0.604493C62.4773 0.639117 57.2837 1.92021 53.1634 2.82045C49.0431 3.72068 40.0408 3.3225 34.5528 3.7553C32.5446 3.91111 30.7268 4.22273 29.1341 4.56897C29.0302 4.55166 28.9264 4.55166 28.8225 4.58629C26.7277 5.22684 22.7113 5.97126 21.6206 6.36944C20.53 6.76762 19.3874 6.50794 17.9851 6.3175C16.5828 6.14438 14.9728 5.7462 13.8302 5.26146C12.6876 4.77672 10.9044 3.68605 10.0215 3.25325C9.13858 2.82045 7.87479 2.4742 7.26887 2.94163C6.66294 3.42637 8.01328 4.94984 9.45019 5.6077C10.8871 6.26557 11.6835 7.49472 11.4238 7.44279C11.1641 7.39085 10.6447 7.26967 9.58869 7.35623C8.53265 7.44279 7.7536 8.04871 6.69756 7.87559C5.64152 7.70247 5.20872 7.21773 4.72398 7.78903C4.23924 8.36033 5.20872 9.27788 5.78002 9.5895C6.35132 9.90112 7.30349 10.6455 7.87479 11.5111C8.44609 12.3941 8.67115 13.3982 9.19051 13.6579C9.70988 13.9175 10.4197 14.4023 10.2466 14.8005C10.0734 15.1986 9.27707 15.9431 8.84427 16.2893C8.41147 16.6355 7.84017 17.2934 7.26887 17.8128C6.69756 18.3321 6.38594 18.3841 5.83195 18.8688C5.26065 19.3536 4.82785 18.7822 3.51212 19.0419C2.1964 19.3016 1.67704 19.3016 0.794117 19.1285C-0.0888029 18.9554 -0.0887989 19.4747 0.101635 20.3577C0.274756 21.2406 0.620995 22.2793 0.794117 24.7376C0.967238 27.196 1.48661 27.0055 2.1964 27.0055C2.1964 27.0055 2.88889 27.0055 3.11395 27.0055C3.339 27.0055 3.25244 27.1786 3.33901 27.7153C3.42557 28.2347 3.51213 28.4078 4.91441 28.8579C6.3167 29.2907 7.3208 28.7714 8.20372 28.9445C9.08664 29.1176 9.46751 29.8274 10.2119 30.3814C10.9564 30.9527 13.4147 31.1778 15.7691 31.6452C18.1236 32.1299 19.0931 33.0475 20.7204 33.5668C22.3477 34.0862 24.2694 33.7919 24.2694 33.7919C24.2694 33.7919 25.8102 33.7919 27.4029 34.9345C27.4029 35.4712 27.3856 38.4142 27.2644 40.8206C27.1259 43.4694 27.4029 44.0061 26.7277 45.2006C26.0699 46.3951 24.079 48.1264 23.4211 48.663C22.7632 49.1997 22.0881 50.6539 22.0881 50.6539C22.0881 50.6539 22.8498 51.2252 23.9405 51.2252C25.0311 51.2252 26.1391 51.104 26.8143 50.9655C27.4721 50.8271 27.4029 49.9961 28.1993 49.1997C28.9956 48.4033 29.5323 48.1437 29.5323 48.1437C29.5323 48.1437 29.1341 47.3473 29.6708 46.2913C30.2075 45.2352 30.7268 44.4389 31.402 43.9022C32.0599 43.3655 32.3369 42.8462 32.735 42.448C33.064 42.119 33.2371 40.0935 33.2371 39.6953C33.341 40.1281 33.4102 40.5263 33.4102 40.8552C33.4102 41.9113 33.6006 43.781 33.0813 45.2352C32.8735 45.8411 32.8735 46.5336 32.5792 47.0011C32.2503 47.5204 31.8694 47.9532 31.5924 48.3687C31.0558 49.1651 30.571 50.7405 30.571 50.7405C30.571 50.7405 30.8653 50.8617 31.5578 51.0348C32.233 51.2079 35.3838 51.0348 35.7647 50.7751C36.1455 50.5154 36.8726 48.663 36.8726 48.663C36.8726 48.663 36.5437 45.5468 37.0111 43.8849C37.167 43.3655 38.6039 40.8379 39.4002 39.3664C39.4175 39.3318 39.4348 39.2972 39.4522 39.2625C39.6253 39.3145 39.7638 39.3491 39.8503 39.3664C40.7852 39.6261 43.434 40.0416 46.2905 40.2666C49.1297 40.4744 55.4659 40.5263 58.7898 40.1974C61.5425 39.9377 71.8605 37.6006 71.8605 37.6006L73.5052 37.3582C73.5571 37.7044 73.661 38.0507 73.8687 38.3969C75.0459 40.4571 75.8942 41.7382 76.5348 43.1231C77.1407 44.4735 76.8118 46.1008 76.5521 47.0357C76.2578 48.1263 75.5826 48.7842 74.8555 49.6671C74.1111 50.5501 73.2282 52.0562 72.553 52.5756C71.2027 53.5451 70.9776 54.653 70.9776 54.653C70.9776 54.653 71.722 55.2417 73.4878 55.2417C75.2537 55.2417 75.1152 54.8088 75.7038 54.653C75.7038 54.653 76.2924 53.0949 76.4482 52.5929C76.5867 52.0735 77.0368 51.935 77.6254 51.7792C78.2141 51.6407 78.8027 51.2599 78.8027 51.2599C78.8027 51.2599 78.8719 49.4075 78.9412 48.7496C79.0104 48.0917 79.599 47.7109 80.2742 46.7587C80.9321 45.8065 82.4902 45.4257 82.7845 44.6985C83.0788 43.9541 82.7845 42.4133 82.4902 41.5304C82.4036 41.2534 82.3344 40.6994 82.2651 40.0762C82.7498 40.2839 83.2692 40.509 83.7366 40.7168C85.2774 41.3746 86.6105 43.5213 87.3549 45.1487C88.0993 46.776 87.8743 50.5327 87.8743 50.5327C87.8743 50.5327 87.805 51.2772 87.4241 52.0908C87.0606 52.9045 86.2469 53.4931 86.7663 53.7874C87.2856 54.0817 88.0993 54.376 88.9822 53.7874C89.8652 53.1988 90.7308 53.1815 90.7308 53.1815C90.7308 53.1815 90.9904 52.3332 91.1982 51.2772C91.4752 49.9095 91.1982 50.5327 91.1982 49.0612C91.1982 47.5897 90.3153 45.3737 90.1595 44.1965C90.0036 43.0193 90.4538 41.5304 90.6096 40.9418C90.7481 40.3532 89.8652 40.0589 88.9822 39.6088C88.9822 39.6088 88.2378 38.57 87.6492 37.3928C87.0606 36.2156 87.7877 35.1769 87.7877 35.1769C87.7877 35.1769 87.7531 35.1249 87.7011 35.0211C88.359 34.1728 90.0729 32.4069 91.8214 29.2042C93.8123 25.5513 94.3317 23.3007 93.8643 17.8993C93.6565 15.5795 92.9294 13.6925 92.133 12.2556C92.3581 11.9786 92.687 11.5631 93.1025 11.061C93.1198 11.0437 93.1198 11.0264 93.1371 11.0264C93.293 11.1649 93.4314 11.2861 93.57 11.4073C94.8857 12.5499 95.18 12.4633 96.4957 12.8615C97.8114 13.2424 97.6902 13.7444 97.898 14.4715C97.898 14.4715 98.2788 14.2118 98.4866 13.9175C98.6943 13.6232 98.6597 13.5713 99.6811 13.6232C100.703 13.6752 101.43 12.8615 101.43 12.8615C101.43 12.8615 101.135 12.9307 100.633 12.6711ZM33.1505 39.6953C33.1332 39.7992 33.1332 39.7473 33.1678 39.5915V39.6088C33.1678 39.6261 33.1678 39.6607 33.1505 39.6953ZM93.2756 6.12707C93.1544 6.8888 92.7216 7.06192 92.7216 7.06192C92.6005 7.09655 92.2542 7.35623 90.7308 6.80224C89.2073 6.24825 89.1553 5.22684 89.7093 4.4651C90.0556 3.99767 90.7308 3.53024 91.7002 3.53024C92.6697 3.53024 92.9121 3.87648 93.1371 4.29198C93.5007 4.8979 93.3622 5.62501 93.2756 6.12707Z" fill="white"/>
</svg>
