<svg width="20" height="20" viewBox="0 0 20 20" fill="none" xmlns="http://www.w3.org/2000/svg">
<g clip-path="url(#clip0_1617_10882)">
<path d="M9.49924 0.00333747C7.89424 0.0227125 4.44362 0.286463 2.51362 2.05709C1.07799 3.47959 0.576744 5.58271 0.517994 8.18334C0.469244 10.7746 0.410494 15.6408 5.10112 16.9658V18.984C5.10112 18.984 5.07174 19.7915 5.60549 19.9571C6.26299 20.1652 6.63737 19.544 7.26237 18.8765L8.42799 17.5583C11.6374 17.8252 14.0955 17.2102 14.3786 17.119C15.0299 16.9108 18.698 16.4421 19.2974 11.5752C19.9124 6.54896 18.998 3.38209 17.3474 1.94959H17.3374C16.8392 1.49084 14.8374 0.0320875 10.3649 0.0158375C10.3649 0.0158375 10.033 -0.00603753 9.49924 0.00333747ZM9.55424 1.41646C10.0099 1.41334 10.2867 1.43271 10.2867 1.43271C14.0724 1.44271 15.8792 2.58209 16.3055 2.96584C17.6955 4.15709 18.4117 7.01209 17.8874 11.2083C17.3892 15.2771 14.4142 15.5346 13.8636 15.7102C13.6292 15.7852 11.4642 16.319 8.73674 16.1433C8.73674 16.1433 6.70549 18.5946 6.07049 19.2258C5.96987 19.3365 5.85237 19.369 5.77737 19.3527C5.66987 19.3265 5.63737 19.1933 5.64362 19.0108L5.66299 15.6615C1.68487 14.5615 1.91924 10.4108 1.96174 8.24271C2.01049 6.07459 2.41737 4.30084 3.62862 3.09959C5.25924 1.62521 8.18924 1.42646 9.55299 1.41646H9.55424ZM9.85424 3.58396C9.8215 3.58363 9.78902 3.58979 9.75867 3.60207C9.72832 3.61435 9.70069 3.63252 9.6774 3.65553C9.6541 3.67853 9.63559 3.70592 9.62292 3.73612C9.61026 3.76632 9.6037 3.79872 9.60362 3.83146C9.60362 3.97146 9.71737 4.08209 9.85424 4.08209C10.4739 4.0703 11.0898 4.18132 11.6664 4.40873C12.243 4.63614 12.7688 4.97545 13.2136 5.40709C14.1217 6.28896 14.5642 7.47396 14.5811 9.02334C14.5811 9.16021 14.6917 9.27396 14.8317 9.27396V9.26396C14.8977 9.26413 14.9611 9.23821 15.008 9.19185C15.055 9.14548 15.0817 9.08244 15.0824 9.01646C15.1127 8.28718 14.9945 7.55935 14.7348 6.87719C14.4751 6.19504 14.0794 5.57281 13.5717 5.04834C12.5824 4.08146 11.3286 3.58334 9.85424 3.58334V3.58396ZM6.55987 4.15709C6.38296 4.13124 6.20254 4.16675 6.04862 4.25771H6.03549C5.67816 4.46717 5.35625 4.73191 5.08174 5.04209C4.85362 5.30584 4.72987 5.57271 4.69737 5.82959C4.67799 5.98271 4.69112 6.13584 4.73674 6.28209L4.75299 6.29209C5.00987 7.04709 5.34549 7.77334 5.75549 8.45709C6.28363 9.41769 6.93359 10.3061 7.68924 11.1002L7.71174 11.1327L7.74737 11.159L7.76987 11.1852L7.79612 11.2077C8.59314 11.9656 9.48367 12.6186 10.4461 13.1508C11.5461 13.7496 12.2136 14.0327 12.6142 14.1502V14.1565C12.7317 14.1921 12.8386 14.2083 12.9461 14.2083C13.2875 14.1833 13.6108 14.0447 13.8642 13.8146C14.173 13.54 14.4348 13.2168 14.6392 12.8577V12.8515C14.8311 12.4902 14.7661 12.1483 14.4892 11.9171C13.9348 11.4324 13.3351 11.0019 12.6986 10.6315C12.2724 10.4002 11.8392 10.5402 11.6636 10.7746L11.2892 11.2465C11.0974 11.4808 10.7486 11.4483 10.7486 11.4483L10.7386 11.4546C8.13799 10.7902 7.44424 8.15709 7.44424 8.15709C7.44424 8.15709 7.41174 7.79896 7.65237 7.61646L8.12112 7.23896C8.34549 7.05646 8.50174 6.62396 8.26112 6.19709C7.89324 5.55968 7.46368 4.95993 6.97862 4.40646C6.87258 4.27598 6.72381 4.18721 6.55862 4.15584L6.55987 4.15709ZM10.2867 4.89959C9.95487 4.89959 9.95487 5.40084 10.2899 5.40084C10.7025 5.40753 11.1099 5.49549 11.4885 5.65967C11.8672 5.82386 12.2098 6.06106 12.4967 6.35771C12.7585 6.64647 12.9597 6.98483 13.0883 7.35274C13.2169 7.72065 13.2703 8.11064 13.2455 8.49959C13.2466 8.56541 13.2735 8.62817 13.3203 8.67443C13.3672 8.72069 13.4303 8.74677 13.4961 8.74709L13.5061 8.76021C13.5724 8.75972 13.6359 8.73316 13.6828 8.68626C13.7297 8.63937 13.7563 8.57591 13.7567 8.50959C13.7792 7.51646 13.4705 6.68334 12.8649 6.01584C12.2561 5.34834 11.4067 4.97396 10.3224 4.89959H10.2867ZM10.6974 6.24709C10.3555 6.23709 10.3424 6.74834 10.6811 6.75834C11.5049 6.80084 11.9049 7.21709 11.9574 8.07334C11.9585 8.13833 11.9851 8.2003 12.0313 8.24597C12.0776 8.29165 12.1399 8.3174 12.2049 8.31771H12.2149C12.2483 8.31628 12.2811 8.3082 12.3114 8.29396C12.3416 8.27971 12.3687 8.25958 12.3911 8.23473C12.4135 8.20989 12.4308 8.18083 12.4418 8.14926C12.4529 8.11769 12.4575 8.08423 12.4555 8.05084C12.3967 6.93459 11.788 6.30584 10.7074 6.24771H10.6974V6.24709Z" fill="#E9B136"/>
</g>
<defs>
<clipPath id="clip0_1617_10882">
<rect width="20" height="20" fill="white"/>
</clipPath>
</defs>
</svg>
