<svg width="20" height="20" viewBox="0 0 20 20" fill="none" xmlns="http://www.w3.org/2000/svg">
<g clip-path="url(#clip0_1535_510)">
<path d="M9.49876 0.00339851C7.89376 0.0227735 4.44313 0.286524 2.51313 2.05715C1.07751 3.47965 0.576256 5.58277 0.517506 8.1834C0.468756 10.7746 0.410006 15.6409 5.10063 16.9659V18.984C5.10063 18.984 5.07126 19.7915 5.60501 19.9571C6.26251 20.1653 6.63688 19.544 7.26188 18.8765L8.42751 17.5584C11.6369 17.8253 14.095 17.2103 14.3781 17.119C15.0294 16.9109 18.6975 16.4422 19.2969 11.5753C19.9119 6.54902 18.9975 3.38215 17.3469 1.94965H17.3369C16.8388 1.4909 14.8369 0.0321485 10.3644 0.0158985C10.3644 0.0158985 10.0325 -0.00597649 9.49876 0.00339851ZM9.55376 1.41652C10.0094 1.4134 10.2863 1.43277 10.2863 1.43277C14.0719 1.44277 15.8788 2.58215 16.305 2.9659C17.695 4.15715 18.4113 7.01215 17.8869 11.2084C17.3888 15.2772 14.4138 15.5346 13.8631 15.7103C13.6288 15.7853 11.4638 16.319 8.73626 16.1434C8.73626 16.1434 6.70501 18.5947 6.07001 19.2259C5.96938 19.3365 5.85188 19.369 5.77688 19.3528C5.66938 19.3265 5.63688 19.1934 5.64313 19.0109L5.66251 15.6615C1.68438 14.5615 1.91876 10.4109 1.96126 8.24277C2.01001 6.07465 2.41688 4.3009 3.62813 3.09965C5.25876 1.62527 8.18876 1.42652 9.55251 1.41652H9.55376ZM9.85376 3.58402C9.82101 3.58369 9.78853 3.58985 9.75818 3.60213C9.72783 3.61441 9.70021 3.63258 9.67691 3.65559C9.65361 3.6786 9.6351 3.70599 9.62243 3.73618C9.60977 3.76638 9.60321 3.79878 9.60313 3.83152C9.60313 3.97152 9.71688 4.08215 9.85376 4.08215C10.4734 4.07036 11.0893 4.18138 11.6659 4.40879C12.2425 4.6362 12.7683 4.97551 13.2131 5.40715C14.1213 6.28902 14.5638 7.47402 14.5806 9.0234C14.5806 9.16027 14.6913 9.27402 14.8313 9.27402V9.26402C14.8972 9.26419 14.9606 9.23827 15.0076 9.19191C15.0545 9.14555 15.0812 9.0825 15.0819 9.01652C15.1122 8.28724 14.994 7.55941 14.7343 6.87725C14.4746 6.1951 14.0789 5.57287 13.5713 5.0484C12.5819 4.08152 11.3281 3.5834 9.85376 3.5834V3.58402ZM6.55938 4.15715C6.38247 4.1313 6.20205 4.16681 6.04813 4.25777H6.03501C5.67767 4.46724 5.35576 4.73197 5.08126 5.04215C4.85313 5.3059 4.72938 5.57277 4.69688 5.82965C4.67751 5.98277 4.69063 6.1359 4.73626 6.28215L4.75251 6.29215C5.00938 7.04715 5.34501 7.7734 5.75501 8.45715C6.28314 9.41775 6.9331 10.3061 7.68876 11.1003L7.71126 11.1328L7.74688 11.159L7.76938 11.1853L7.79563 11.2078C8.59265 11.9656 9.48319 12.6186 10.4456 13.1509C11.5456 13.7497 12.2131 14.0328 12.6138 14.1503V14.1565C12.7313 14.1922 12.8381 14.2084 12.9456 14.2084C13.2871 14.1834 13.6103 14.0448 13.8638 13.8147C14.1725 13.5401 14.4343 13.2168 14.6388 12.8578V12.8515C14.8306 12.4903 14.7656 12.1484 14.4888 11.9171C13.9343 11.4325 13.3347 11.002 12.6981 10.6315C12.2719 10.4003 11.8388 10.5403 11.6631 10.7746L11.2888 11.2465C11.0969 11.4809 10.7481 11.4484 10.7481 11.4484L10.7381 11.4546C8.13751 10.7903 7.44376 8.15715 7.44376 8.15715C7.44376 8.15715 7.41126 7.79902 7.65188 7.61652L8.12063 7.23902C8.34501 7.05652 8.50126 6.62402 8.26063 6.19715C7.89276 5.55974 7.4632 4.95999 6.97813 4.40652C6.87209 4.27604 6.72332 4.18727 6.55813 4.1559L6.55938 4.15715ZM10.2863 4.89965C9.95438 4.89965 9.95438 5.4009 10.2894 5.4009C10.7021 5.40759 11.1094 5.49555 11.488 5.65973C11.8667 5.82392 12.2093 6.06112 12.4963 6.35777C12.758 6.64653 12.9592 6.98489 13.0878 7.3528C13.2164 7.72071 13.2699 8.1107 13.245 8.49965C13.2461 8.56547 13.273 8.62823 13.3199 8.67449C13.3667 8.72075 13.4298 8.74683 13.4956 8.74715L13.5056 8.76027C13.5719 8.75978 13.6354 8.73322 13.6823 8.68633C13.7292 8.63943 13.7558 8.57597 13.7563 8.50965C13.7788 7.51652 13.47 6.6834 12.8644 6.0159C12.2556 5.3484 11.4063 4.97402 10.3219 4.89965H10.2863ZM10.6969 6.24715C10.355 6.23715 10.3419 6.7484 10.6806 6.7584C11.5044 6.8009 11.9044 7.21715 11.9569 8.0734C11.958 8.1384 11.9846 8.20036 12.0308 8.24603C12.0771 8.29171 12.1394 8.31746 12.2044 8.31777H12.2144C12.2478 8.31634 12.2806 8.30827 12.3109 8.29402C12.3411 8.27977 12.3683 8.25964 12.3907 8.2348C12.4131 8.20995 12.4303 8.18089 12.4413 8.14932C12.4524 8.11775 12.457 8.08429 12.455 8.0509C12.3963 6.93465 11.7875 6.3059 10.7069 6.24777H10.6969V6.24715Z" fill="#2E4F46"/>
</g>
<defs>
<clipPath id="clip0_1535_510">
<rect width="20" height="20" fill="white" transform="translate(0 0.000244141)"/>
</clipPath>
</defs>
</svg>
