<svg width="20" height="20" viewBox="0 0 20 20" fill="none" xmlns="http://www.w3.org/2000/svg">
<path d="M9.49876 0.0031248C7.89376 0.0224998 4.44313 0.28625 2.51313 2.05687C1.07751 3.47938 0.576256 5.5825 0.517506 8.18313C0.468756 10.7744 0.410006 15.6406 5.10063 16.9656V18.9838C5.10063 18.9838 5.07126 19.7913 5.60501 19.9569C6.26251 20.165 6.63688 19.5438 7.26188 18.8763L8.42751 17.5581C11.6369 17.825 14.095 17.21 14.3781 17.1188C15.0294 16.9106 18.6975 16.4419 19.2969 11.575C19.9119 6.54875 18.9975 3.38188 17.3469 1.94938H17.3369C16.8388 1.49062 14.8369 0.0318748 10.3644 0.0156248C10.3644 0.0156248 10.0325 -0.0062502 9.49876 0.0031248ZM9.55376 1.41625C10.0094 1.41313 10.2863 1.4325 10.2863 1.4325C14.0719 1.4425 15.8788 2.58187 16.305 2.96562C17.695 4.15688 18.4113 7.01188 17.8869 11.2081C17.3888 15.2769 14.4138 15.5344 13.8631 15.71C13.6288 15.785 11.4638 16.3188 8.73626 16.1431C8.73626 16.1431 6.70501 18.5944 6.07001 19.2256C5.96938 19.3363 5.85188 19.3688 5.77688 19.3525C5.66938 19.3263 5.63688 19.1931 5.64313 19.0106L5.66251 15.6613C1.68438 14.5613 1.91876 10.4106 1.96126 8.2425C2.01001 6.07438 2.41688 4.30063 3.62813 3.09938C5.25876 1.625 8.18876 1.42625 9.55251 1.41625H9.55376ZM9.85376 3.58375C9.82101 3.58342 9.78853 3.58957 9.75818 3.60186C9.72783 3.61414 9.70021 3.63231 9.67691 3.65531C9.65361 3.67832 9.6351 3.70571 9.62243 3.73591C9.60977 3.7661 9.60321 3.79851 9.60313 3.83125C9.60313 3.97125 9.71688 4.08188 9.85376 4.08188C10.4734 4.07009 11.0893 4.1811 11.6659 4.40852C12.2425 4.63593 12.7683 4.97524 13.2131 5.40688C14.1213 6.28875 14.5638 7.47375 14.5806 9.02313C14.5806 9.16 14.6913 9.27375 14.8313 9.27375V9.26375C14.8972 9.26392 14.9606 9.238 15.0076 9.19163C15.0545 9.14527 15.0812 9.08223 15.0819 9.01625C15.1122 8.28697 14.994 7.55913 14.7343 6.87698C14.4746 6.19483 14.0789 5.5726 13.5713 5.04813C12.5819 4.08125 11.3281 3.58312 9.85376 3.58312V3.58375ZM6.55938 4.15688C6.38247 4.13103 6.20205 4.16654 6.04813 4.2575H6.03501C5.67767 4.46696 5.35576 4.7317 5.08126 5.04188C4.85313 5.30563 4.72938 5.5725 4.69688 5.82938C4.67751 5.9825 4.69063 6.13563 4.73626 6.28188L4.75251 6.29188C5.00938 7.04688 5.34501 7.77313 5.75501 8.45688C6.28314 9.41747 6.9331 10.3059 7.68876 11.1L7.71126 11.1325L7.74688 11.1588L7.76938 11.185L7.79563 11.2075C8.59265 11.9654 9.48319 12.6184 10.4456 13.1506C11.5456 13.7494 12.2131 14.0325 12.6138 14.15V14.1563C12.7313 14.1919 12.8381 14.2081 12.9456 14.2081C13.2871 14.1831 13.6103 14.0445 13.8638 13.8144C14.1725 13.5398 14.4343 13.2166 14.6388 12.8575V12.8513C14.8306 12.49 14.7656 12.1481 14.4888 11.9169C13.9343 11.4322 13.3347 11.0017 12.6981 10.6313C12.2719 10.4 11.8388 10.54 11.6631 10.7744L11.2888 11.2463C11.0969 11.4806 10.7481 11.4481 10.7481 11.4481L10.7381 11.4544C8.13751 10.79 7.44376 8.15688 7.44376 8.15688C7.44376 8.15688 7.41126 7.79875 7.65188 7.61625L8.12063 7.23875C8.34501 7.05625 8.50126 6.62375 8.26063 6.19688C7.89276 5.55947 7.4632 4.95972 6.97813 4.40625C6.87209 4.27577 6.72332 4.18699 6.55813 4.15563L6.55938 4.15688ZM10.2863 4.89938C9.95438 4.89938 9.95438 5.40063 10.2894 5.40063C10.7021 5.40732 11.1094 5.49527 11.488 5.65946C11.8667 5.82364 12.2093 6.06084 12.4963 6.3575C12.758 6.64626 12.9592 6.98461 13.0878 7.35253C13.2164 7.72044 13.2699 8.11042 13.245 8.49938C13.2461 8.5652 13.273 8.62796 13.3199 8.67422C13.3667 8.72048 13.4298 8.74656 13.4956 8.74688L13.5056 8.76C13.5719 8.75951 13.6354 8.73295 13.6823 8.68605C13.7292 8.63916 13.7558 8.57569 13.7563 8.50938C13.7788 7.51625 13.47 6.68313 12.8644 6.01563C12.2556 5.34813 11.4063 4.97375 10.3219 4.89938H10.2863ZM10.6969 6.24688C10.355 6.23688 10.3419 6.74813 10.6806 6.75813C11.5044 6.80063 11.9044 7.21688 11.9569 8.07313C11.958 8.13812 11.9846 8.20009 12.0308 8.24576C12.0771 8.29143 12.1394 8.31718 12.2044 8.3175H12.2144C12.2478 8.31607 12.2806 8.30799 12.3109 8.29375C12.3411 8.2795 12.3683 8.25937 12.3907 8.23452C12.4131 8.20968 12.4303 8.18062 12.4413 8.14905C12.4524 8.11747 12.457 8.08401 12.455 8.05063C12.3963 6.93438 11.7875 6.30563 10.7069 6.2475H10.6969V6.24688Z" fill="white"/>
</svg>
